SplineFontDB: 3.2
FontName: AcariSans-ExtraBold
FullName: Acari Sans ExtraBold
FamilyName: Acari Sans ExtraBold
Weight: Heavy
Copyright: Copyright (c)2015, HK Grotesk Latin by Alfredo Marco Pradil (ammpradil@gmail.com) and HK Grotesk Cyrillic by Stefan Peev (http://www.contextbg.net/). HK Grotesk is a trademark of Alfredo Marco Pradil. Copyright (c) 2018-2023 The Acari Sans Project Authors (https://github.com/cssobral2013/acari-sans)
Version: 1.063; ttfautohint (v1.8.3)
ItalicAngle: 0
UnderlinePosition: -250
UnderlineWidth: 100
Ascent: 1600
Descent: 400
InvalidEm: 0
sfntRevision: 0x00011020
LayerCount: 2
Layer: 0 1 "Back" 1
Layer: 1 1 "Fore" 0
XUID: [1021 467 -1401554168 9943609]
StyleMap: 0x0020
FSType: 0
OS2Version: 4
OS2_WeightWidthSlopeOnly: 0
OS2_UseTypoMetrics: 0
CreationTime: 1480856841
ModificationTime: 1686781341
PfmFamily: 81
TTFWeight: 800
TTFWidth: 5
LineGap: 26
VLineGap: 0
Panose: 0 0 0 0 0 0 0 0 0 0
OS2TypoAscent: 1900
OS2TypoAOffset: 0
OS2TypoDescent: -487
OS2TypoDOffset: 0
OS2TypoLinegap: 26
OS2WinAscent: 1913
OS2WinAOffset: 0
OS2WinDescent: 500
OS2WinDOffset: 0
HheadAscent: 1900
HheadAOffset: 0
HheadDescent: -487
HheadDOffset: 0
OS2SubXSize: 1331
OS2SubYSize: 1228
OS2SubXOff: 0
OS2SubYOff: 153
OS2SupXSize: 1331
OS2SupYSize: 1228
OS2SupXOff: 0
OS2SupYOff: 716
OS2StrikeYSize: 82
OS2StrikeYPos: 599
OS2CapHeight: 1413
OS2XHeight: 1039
OS2Vendor: 'AMSP'
OS2CodePages: 20000197.00000000
OS2UnicodeRanges: 2000020f.00000001.00000000.00000000
Lookup: 1 0 0 "'aalt' Access All Alternates lookup 0" { "'aalt' Access All Alternates lookup 0 subtable"  } ['aalt' ('DFLT' <'dflt' > 'cyrl' <'BGR ' 'MKD ' 'RUS ' 'SRB ' 'dflt' > 'latn' <'AZE ' 'CRT ' 'KAZ ' 'MOL ' 'ROM ' 'TAT ' 'TRK ' 'dflt' > ) ]
Lookup: 3 0 0 "'aalt' Access All Alternates lookup 1" { "'aalt' Access All Alternates lookup 1 subtable"  } ['aalt' ('DFLT' <'dflt' > 'cyrl' <'BGR ' 'MKD ' 'RUS ' 'SRB ' 'dflt' > 'latn' <'AZE ' 'CRT ' 'KAZ ' 'MOL ' 'ROM ' 'TAT ' 'TRK ' 'dflt' > ) ]

StartChar: .notdef
Encoding: 65536 -1 0
Width: 728
GlyphClass: 1
Flags: W
LayerCount: 2
Fore
SplineSet
596 0 m 1,0,-1
 66 0 l 1,1,-1
 66 1333 l 1,2,-1
 596 1333 l 1,3,-1
 596 0 l 1,0,-1
530 66 m 1,4,-1
 530 1267 l 1,5,-1
 132 1267 l 1,6,-1
 132 66 l 1,7,-1
 530 66 l 1,4,-1
EndSplineSet
EndChar

StartChar: exclam
Encoding: 33 33 4
Width: 636
GlyphClass: 1
Flags: W
LayerCount: 2
Fore
SplineSet
422 443 m 1,0,-1
 215 443 l 1,1,-1
 187 1433 l 1,2,-1
 450 1433 l 1,3,-1
 422 443 l 1,0,-1
463 0 m 1,4,-1
 174 0 l 1,5,-1
 174 286 l 1,6,-1
 463 286 l 1,7,-1
 463 0 l 1,4,-1
EndSplineSet
EndChar

StartChar: quotedbl
Encoding: 34 34 5
Width: 974
GlyphClass: 1
Flags: W
LayerCount: 2
Fore
SplineSet
420 829 m 1,0,-1
 193 829 l 1,1,-1
 193 1413 l 1,2,-1
 420 1413 l 1,3,-1
 420 829 l 1,0,-1
782 829 m 1,4,-1
 556 829 l 1,5,-1
 556 1413 l 1,6,-1
 782 1413 l 1,7,-1
 782 829 l 1,4,-1
EndSplineSet
EndChar

StartChar: numbersign
Encoding: 35 35 6
Width: 1386
GlyphClass: 1
Flags: W
LayerCount: 2
Fore
SplineSet
861 0 m 1,0,-1
 647 0 l 1,1,-1
 741 436 l 1,2,-1
 513 436 l 1,3,-1
 423 0 l 1,4,-1
 210 0 l 1,5,-1
 300 406 l 1,6,-1
 69 406 l 1,7,-1
 69 597 l 1,8,-1
 341 597 l 1,9,-1
 390 837 l 1,10,-1
 151 837 l 1,11,-1
 151 1039 l 1,12,-1
 431 1039 l 1,13,-1
 525 1434 l 1,14,-1
 740 1434 l 1,15,-1
 644 997 l 1,16,-1
 872 997 l 1,17,-1
 964 1434 l 1,18,-1
 1178 1434 l 1,19,-1
 1084 1028 l 1,20,-1
 1316 1028 l 1,21,-1
 1316 837 l 1,22,-1
 1042 837 l 1,23,-1
 994 597 l 1,24,-1
 1234 597 l 1,25,-1
 1234 395 l 1,26,-1
 953 395 l 1,27,-1
 861 0 l 1,0,-1
781 597 m 1,28,-1
 831 837 l 1,29,-1
 602 837 l 1,30,-1
 554 597 l 1,31,-1
 781 597 l 1,28,-1
EndSplineSet
EndChar

StartChar: dollar
Encoding: 36 36 7
Width: 1135
GlyphClass: 1
Flags: W
LayerCount: 2
Fore
SplineSet
683 -246 m 1,0,-1
 453 -246 l 1,1,-1
 453 -12 l 1,2,3
 375 4 375 4 304.5 38.5 c 128,-1,4
 234 73 234 73 178 124 c 128,-1,5
 122 175 122 175 84 242 c 128,-1,6
 46 309 46 309 33 391 c 1,7,-1
 308 447 l 1,8,9
 317 391 317 391 341.5 350.5 c 128,-1,10
 366 310 366 310 402.5 284.5 c 128,-1,11
 439 259 439 259 486 247 c 128,-1,12
 533 235 533 235 587 235 c 0,13,14
 633 235 633 235 673 242.5 c 128,-1,15
 713 250 713 250 743 269.5 c 128,-1,16
 773 289 773 289 790 322.5 c 128,-1,17
 807 356 807 356 807 409 c 0,18,19
 807 436 807 436 796.5 458 c 128,-1,20
 786 480 786 480 769 497.5 c 128,-1,21
 752 515 752 515 731 528.5 c 128,-1,22
 710 542 710 542 688 553 c 0,23,24
 644 576 644 576 598.5 595 c 128,-1,25
 553 614 553 614 508 633 c 256,26,27
 463 652 463 652 417.5 670.5 c 128,-1,28
 372 689 372 689 330 714 c 0,29,30
 233 771 233 771 180 852.5 c 128,-1,31
 127 934 127 934 127 1049 c 0,32,33
 127 1122 127 1122 152.5 1184 c 128,-1,34
 178 1246 178 1246 222 1294 c 128,-1,35
 266 1342 266 1342 325.5 1376 c 128,-1,36
 385 1410 385 1410 453 1426 c 1,37,-1
 453 1659 l 1,38,-1
 683 1659 l 1,39,-1
 683 1432 l 1,40,41
 795 1412 795 1412 879.5 1354.5 c 128,-1,42
 964 1297 964 1297 1019 1197 c 1,43,-1
 789 1063 l 1,44,45
 718 1189 718 1189 574 1189 c 0,46,47
 545 1189 545 1189 515.5 1181 c 128,-1,48
 486 1173 486 1173 462 1156.5 c 128,-1,49
 438 1140 438 1140 423 1115.5 c 128,-1,50
 408 1091 408 1091 408 1058 c 0,51,52
 408 1039 408 1039 415.5 1023 c 128,-1,53
 423 1007 423 1007 435 993 c 128,-1,54
 447 979 447 979 462 967 c 128,-1,55
 477 955 477 955 491 946 c 0,56,57
 534 918 534 918 582.5 897.5 c 128,-1,58
 631 877 631 877 679 858 c 0,59,60
 763 824 763 824 837.5 788.5 c 128,-1,61
 912 753 912 753 967.5 702.5 c 128,-1,62
 1023 652 1023 652 1055.5 581.5 c 128,-1,63
 1088 511 1088 511 1088 407 c 0,64,65
 1088 320 1088 320 1055.5 247 c 128,-1,66
 1023 174 1023 174 968 119 c 128,-1,67
 913 64 913 64 839.5 28.5 c 128,-1,68
 766 -7 766 -7 683 -17 c 1,69,-1
 683 -246 l 1,0,-1
EndSplineSet
EndChar

StartChar: percent
Encoding: 37 37 8
Width: 1529
GlyphClass: 1
Flags: W
LayerCount: 2
Fore
SplineSet
473 -27 m 1,0,-1
 238 -27 l 1,1,-1
 1041 1469 l 1,2,-1
 1276 1469 l 1,3,-1
 473 -27 l 1,0,-1
367 757 m 2,4,-1
 347 757 l 2,5,6
 275 757 275 757 221 785.5 c 128,-1,7
 167 814 167 814 131 861.5 c 128,-1,8
 95 909 95 909 77 970.5 c 128,-1,9
 59 1032 59 1032 59 1097 c 0,10,11
 59 1165 59 1165 78 1226.5 c 128,-1,12
 97 1288 97 1288 134 1334.5 c 128,-1,13
 171 1381 171 1381 226.5 1408.5 c 128,-1,14
 282 1436 282 1436 355 1436 c 0,15,16
 423 1436 423 1436 476 1407.5 c 128,-1,17
 529 1379 529 1379 566 1332 c 128,-1,18
 603 1285 603 1285 622.5 1225 c 128,-1,19
 642 1165 642 1165 642 1103 c 0,20,21
 642 1042 642 1042 625 980 c 128,-1,22
 608 918 608 918 573.5 868.5 c 128,-1,23
 539 819 539 819 487.5 788 c 128,-1,24
 436 757 436 757 367 757 c 2,4,-1
350 951 m 0,25,26
 375 951 375 951 392.5 966 c 128,-1,27
 410 981 410 981 420.5 1003.5 c 128,-1,28
 431 1026 431 1026 436 1051 c 128,-1,29
 441 1076 441 1076 441 1096 c 0,30,31
 441 1118 441 1118 437 1143 c 128,-1,32
 433 1168 433 1168 422.5 1189.5 c 128,-1,33
 412 1211 412 1211 394 1225 c 128,-1,34
 376 1239 376 1239 348 1239 c 0,35,36
 321 1239 321 1239 303.5 1225 c 128,-1,37
 286 1211 286 1211 275.5 1189.5 c 128,-1,38
 265 1168 265 1168 261 1143 c 128,-1,39
 257 1118 257 1118 257 1097 c 256,40,41
 257 1076 257 1076 261.5 1050.5 c 128,-1,42
 266 1025 266 1025 276.5 1003 c 128,-1,43
 287 981 287 981 305 966 c 128,-1,44
 323 951 323 951 350 951 c 0,25,26
1189 -14 m 2,45,-1
 1175 -14 l 2,46,47
 1104 -14 1104 -14 1050 16 c 128,-1,48
 996 46 996 46 959.5 94.5 c 128,-1,49
 923 143 923 143 904.5 205.5 c 128,-1,50
 886 268 886 268 886 332 c 0,51,52
 886 401 886 401 904.5 464 c 128,-1,53
 923 527 923 527 959.5 574.5 c 128,-1,54
 996 622 996 622 1052 650.5 c 128,-1,55
 1108 679 1108 679 1183 679 c 0,56,57
 1251 679 1251 679 1304.5 649.5 c 128,-1,58
 1358 620 1358 620 1394.5 572 c 128,-1,59
 1431 524 1431 524 1450 463.5 c 128,-1,60
 1469 403 1469 403 1469 341 c 0,61,62
 1469 278 1469 278 1452 215 c 128,-1,63
 1435 152 1435 152 1400.5 101 c 128,-1,64
 1366 50 1366 50 1313 18 c 128,-1,65
 1260 -14 1260 -14 1189 -14 c 2,45,-1
1180 180 m 0,66,67
 1205 180 1205 180 1221.5 197 c 128,-1,68
 1238 214 1238 214 1248 238 c 128,-1,69
 1258 262 1258 262 1262.5 288.5 c 128,-1,70
 1267 315 1267 315 1267 334 c 0,71,72
 1267 354 1267 354 1262.5 380 c 128,-1,73
 1258 406 1258 406 1247.5 429 c 128,-1,74
 1237 452 1237 452 1219.5 467.5 c 128,-1,75
 1202 483 1202 483 1176 483 c 0,76,77
 1149 483 1149 483 1131.5 467.5 c 128,-1,78
 1114 452 1114 452 1103.5 428.5 c 128,-1,79
 1093 405 1093 405 1088.5 379 c 128,-1,80
 1084 353 1084 353 1084 332 c 0,81,82
 1084 310 1084 310 1088.5 283.5 c 128,-1,83
 1093 257 1093 257 1104 234 c 128,-1,84
 1115 211 1115 211 1133.5 195.5 c 128,-1,85
 1152 180 1152 180 1180 180 c 0,66,67
EndSplineSet
EndChar

StartChar: ampersand
Encoding: 38 38 9
Width: 1384
GlyphClass: 1
Flags: W
LayerCount: 2
Fore
SplineSet
1150 -83 m 1,0,-1
 967 124 l 1,1,2
 872 47 872 47 764 11.5 c 128,-1,3
 656 -24 656 -24 535 -24 c 0,4,5
 480 -24 480 -24 424 -14.5 c 128,-1,6
 368 -5 368 -5 315.5 14 c 128,-1,7
 263 33 263 33 217.5 62.5 c 128,-1,8
 172 92 172 92 138 132.5 c 128,-1,9
 104 173 104 173 84.5 224.5 c 128,-1,10
 65 276 65 276 65 339 c 0,11,12
 65 418 65 418 91.5 481 c 128,-1,13
 118 544 118 544 162 595 c 128,-1,14
 206 646 206 646 264 687.5 c 128,-1,15
 322 729 322 729 385 765 c 1,16,17
 312 834 312 834 268.5 914 c 128,-1,18
 225 994 225 994 225 1096 c 0,19,20
 225 1176 225 1176 263 1238.5 c 128,-1,21
 301 1301 301 1301 361 1343.5 c 128,-1,22
 421 1386 421 1386 494.5 1408 c 128,-1,23
 568 1430 568 1430 639 1430 c 0,24,25
 709 1430 709 1430 778 1405.5 c 128,-1,26
 847 1381 847 1381 901.5 1336.5 c 128,-1,27
 956 1292 956 1292 990 1230 c 128,-1,28
 1024 1168 1024 1168 1024 1093 c 0,29,30
 1024 1029 1024 1029 1004.5 975 c 128,-1,31
 985 921 985 921 951 875.5 c 128,-1,32
 917 830 917 830 872.5 791 c 128,-1,33
 828 752 828 752 778 719 c 1,34,-1
 948 533 l 1,35,36
 971 601 971 601 971 674 c 0,37,38
 971 686 971 686 970 697 c 1,39,40
 1038 689 1038 689 1105.5 683 c 128,-1,41
 1173 677 1173 677 1241 670 c 1,42,43
 1236 577 1236 577 1211 489.5 c 128,-1,44
 1186 402 1186 402 1137 323 c 1,45,46
 1190 265 1190 265 1241 207.5 c 128,-1,47
 1292 150 1292 150 1345 92 c 1,48,49
 1296 48 1296 48 1247.5 5 c 128,-1,50
 1199 -38 1199 -38 1150 -83 c 1,0,-1
598 887 m 1,51,52
 626 903 626 903 655.5 923 c 128,-1,53
 685 943 685 943 709.5 967.5 c 128,-1,54
 734 992 734 992 750 1022 c 128,-1,55
 766 1052 766 1052 766 1088 c 0,56,57
 766 1149 766 1149 729.5 1183.5 c 128,-1,58
 693 1218 693 1218 633 1218 c 0,59,60
 571 1218 571 1218 532 1183.5 c 128,-1,61
 493 1149 493 1149 493 1086 c 0,62,63
 493 1061 493 1061 503.5 1033.5 c 128,-1,64
 514 1006 514 1006 530 979.5 c 128,-1,65
 546 953 546 953 564 929 c 128,-1,66
 582 905 582 905 598 887 c 1,51,52
538 206 m 0,67,68
 614 206 614 206 681.5 232 c 128,-1,69
 749 258 749 258 806 308 c 1,70,-1
 560 586 l 1,71,72
 526 566 526 566 486 540.5 c 128,-1,73
 446 515 446 515 412 484 c 128,-1,74
 378 453 378 453 355.5 415.5 c 128,-1,75
 333 378 333 378 333 333 c 0,76,77
 333 293 333 293 353.5 268 c 128,-1,78
 374 243 374 243 404.5 229.5 c 128,-1,79
 435 216 435 216 471 211 c 128,-1,80
 507 206 507 206 538 206 c 0,67,68
EndSplineSet
EndChar

StartChar: quotesingle
Encoding: 39 39 10
Width: 611
GlyphClass: 1
Flags: W
LayerCount: 2
Fore
SplineSet
420 858 m 1,0,-1
 193 858 l 1,1,-1
 193 1442 l 1,2,-1
 420 1442 l 1,3,-1
 420 858 l 1,0,-1
EndSplineSet
EndChar

StartChar: parenleft
Encoding: 40 40 11
Width: 577
GlyphClass: 1
Flags: W
LayerCount: 2
Fore
SplineSet
580 -154 m 1,0,-1
 339 -154 l 1,1,2
 294 -109 294 -109 257.5 -44.5 c 128,-1,3
 221 20 221 20 193.5 95 c 128,-1,4
 166 170 166 170 146.5 251.5 c 128,-1,5
 127 333 127 333 114.5 413.5 c 128,-1,6
 102 494 102 494 96.5 569.5 c 128,-1,7
 91 645 91 645 91 707 c 0,8,9
 91 812 91 812 101.5 928.5 c 128,-1,10
 112 1045 112 1045 139 1159 c 128,-1,11
 166 1273 166 1273 213.5 1377.5 c 128,-1,12
 261 1482 261 1482 335 1563 c 1,13,-1
 582 1563 l 1,14,15
 504 1468 504 1468 451 1367 c 128,-1,16
 398 1266 398 1266 365.5 1158.5 c 128,-1,17
 333 1051 333 1051 319.5 937 c 128,-1,18
 306 823 306 823 306 702 c 0,19,20
 306 567 306 567 318.5 457 c 128,-1,21
 331 347 331 347 362.5 247.5 c 128,-1,22
 394 148 394 148 446.5 51 c 128,-1,23
 499 -46 499 -46 580 -154 c 1,0,-1
EndSplineSet
EndChar

StartChar: parenright
Encoding: 41 41 12
Width: 577
GlyphClass: 1
Flags: W
LayerCount: 2
Fore
SplineSet
238 -154 m 1,0,-1
 -3 -154 l 1,1,2
 78 -47 78 -47 131 50 c 128,-1,3
 184 147 184 147 215.5 246.5 c 128,-1,4
 247 346 247 346 259.5 456.5 c 128,-1,5
 272 567 272 567 272 701 c 0,6,7
 272 822 272 822 258.5 936.5 c 128,-1,8
 245 1051 245 1051 213 1158.5 c 128,-1,9
 181 1266 181 1266 128 1367.5 c 128,-1,10
 75 1469 75 1469 -5 1563 c 1,11,-1
 243 1563 l 1,12,13
 320 1480 320 1480 368 1373 c 128,-1,14
 416 1266 416 1266 442 1149.5 c 128,-1,15
 468 1033 468 1033 477 913.5 c 128,-1,16
 486 794 486 794 486 686 c 0,17,18
 486 626 486 626 480 552.5 c 128,-1,19
 474 479 474 479 461 400.5 c 128,-1,20
 448 322 448 322 428 242 c 128,-1,21
 408 162 408 162 380.5 89 c 128,-1,22
 353 16 353 16 317.5 -47 c 128,-1,23
 282 -110 282 -110 238 -154 c 1,0,-1
EndSplineSet
EndChar

StartChar: asterisk
Encoding: 42 42 13
Width: 911
GlyphClass: 1
Flags: W
LayerCount: 2
Fore
SplineSet
562 829 m 1,0,-1
 457 1029 l 1,1,-1
 349 829 l 1,2,-1
 171 942 l 1,3,-1
 324 1090 l 1,4,-1
 104 1117 l 1,5,-1
 173 1302 l 1,6,-1
 375 1226 l 1,7,-1
 347 1413 l 1,8,-1
 567 1413 l 1,9,-1
 539 1226 l 1,10,-1
 741 1302 l 1,11,-1
 807 1117 l 1,12,-1
 587 1090 l 1,13,-1
 740 942 l 1,14,-1
 562 829 l 1,0,-1
EndSplineSet
EndChar

StartChar: plus
Encoding: 43 43 14
Width: 1249
GlyphClass: 1
Flags: W
LayerCount: 2
Fore
SplineSet
728 106 m 1,0,-1
 522 106 l 1,1,-1
 522 520 l 1,2,-1
 65 520 l 1,3,-1
 65 728 l 1,4,-1
 522 728 l 1,5,-1
 522 1143 l 1,6,-1
 728 1143 l 1,7,-1
 728 728 l 1,8,-1
 1185 728 l 1,9,-1
 1185 520 l 1,10,-1
 728 520 l 1,11,-1
 728 106 l 1,0,-1
EndSplineSet
EndChar

StartChar: comma
Encoding: 44 44 15
Width: 600
GlyphClass: 1
Flags: W
LayerCount: 2
Fore
SplineSet
275 -297 m 1,0,-1
 91 -297 l 1,1,-1
 225 264 l 1,2,-1
 533 264 l 1,3,-1
 275 -297 l 1,0,-1
EndSplineSet
EndChar

StartChar: hyphen
Encoding: 45 45 16
Width: 876
GlyphClass: 1
Flags: W
LayerCount: 2
Fore
SplineSet
741 486 m 1,0,-1
 135 486 l 1,1,-1
 135 692 l 1,2,-1
 741 692 l 1,3,-1
 741 486 l 1,0,-1
EndSplineSet
EndChar

StartChar: period
Encoding: 46 46 17
Width: 600
GlyphClass: 1
Flags: W
LayerCount: 2
Fore
SplineSet
430 0 m 1,0,-1
 170 0 l 1,1,-1
 170 286 l 1,2,-1
 430 286 l 1,3,-1
 430 0 l 1,0,-1
EndSplineSet
EndChar

StartChar: slash
Encoding: 47 47 18
Width: 936
GlyphClass: 1
Flags: W
LayerCount: 2
Fore
SplineSet
198 -430 m 1,0,-1
 -52 -430 l 1,1,-1
 736 1516 l 1,2,-1
 988 1516 l 1,3,-1
 198 -430 l 1,0,-1
EndSplineSet
EndChar

StartChar: zero
Encoding: 48 48 19
Width: 1200
GlyphClass: 1
Flags: W
LayerCount: 2
Fore
SplineSet
606 -20 m 0,0,1
 509 -20 509 -20 431.5 11 c 128,-1,2
 354 42 354 42 294.5 95 c 128,-1,3
 235 148 235 148 192.5 219.5 c 128,-1,4
 150 291 150 291 122.5 372 c 128,-1,5
 95 453 95 453 82.5 539 c 128,-1,6
 70 625 70 625 70 707 c 0,7,8
 70 788 70 788 82 873.5 c 128,-1,9
 94 959 94 959 120 1040 c 128,-1,10
 146 1121 146 1121 187 1193 c 128,-1,11
 228 1265 228 1265 286 1319 c 128,-1,12
 344 1373 344 1373 420.5 1404.5 c 128,-1,13
 497 1436 497 1436 594 1436 c 0,14,15
 688 1436 688 1436 764.5 1404 c 128,-1,16
 841 1372 841 1372 900.5 1317.5 c 128,-1,17
 960 1263 960 1263 1003 1191 c 128,-1,18
 1046 1119 1046 1119 1074 1037.5 c 128,-1,19
 1102 956 1102 956 1115.5 871 c 128,-1,20
 1129 786 1129 786 1129 706 c 0,21,22
 1129 627 1129 627 1116.5 542.5 c 128,-1,23
 1104 458 1104 458 1077 377.5 c 128,-1,24
 1050 297 1050 297 1008 225 c 128,-1,25
 966 153 966 153 908 98.5 c 128,-1,26
 850 44 850 44 775 12 c 128,-1,27
 700 -20 700 -20 606 -20 c 0,0,1
601 249 m 0,28,29
 653 249 653 249 692 274 c 128,-1,30
 731 299 731 299 758.5 339 c 128,-1,31
 786 379 786 379 804 430.5 c 128,-1,32
 822 482 822 482 832.5 535.5 c 128,-1,33
 843 589 843 589 847 639 c 128,-1,34
 851 689 851 689 851 728 c 0,35,36
 851 768 851 768 845.5 815.5 c 128,-1,37
 840 863 840 863 827.5 911 c 128,-1,38
 815 959 815 959 795 1004.5 c 128,-1,39
 775 1050 775 1050 746 1085 c 128,-1,40
 717 1120 717 1120 678 1141 c 128,-1,41
 639 1162 639 1162 589 1162 c 0,42,43
 537 1162 537 1162 498 1138 c 128,-1,44
 459 1114 459 1114 431 1075 c 128,-1,45
 403 1036 403 1036 384.5 986 c 128,-1,46
 366 936 366 936 355.5 883.5 c 128,-1,47
 345 831 345 831 340.5 781.5 c 128,-1,48
 336 732 336 732 336 693 c 0,49,50
 336 653 336 653 341.5 604.5 c 128,-1,51
 347 556 347 556 359.5 506.5 c 128,-1,52
 372 457 372 457 392 410.5 c 128,-1,53
 412 364 412 364 441.5 328 c 128,-1,54
 471 292 471 292 510.5 270.5 c 128,-1,55
 550 249 550 249 601 249 c 0,28,29
EndSplineSet
Substitution2: "'subs' Subscript lookup 22 subtable" uni2080
Substitution2: "'sinf' Scientific Inferiors lookup 21 subtable" uni2080
Substitution2: "'sups' Superscript lookup 19 subtable" uni2070
Substitution2: "'aalt' Access All Alternates lookup 0 subtable" uni2070
EndChar

StartChar: one
Encoding: 49 49 20
Width: 1200
GlyphClass: 1
Flags: W
LayerCount: 2
Fore
SplineSet
827 0 m 1,0,-1
 548 0 l 1,1,-1
 548 1012 l 1,2,-1
 175 1012 l 1,3,-1
 175 1227 l 1,4,-1
 413 1227 l 2,5,6
 484 1227 484 1227 520.5 1262.5 c 128,-1,7
 557 1298 557 1298 557 1370 c 2,8,-1
 557 1413 l 1,9,-1
 827 1413 l 1,10,-1
 827 0 l 1,0,-1
EndSplineSet
Substitution2: "'subs' Subscript lookup 22 subtable" uni2081
Substitution2: "'sinf' Scientific Inferiors lookup 21 subtable" uni2081
Substitution2: "'sups' Superscript lookup 19 subtable" onesuperior
Substitution2: "'aalt' Access All Alternates lookup 0 subtable" onesuperior
EndChar

StartChar: two
Encoding: 50 50 21
Width: 1200
GlyphClass: 1
Flags: W
LayerCount: 2
Fore
SplineSet
1137 0 m 1,0,-1
 36 0 l 1,1,-1
 36 218 l 1,2,3
 103 254 103 254 175 301 c 128,-1,4
 247 348 247 348 317 401 c 128,-1,5
 387 454 387 454 452.5 510 c 128,-1,6
 518 566 518 566 573 619 c 0,7,8
 611 655 611 655 648.5 697 c 128,-1,9
 686 739 686 739 717 785.5 c 128,-1,10
 748 832 748 832 767 883.5 c 128,-1,11
 786 935 786 935 786 991 c 0,12,13
 786 1079 786 1079 738 1128 c 128,-1,14
 690 1177 690 1177 602 1177 c 0,15,16
 537 1177 537 1177 493 1152 c 128,-1,17
 449 1127 449 1127 422 1086 c 128,-1,18
 395 1045 395 1045 382.5 992 c 128,-1,19
 370 939 370 939 368 883 c 1,20,-1
 91 899 l 1,21,-1
 91 910 l 2,22,23
 91 973 91 973 108 1037.5 c 128,-1,24
 125 1102 125 1102 156.5 1160.5 c 128,-1,25
 188 1219 188 1219 232 1268.5 c 128,-1,26
 276 1318 276 1318 329 1353 c 0,27,28
 363 1375 363 1375 396 1390 c 128,-1,29
 429 1405 429 1405 463 1414.5 c 128,-1,30
 497 1424 497 1424 533 1428 c 128,-1,31
 569 1432 569 1432 609 1432 c 0,32,33
 699 1432 699 1432 782 1401 c 128,-1,34
 865 1370 865 1370 928.5 1314.5 c 128,-1,35
 992 1259 992 1259 1030 1181 c 128,-1,36
 1068 1103 1068 1103 1068 1009 c 0,37,38
 1068 928 1068 928 1039 848 c 128,-1,39
 1010 768 1010 768 964.5 694 c 128,-1,40
 919 620 919 620 861.5 554.5 c 128,-1,41
 804 489 804 489 747 437 c 0,42,43
 726 418 726 418 696.5 392.5 c 128,-1,44
 667 367 667 367 635.5 341.5 c 128,-1,45
 604 316 604 316 573 293.5 c 128,-1,46
 542 271 542 271 517 258 c 1,47,-1
 1137 258 l 1,48,-1
 1137 0 l 1,0,-1
EndSplineSet
Substitution2: "'subs' Subscript lookup 22 subtable" uni2082
Substitution2: "'sinf' Scientific Inferiors lookup 21 subtable" uni2082
Substitution2: "'sups' Superscript lookup 19 subtable" twosuperior
Substitution2: "'aalt' Access All Alternates lookup 0 subtable" twosuperior
EndChar

StartChar: three
Encoding: 51 51 22
Width: 1200
GlyphClass: 1
Flags: W
LayerCount: 2
Fore
SplineSet
576 -20 m 0,0,1
 466 -20 466 -20 369 11.5 c 128,-1,2
 272 43 272 43 199.5 104.5 c 128,-1,3
 127 166 127 166 85 255.5 c 128,-1,4
 43 345 43 345 43 461 c 1,5,-1
 315 476 l 1,6,7
 315 418 315 418 337.5 374 c 128,-1,8
 360 330 360 330 398 301 c 128,-1,9
 436 272 436 272 485 257.5 c 128,-1,10
 534 243 534 243 588 243 c 0,11,12
 635 243 635 243 681.5 254 c 128,-1,13
 728 265 728 265 765.5 289.5 c 128,-1,14
 803 314 803 314 826.5 352.5 c 128,-1,15
 850 391 850 391 850 445 c 0,16,17
 850 496 850 496 832 531 c 128,-1,18
 814 566 814 566 783.5 588.5 c 128,-1,19
 753 611 753 611 712 621 c 128,-1,20
 671 631 671 631 626 631 c 2,21,-1
 443 631 l 1,22,-1
 443 868 l 1,23,-1
 626 868 l 2,24,25
 695 868 695 868 733.5 902.5 c 128,-1,26
 772 937 772 937 772 1008 c 0,27,28
 772 1051 772 1051 757.5 1081.5 c 128,-1,29
 743 1112 743 1112 717.5 1131 c 128,-1,30
 692 1150 692 1150 657.5 1159 c 128,-1,31
 623 1168 623 1168 584 1168 c 0,32,33
 540 1168 540 1168 502.5 1156 c 128,-1,34
 465 1144 465 1144 438 1120.5 c 128,-1,35
 411 1097 411 1097 395.5 1062 c 128,-1,36
 380 1027 380 1027 380 981 c 1,37,-1
 111 999 l 1,38,-1
 111 1007 l 2,39,40
 111 1109 111 1109 149.5 1188 c 128,-1,41
 188 1267 188 1267 253.5 1322 c 128,-1,42
 319 1377 319 1377 405.5 1405.5 c 128,-1,43
 492 1434 492 1434 587 1434 c 0,44,45
 671 1434 671 1434 753.5 1407.5 c 128,-1,46
 836 1381 836 1381 901 1330.5 c 128,-1,47
 966 1280 966 1280 1006 1207.5 c 128,-1,48
 1046 1135 1046 1135 1046 1043 c 0,49,50
 1046 967 1046 967 1018 896 c 128,-1,51
 990 825 990 825 937 770 c 1,52,53
 1036 708 1036 708 1079.5 619 c 128,-1,54
 1123 530 1123 530 1123 415 c 0,55,56
 1123 337 1123 337 1097.5 272 c 128,-1,57
 1072 207 1072 207 1027.5 155.5 c 128,-1,58
 983 104 983 104 922 66.5 c 128,-1,59
 861 29 861 29 790 8 c 0,60,61
 736 -8 736 -8 683.5 -14 c 128,-1,62
 631 -20 631 -20 576 -20 c 0,0,1
EndSplineSet
Substitution2: "'subs' Subscript lookup 22 subtable" uni2083
Substitution2: "'sinf' Scientific Inferiors lookup 21 subtable" uni2083
Substitution2: "'sups' Superscript lookup 19 subtable" threesuperior
Substitution2: "'aalt' Access All Alternates lookup 0 subtable" threesuperior
EndChar

StartChar: four
Encoding: 52 52 23
Width: 1200
GlyphClass: 1
Flags: W
LayerCount: 2
Fore
SplineSet
652 578 m 1,0,-1
 652 958 l 1,1,-1
 393 578 l 1,2,-1
 652 578 l 1,0,-1
930 0 m 1,3,-1
 652 0 l 1,4,-1
 652 317 l 1,5,-1
 30 317 l 1,6,-1
 30 479 l 1,7,-1
 694 1413 l 1,8,-1
 930 1413 l 1,9,-1
 930 578 l 1,10,-1
 1145 578 l 1,11,-1
 1145 317 l 1,12,-1
 930 317 l 1,13,-1
 930 0 l 1,3,-1
EndSplineSet
Substitution2: "'subs' Subscript lookup 22 subtable" uni2084
Substitution2: "'sinf' Scientific Inferiors lookup 21 subtable" uni2084
Substitution2: "'sups' Superscript lookup 19 subtable" uni2074
Substitution2: "'aalt' Access All Alternates lookup 0 subtable" uni2074
EndChar

StartChar: five
Encoding: 53 53 24
Width: 1200
GlyphClass: 1
Flags: W
LayerCount: 2
Fore
SplineSet
582 -20 m 0,0,1
 490 -20 490 -20 404.5 16 c 128,-1,2
 319 52 319 52 249.5 112.5 c 128,-1,3
 180 173 180 173 131.5 253.5 c 128,-1,4
 83 334 83 334 65 422 c 1,5,6
 131 440 131 440 197.5 457 c 128,-1,7
 264 474 264 474 330 492 c 1,8,9
 341 438 341 438 362 391.5 c 128,-1,10
 383 345 383 345 416 311.5 c 128,-1,11
 449 278 449 278 494 258.5 c 128,-1,12
 539 239 539 239 598 239 c 0,13,14
 646 239 646 239 689 260.5 c 128,-1,15
 732 282 732 282 764.5 317.5 c 128,-1,16
 797 353 797 353 816 398 c 128,-1,17
 835 443 835 443 835 489 c 0,18,19
 835 543 835 543 816 587 c 128,-1,20
 797 631 797 631 764 662 c 128,-1,21
 731 693 731 693 685.5 710 c 128,-1,22
 640 727 640 727 587 727 c 0,23,24
 556 727 556 727 523 718 c 128,-1,25
 490 709 490 709 459.5 692.5 c 128,-1,26
 429 676 429 676 403.5 653.5 c 128,-1,27
 378 631 378 631 362 604 c 1,28,-1
 104 660 l 1,29,30
 140 849 140 849 175 1036.5 c 128,-1,31
 210 1224 210 1224 245 1413 c 1,32,-1
 1060 1413 l 1,33,-1
 1060 1150 l 1,34,-1
 471 1150 l 1,35,-1
 428 945 l 1,36,37
 482 964 482 964 532.5 975 c 128,-1,38
 583 986 583 986 641 986 c 0,39,40
 706 986 706 986 767 967 c 128,-1,41
 828 948 828 948 882 914 c 128,-1,42
 936 880 936 880 980 833 c 128,-1,43
 1024 786 1024 786 1056 730.5 c 128,-1,44
 1088 675 1088 675 1105.5 613 c 128,-1,45
 1123 551 1123 551 1123 487 c 0,46,47
 1123 379 1123 379 1077.5 286.5 c 128,-1,48
 1032 194 1032 194 956.5 126 c 128,-1,49
 881 58 881 58 783.5 19 c 128,-1,50
 686 -20 686 -20 582 -20 c 0,0,1
EndSplineSet
Substitution2: "'subs' Subscript lookup 22 subtable" uni2085
Substitution2: "'sinf' Scientific Inferiors lookup 21 subtable" uni2085
Substitution2: "'sups' Superscript lookup 19 subtable" uni2075
Substitution2: "'aalt' Access All Alternates lookup 0 subtable" uni2075
EndChar

StartChar: six
Encoding: 54 54 25
Width: 1200
GlyphClass: 1
Flags: W
LayerCount: 2
Fore
SplineSet
592 -20 m 0,0,1
 490 -20 490 -20 395.5 17.5 c 128,-1,2
 301 55 301 55 229 121.5 c 128,-1,3
 157 188 157 188 114 278 c 128,-1,4
 71 368 71 368 71 473 c 0,5,6
 71 547 71 547 91 604.5 c 128,-1,7
 111 662 111 662 149 724 c 2,8,-1
 577 1413 l 1,9,-1
 905 1413 l 1,10,-1
 602 967 l 1,11,-1
 603 964 l 1,12,-1
 602 963 l 1,13,14
 709 963 709 963 805 928 c 128,-1,15
 901 893 901 893 973.5 828.5 c 128,-1,16
 1046 764 1046 764 1088.5 673 c 128,-1,17
 1131 582 1131 582 1131 471 c 0,18,19
 1131 405 1131 405 1111.5 342.5 c 128,-1,20
 1092 280 1092 280 1057 225.5 c 128,-1,21
 1022 171 1022 171 974 125.5 c 128,-1,22
 926 80 926 80 869 48 c 0,23,24
 801 10 801 10 735.5 -5 c 128,-1,25
 670 -20 670 -20 592 -20 c 0,0,1
610 247 m 0,26,27
 660 247 660 247 704 266 c 128,-1,28
 748 285 748 285 781.5 317 c 128,-1,29
 815 349 815 349 834.5 393 c 128,-1,30
 854 437 854 437 854 486 c 0,31,32
 854 537 854 537 831.5 579 c 128,-1,33
 809 621 809 621 772 650.5 c 128,-1,34
 735 680 735 680 689 696.5 c 128,-1,35
 643 713 643 713 595 713 c 0,36,37
 546 713 546 713 501 694.5 c 128,-1,38
 456 676 456 676 422.5 643.5 c 128,-1,39
 389 611 389 611 369 567.5 c 128,-1,40
 349 524 349 524 349 474 c 0,41,42
 349 438 349 438 362 405 c 128,-1,43
 375 372 375 372 397 345 c 128,-1,44
 419 318 419 318 448 297.5 c 128,-1,45
 477 277 477 277 509 264 c 0,46,47
 536 253 536 253 558.5 250 c 128,-1,48
 581 247 581 247 610 247 c 0,26,27
EndSplineSet
Substitution2: "'subs' Subscript lookup 22 subtable" uni2086
Substitution2: "'sinf' Scientific Inferiors lookup 21 subtable" uni2086
Substitution2: "'sups' Superscript lookup 19 subtable" uni2076
Substitution2: "'aalt' Access All Alternates lookup 0 subtable" uni2076
EndChar

StartChar: seven
Encoding: 55 55 26
Width: 1200
GlyphClass: 1
Flags: W
LayerCount: 2
Fore
SplineSet
500 0 m 1,0,-1
 187 0 l 1,1,-1
 787 1153 l 1,2,-1
 87 1153 l 1,3,-1
 87 1413 l 1,4,-1
 1133 1413 l 1,5,-1
 1133 1268 l 1,6,-1
 500 0 l 1,0,-1
EndSplineSet
Substitution2: "'subs' Subscript lookup 22 subtable" uni2087
Substitution2: "'sinf' Scientific Inferiors lookup 21 subtable" uni2087
Substitution2: "'sups' Superscript lookup 19 subtable" uni2077
Substitution2: "'aalt' Access All Alternates lookup 0 subtable" uni2077
EndChar

StartChar: eight
Encoding: 56 56 27
Width: 1200
GlyphClass: 1
Flags: W
LayerCount: 2
Fore
SplineSet
590 -20 m 0,0,1
 526 -20 526 -20 461.5 -8 c 128,-1,2
 397 4 397 4 338.5 28 c 128,-1,3
 280 52 280 52 229.5 87.5 c 128,-1,4
 179 123 179 123 142 171 c 128,-1,5
 105 219 105 219 84 279 c 128,-1,6
 63 339 63 339 63 411 c 0,7,8
 63 523 63 523 112.5 612.5 c 128,-1,9
 162 702 162 702 255 764 c 1,10,11
 190 827 190 827 162 896.5 c 128,-1,12
 134 966 134 966 134 1055 c 0,13,14
 134 1149 134 1149 177 1220 c 128,-1,15
 220 1291 220 1291 288 1338.5 c 128,-1,16
 356 1386 356 1386 440.5 1410 c 128,-1,17
 525 1434 525 1434 608 1434 c 0,18,19
 692 1434 692 1434 774 1407.5 c 128,-1,20
 856 1381 856 1381 921 1331 c 128,-1,21
 986 1281 986 1281 1026 1209 c 128,-1,22
 1066 1137 1066 1137 1066 1045 c 0,23,24
 1066 964 1066 964 1035 892.5 c 128,-1,25
 1004 821 1004 821 945 764 c 1,26,27
 1045 698 1045 698 1091 610.5 c 128,-1,28
 1137 523 1137 523 1137 404 c 0,29,30
 1137 317 1137 317 1104 247 c 128,-1,31
 1071 177 1071 177 1015.5 125 c 128,-1,32
 960 73 960 73 887.5 39 c 128,-1,33
 815 5 815 5 735 -9 c 0,34,35
 699 -16 699 -16 663 -18 c 128,-1,36
 627 -20 627 -20 590 -20 c 0,0,1
603 873 m 0,37,38
 642 873 642 873 676.5 882.5 c 128,-1,39
 711 892 711 892 737 912.5 c 128,-1,40
 763 933 763 933 778.5 963.5 c 128,-1,41
 794 994 794 994 794 1036 c 256,42,43
 794 1078 794 1078 778.5 1109 c 128,-1,44
 763 1140 763 1140 737 1159.5 c 128,-1,45
 711 1179 711 1179 676.5 1188.5 c 128,-1,46
 642 1198 642 1198 604 1198 c 0,47,48
 565 1198 565 1198 530 1189 c 128,-1,49
 495 1180 495 1180 469.5 1160.5 c 128,-1,50
 444 1141 444 1141 429 1110.5 c 128,-1,51
 414 1080 414 1080 414 1037 c 0,52,53
 414 996 414 996 429.5 965.5 c 128,-1,54
 445 935 445 935 471 914.5 c 128,-1,55
 497 894 497 894 531.5 883.5 c 128,-1,56
 566 873 566 873 603 873 c 0,37,38
597 224 m 256,57,58
 645 224 645 224 691 234.5 c 128,-1,59
 737 245 737 245 773.5 268.5 c 128,-1,60
 810 292 810 292 832.5 330 c 128,-1,61
 855 368 855 368 855 423 c 256,62,63
 855 478 855 478 833 517 c 128,-1,64
 811 556 811 556 774.5 580.5 c 128,-1,65
 738 605 738 605 691.5 616 c 128,-1,66
 645 627 645 627 597 627 c 256,67,68
 549 627 549 627 503 616 c 128,-1,69
 457 605 457 605 421 581 c 128,-1,70
 385 557 385 557 363 518.5 c 128,-1,71
 341 480 341 480 341 426 c 0,72,73
 341 371 341 371 363 332.5 c 128,-1,74
 385 294 385 294 421 270 c 128,-1,75
 457 246 457 246 503 235 c 128,-1,76
 549 224 549 224 597 224 c 256,57,58
EndSplineSet
Substitution2: "'subs' Subscript lookup 22 subtable" uni2088
Substitution2: "'sinf' Scientific Inferiors lookup 21 subtable" uni2088
Substitution2: "'sups' Superscript lookup 19 subtable" uni2078
Substitution2: "'aalt' Access All Alternates lookup 0 subtable" uni2078
EndChar

StartChar: nine
Encoding: 57 57 28
Width: 1200
GlyphClass: 1
Flags: W
LayerCount: 2
Fore
SplineSet
623 0 m 1,0,-1
 294 0 l 1,1,-1
 598 446 l 1,2,-1
 596 450 l 1,3,4
 521 450 521 450 448.5 469 c 128,-1,5
 376 488 376 488 312 524 c 128,-1,6
 248 560 248 560 196.5 613.5 c 128,-1,7
 145 667 145 667 112 736 c 0,8,9
 86 790 86 790 77 840.5 c 128,-1,10
 68 891 68 891 68 950 c 0,11,12
 68 1015 68 1015 88.5 1076.5 c 128,-1,13
 109 1138 109 1138 144 1192 c 128,-1,14
 179 1246 179 1246 227 1290.5 c 128,-1,15
 275 1335 275 1335 330 1366 c 0,16,17
 396 1403 396 1403 463 1418.5 c 128,-1,18
 530 1434 530 1434 605 1434 c 256,19,20
 680 1434 680 1434 753 1412.5 c 128,-1,21
 826 1391 826 1391 890.5 1351.5 c 128,-1,22
 955 1312 955 1312 1006.5 1256.5 c 128,-1,23
 1058 1201 1058 1201 1090 1133 c 0,24,25
 1113 1085 1113 1085 1120.5 1038.5 c 128,-1,26
 1128 992 1128 992 1128 940 c 0,27,28
 1128 885 1128 885 1116 831.5 c 128,-1,29
 1104 778 1104 778 1076 730 c 0,30,31
 1070 719 1070 719 1063 709.5 c 128,-1,32
 1056 700 1056 700 1049 689 c 2,33,-1
 623 0 l 1,0,-1
604 699 m 0,34,35
 654 699 654 699 698.5 718 c 128,-1,36
 743 737 743 737 776.5 769.5 c 128,-1,37
 810 802 810 802 830 845.5 c 128,-1,38
 850 889 850 889 850 939 c 0,39,40
 850 991 850 991 827.5 1033 c 128,-1,41
 805 1075 805 1075 768 1104.5 c 128,-1,42
 731 1134 731 1134 684 1150 c 128,-1,43
 637 1166 637 1166 589 1166 c 0,44,45
 540 1166 540 1166 496 1147 c 128,-1,46
 452 1128 452 1128 418.5 1095.5 c 128,-1,47
 385 1063 385 1063 365.5 1019.5 c 128,-1,48
 346 976 346 976 346 926 c 0,49,50
 346 891 346 891 359 858.5 c 128,-1,51
 372 826 372 826 393.5 798.5 c 128,-1,52
 415 771 415 771 444 749.5 c 128,-1,53
 473 728 473 728 504 716 c 0,54,55
 530 705 530 705 553 702 c 128,-1,56
 576 699 576 699 604 699 c 0,34,35
EndSplineSet
Substitution2: "'subs' Subscript lookup 22 subtable" uni2089
Substitution2: "'sinf' Scientific Inferiors lookup 21 subtable" uni2089
Substitution2: "'sups' Superscript lookup 19 subtable" uni2079
Substitution2: "'aalt' Access All Alternates lookup 0 subtable" uni2079
EndChar

StartChar: colon
Encoding: 58 58 29
Width: 600
GlyphClass: 1
Flags: W
LayerCount: 2
Fore
SplineSet
444 668 m 1,0,-1
 156 668 l 1,1,-1
 156 954 l 1,2,-1
 444 954 l 1,3,-1
 444 668 l 1,0,-1
444 0 m 1,4,-1
 156 0 l 1,5,-1
 156 286 l 1,6,-1
 444 286 l 1,7,-1
 444 0 l 1,4,-1
EndSplineSet
EndChar

StartChar: semicolon
Encoding: 59 59 30
Width: 600
GlyphClass: 1
Flags: W
LayerCount: 2
Fore
SplineSet
446 668 m 1,0,-1
 158 668 l 1,1,-1
 158 954 l 1,2,-1
 446 954 l 1,3,-1
 446 668 l 1,0,-1
253 -297 m 1,4,-1
 69 -297 l 1,5,-1
 203 264 l 1,6,-1
 511 264 l 1,7,-1
 253 -297 l 1,4,-1
EndSplineSet
EndChar

StartChar: less
Encoding: 60 60 31
Width: 1245
GlyphClass: 1
Flags: W
LayerCount: 2
Fore
SplineSet
1039 146 m 1,0,-1
 27 674 l 1,1,-1
 1039 1201 l 1,2,-1
 1153 1005 l 1,3,-1
 467 674 l 1,4,-1
 1153 343 l 1,5,-1
 1039 146 l 1,0,-1
EndSplineSet
EndChar

StartChar: equal
Encoding: 61 61 32
Width: 1269
GlyphClass: 1
Flags: W
LayerCount: 2
Fore
SplineSet
1061 745 m 1,0,-1
 209 745 l 1,1,-1
 209 973 l 1,2,-1
 1061 973 l 1,3,-1
 1061 745 l 1,0,-1
1061 370 m 1,4,-1
 209 370 l 1,5,-1
 209 599 l 1,6,-1
 1061 599 l 1,7,-1
 1061 370 l 1,4,-1
EndSplineSet
EndChar

StartChar: greater
Encoding: 62 62 33
Width: 1245
GlyphClass: 1
Flags: W
LayerCount: 2
Fore
SplineSet
206 146 m 1,0,-1
 92 343 l 1,1,-1
 778 674 l 1,2,-1
 92 1005 l 1,3,-1
 206 1201 l 1,4,-1
 1218 674 l 1,5,-1
 206 146 l 1,0,-1
EndSplineSet
EndChar

StartChar: question
Encoding: 63 63 34
Width: 990
GlyphClass: 1
Flags: W
LayerCount: 2
Fore
SplineSet
601 439 m 1,0,-1
 372 439 l 1,1,-1
 372 558 l 2,2,3
 372 624 372 624 386.5 670.5 c 128,-1,4
 401 717 401 717 425 749 c 128,-1,5
 449 781 449 781 480 803 c 128,-1,6
 511 825 511 825 542.5 842 c 128,-1,7
 574 859 574 859 605 875 c 128,-1,8
 636 891 636 891 660 912 c 128,-1,9
 684 933 684 933 698.5 962 c 128,-1,10
 713 991 713 991 713 1034 c 0,11,12
 713 1084 713 1084 693.5 1117.5 c 128,-1,13
 674 1151 674 1151 642 1171.5 c 128,-1,14
 610 1192 610 1192 569 1200.5 c 128,-1,15
 528 1209 528 1209 485 1209 c 0,16,17
 424 1209 424 1209 382 1193.5 c 128,-1,18
 340 1178 340 1178 314.5 1147.5 c 128,-1,19
 289 1117 289 1117 278 1072 c 128,-1,20
 267 1027 267 1027 267 969 c 1,21,-1
 30 969 l 1,22,23
 30 1078 30 1078 60 1164.5 c 128,-1,24
 90 1251 90 1251 148.5 1311 c 128,-1,25
 207 1371 207 1371 292 1402.5 c 128,-1,26
 377 1434 377 1434 487 1434 c 0,27,28
 562 1434 562 1434 635 1414 c 128,-1,29
 708 1394 708 1394 769 1354 c 128,-1,30
 830 1314 830 1314 874 1255 c 128,-1,31
 918 1196 918 1196 934 1118 c 0,32,33
 939 1093 939 1093 941 1067 c 128,-1,34
 943 1041 943 1041 943 1015 c 0,35,36
 943 950 943 950 930 899 c 128,-1,37
 917 848 917 848 890 806.5 c 128,-1,38
 863 765 863 765 821.5 731.5 c 128,-1,39
 780 698 780 698 724 669 c 0,40,41
 701 657 701 657 676.5 644 c 128,-1,42
 652 631 652 631 632 614 c 0,43,44
 618 603 618 603 609.5 588.5 c 128,-1,45
 601 574 601 574 601 556 c 2,46,-1
 601 439 l 1,0,-1
634 0 m 1,47,-1
 345 0 l 1,48,-1
 345 286 l 1,49,-1
 634 286 l 1,50,-1
 634 0 l 1,47,-1
EndSplineSet
EndChar

StartChar: at
Encoding: 64 64 35
Width: 1999
GlyphClass: 1
Flags: W
LayerCount: 2
Fore
SplineSet
991 -348 m 0,0,1
 865 -348 865 -348 748.5 -319.5 c 128,-1,2
 632 -291 632 -291 531.5 -237.5 c 128,-1,3
 431 -184 431 -184 348.5 -107.5 c 128,-1,4
 266 -31 266 -31 207 65.5 c 128,-1,5
 148 162 148 162 116 277 c 128,-1,6
 84 392 84 392 84 521 c 0,7,8
 84 653 84 653 116 772 c 128,-1,9
 148 891 148 891 206.5 992.5 c 128,-1,10
 265 1094 265 1094 348 1175 c 128,-1,11
 431 1256 431 1256 533.5 1313.5 c 128,-1,12
 636 1371 636 1371 756 1401.5 c 128,-1,13
 876 1432 876 1432 1007 1432 c 0,14,15
 1137 1432 1137 1432 1255.5 1401.5 c 128,-1,16
 1374 1371 1374 1371 1475 1314 c 128,-1,17
 1576 1257 1576 1257 1658 1176.5 c 128,-1,18
 1740 1096 1740 1096 1797.5 995.5 c 128,-1,19
 1855 895 1855 895 1886.5 777.5 c 128,-1,20
 1918 660 1918 660 1918 529 c 0,21,22
 1918 459 1918 459 1905.5 386.5 c 128,-1,23
 1893 314 1893 314 1867.5 246 c 128,-1,24
 1842 178 1842 178 1803.5 118 c 128,-1,25
 1765 58 1765 58 1713 13.5 c 128,-1,26
 1661 -31 1661 -31 1595 -57 c 128,-1,27
 1529 -83 1529 -83 1448 -83 c 0,28,29
 1405 -83 1405 -83 1363.5 -73.5 c 128,-1,30
 1322 -64 1322 -64 1286 -44.5 c 128,-1,31
 1250 -25 1250 -25 1222 6 c 128,-1,32
 1194 37 1194 37 1178 80 c 0,33,34
 1173 94 1173 94 1169.5 110 c 128,-1,35
 1166 126 1166 126 1163 141 c 1,36,37
 1100 89 1100 89 1026 62.5 c 128,-1,38
 952 36 952 36 871 36 c 0,39,40
 788 36 788 36 725 70 c 128,-1,41
 662 104 662 104 620 160 c 128,-1,42
 578 216 578 216 556.5 288 c 128,-1,43
 535 360 535 360 535 435 c 0,44,45
 535 504 535 504 549.5 577.5 c 128,-1,46
 564 651 564 651 592.5 721.5 c 128,-1,47
 621 792 621 792 663 855 c 128,-1,48
 705 918 705 918 759.5 965.5 c 128,-1,49
 814 1013 814 1013 881 1040.5 c 128,-1,50
 948 1068 948 1068 1027 1068 c 0,51,52
 1105 1068 1105 1068 1170.5 1040.5 c 128,-1,53
 1236 1013 1236 1013 1284 950 c 1,54,-1
 1300 1019 l 1,55,-1
 1511 1019 l 1,56,57
 1483 873 1483 873 1446.5 730 c 128,-1,58
 1410 587 1410 587 1382 441 c 0,59,60
 1372 390 1372 390 1365.5 337.5 c 128,-1,61
 1359 285 1359 285 1359 233 c 0,62,63
 1359 208 1359 208 1361.5 188.5 c 128,-1,64
 1364 169 1364 169 1373 155.5 c 128,-1,65
 1382 142 1382 142 1399 135 c 128,-1,66
 1416 128 1416 128 1444 128 c 0,67,68
 1496 128 1496 128 1536.5 147.5 c 128,-1,69
 1577 167 1577 167 1607 199 c 128,-1,70
 1637 231 1637 231 1657.5 273.5 c 128,-1,71
 1678 316 1678 316 1690.5 362.5 c 128,-1,72
 1703 409 1703 409 1708.5 456 c 128,-1,73
 1714 503 1714 503 1714 545 c 0,74,75
 1714 696 1714 696 1659.5 822 c 128,-1,76
 1605 948 1605 948 1509.5 1038.5 c 128,-1,77
 1414 1129 1414 1129 1285.5 1179.5 c 128,-1,78
 1157 1230 1157 1230 1009 1230 c 0,79,80
 904 1230 904 1230 810 1206 c 128,-1,81
 716 1182 716 1182 636 1137.5 c 128,-1,82
 556 1093 556 1093 492 1029.5 c 128,-1,83
 428 966 428 966 383 886.5 c 128,-1,84
 338 807 338 807 314 713 c 128,-1,85
 290 619 290 619 290 514 c 0,86,87
 290 369 290 369 345 249 c 128,-1,88
 400 129 400 129 494.5 43.5 c 128,-1,89
 589 -42 589 -42 714 -89.5 c 128,-1,90
 839 -137 839 -137 980 -137 c 0,91,92
 1109 -137 1109 -137 1233 -98 c 1,93,-1
 1305 -295 l 1,94,95
 1226 -322 1226 -322 1150.5 -335 c 128,-1,96
 1075 -348 1075 -348 991 -348 c 0,0,1
893 245 m 0,97,98
 973 245 973 245 1033 286 c 128,-1,99
 1093 327 1093 327 1133.5 390 c 128,-1,100
 1174 453 1174 453 1194.5 528.5 c 128,-1,101
 1215 604 1215 604 1215 673 c 0,102,103
 1215 714 1215 714 1207 748 c 128,-1,104
 1199 782 1199 782 1180.5 807 c 128,-1,105
 1162 832 1162 832 1132 845.5 c 128,-1,106
 1102 859 1102 859 1057 859 c 0,107,108
 1004 859 1004 859 959 840.5 c 128,-1,109
 914 822 914 822 878 790 c 128,-1,110
 842 758 842 758 815 716 c 128,-1,111
 788 674 788 674 769.5 627 c 128,-1,112
 751 580 751 580 742 530.5 c 128,-1,113
 733 481 733 481 733 435 c 0,114,115
 733 394 733 394 741 359.5 c 128,-1,116
 749 325 749 325 768 299.5 c 128,-1,117
 787 274 787 274 817.5 259.5 c 128,-1,118
 848 245 848 245 893 245 c 0,97,98
EndSplineSet
EndChar

StartChar: A
Encoding: 65 65 36
Width: 1355
GlyphClass: 1
Flags: W
LayerCount: 2
Fore
SplineSet
1358 0 m 1,0,-1
 1052 0 l 1,1,-1
 943 307 l 1,2,-1
 416 307 l 1,3,-1
 305 0 l 1,4,-1
 -4 0 l 1,5,-1
 573 1413 l 1,6,-1
 784 1413 l 1,7,-1
 1358 0 l 1,0,-1
846 546 m 1,8,-1
 680 996 l 1,9,-1
 512 546 l 1,10,-1
 846 546 l 1,8,-1
EndSplineSet
Substitution2: "Single Substitution lookup 3 subtable" ordfeminine
Substitution2: "Single Substitution lookup 2 subtable" ordfeminine
Position2: "'cpsp' Capital Spacing lookup 0 subtable" dx=5 dy=0 dh=10 dv=0
EndChar

StartChar: B
Encoding: 66 66 37
Width: 1284
GlyphClass: 1
Flags: W
LayerCount: 2
Fore
SplineSet
760 0 m 2,0,-1
 173 0 l 1,1,-1
 173 1413 l 1,2,-1
 693 1413 l 2,3,4
 785 1413 785 1413 867.5 1389.5 c 128,-1,5
 950 1366 950 1366 1011.5 1317.5 c 128,-1,6
 1073 1269 1073 1269 1109 1195.5 c 128,-1,7
 1145 1122 1145 1122 1145 1022 c 0,8,9
 1145 985 1145 985 1134 946 c 128,-1,10
 1123 907 1123 907 1103.5 871 c 128,-1,11
 1084 835 1084 835 1056.5 806 c 128,-1,12
 1029 777 1029 777 996 759 c 1,13,14
 1040 744 1040 744 1079.5 707 c 128,-1,15
 1119 670 1119 670 1149 623 c 128,-1,16
 1179 576 1179 576 1197 524 c 128,-1,17
 1215 472 1215 472 1215 427 c 2,18,-1
 1215 413 l 2,19,20
 1215 321 1215 321 1176.5 245 c 128,-1,21
 1138 169 1138 169 1074.5 114.5 c 128,-1,22
 1011 60 1011 60 929 30 c 128,-1,23
 847 0 847 0 760 0 c 2,0,-1
725 860 m 2,24,25
 803 860 803 860 847 894 c 128,-1,26
 891 928 891 928 891 1010 c 0,27,28
 891 1049 891 1049 873.5 1077 c 128,-1,29
 856 1105 856 1105 828 1122.5 c 128,-1,30
 800 1140 800 1140 765.5 1148.5 c 128,-1,31
 731 1157 731 1157 698 1157 c 2,32,-1
 457 1157 l 1,33,-1
 457 860 l 1,34,-1
 725 860 l 2,24,25
755 272 m 2,35,36
 845 272 845 272 890.5 318 c 128,-1,37
 936 364 936 364 936 454 c 0,38,39
 936 492 936 492 918.5 522 c 128,-1,40
 901 552 901 552 873 573 c 128,-1,41
 845 594 845 594 810 605.5 c 128,-1,42
 775 617 775 617 741 617 c 2,43,-1
 457 617 l 1,44,-1
 457 272 l 1,45,-1
 755 272 l 2,35,36
EndSplineSet
Position2: "'cpsp' Capital Spacing lookup 0 subtable" dx=5 dy=0 dh=10 dv=0
EndChar

StartChar: C
Encoding: 67 67 38
Width: 1436
GlyphClass: 1
Flags: W
LayerCount: 2
Fore
SplineSet
755 -20 m 0,0,1
 593 -20 593 -20 466 35 c 128,-1,2
 339 90 339 90 250.5 187 c 128,-1,3
 162 284 162 284 115.5 417.5 c 128,-1,4
 69 551 69 551 69 707 c 0,5,6
 69 866 69 866 116.5 1000 c 128,-1,7
 164 1134 164 1134 254 1231 c 128,-1,8
 344 1328 344 1328 473.5 1382 c 128,-1,9
 603 1436 603 1436 766 1436 c 0,10,11
 986 1436 986 1436 1148 1329 c 128,-1,12
 1310 1222 1310 1222 1398 1021 c 1,13,-1
 1132 917 l 1,14,15
 1113 986 1113 986 1077 1033.5 c 128,-1,16
 1041 1081 1041 1081 992 1110 c 128,-1,17
 943 1139 943 1139 883 1151.5 c 128,-1,18
 823 1164 823 1164 756 1164 c 0,19,20
 655 1164 655 1164 579 1130 c 128,-1,21
 503 1096 503 1096 452 1036 c 128,-1,22
 401 976 401 976 375.5 894 c 128,-1,23
 350 812 350 812 350 717 c 0,24,25
 350 616 350 616 375 530.5 c 128,-1,26
 400 445 400 445 451.5 383 c 128,-1,27
 503 321 503 321 581.5 286 c 128,-1,28
 660 251 660 251 768 251 c 0,29,30
 905 251 905 251 995.5 312.5 c 128,-1,31
 1086 374 1086 374 1137 502 c 1,32,33
 1203 476 1203 476 1268.5 449 c 128,-1,34
 1334 422 1334 422 1400 396 c 1,35,36
 1356 294 1356 294 1291 216.5 c 128,-1,37
 1226 139 1226 139 1143.5 86.5 c 128,-1,38
 1061 34 1061 34 963 7 c 128,-1,39
 865 -20 865 -20 755 -20 c 0,0,1
EndSplineSet
Position2: "'cpsp' Capital Spacing lookup 0 subtable" dx=5 dy=0 dh=10 dv=0
EndChar

StartChar: D
Encoding: 68 68 39
Width: 1410
GlyphClass: 1
Flags: W
LayerCount: 2
Fore
SplineSet
596 0 m 2,0,-1
 173 0 l 1,1,-1
 173 1413 l 1,2,-1
 598 1413 l 2,3,4
 774 1413 774 1413 912 1368.5 c 128,-1,5
 1050 1324 1050 1324 1145 1234.5 c 128,-1,6
 1240 1145 1240 1145 1290 1010.5 c 128,-1,7
 1340 876 1340 876 1340 696 c 0,8,9
 1340 521 1340 521 1287 390.5 c 128,-1,10
 1234 260 1234 260 1136.5 173 c 128,-1,11
 1039 86 1039 86 901.5 43 c 128,-1,12
 764 0 764 0 596 0 c 2,0,-1
571 260 m 2,13,14
 690 260 690 260 780.5 283 c 128,-1,15
 871 306 871 306 932 359 c 128,-1,16
 993 412 993 412 1024.5 497.5 c 128,-1,17
 1056 583 1056 583 1056 707 c 0,18,19
 1056 830 1056 830 1030 915 c 128,-1,20
 1004 1000 1004 1000 948.5 1052.5 c 128,-1,21
 893 1105 893 1105 806.5 1128 c 128,-1,22
 720 1151 720 1151 599 1151 c 2,23,-1
 456 1151 l 1,24,-1
 456 260 l 1,25,-1
 571 260 l 2,13,14
EndSplineSet
Position2: "'cpsp' Capital Spacing lookup 0 subtable" dx=5 dy=0 dh=10 dv=0
EndChar

StartChar: E
Encoding: 69 69 40
Width: 1247
GlyphClass: 1
Flags: W
LayerCount: 2
Fore
SplineSet
1120 0 m 1,0,-1
 173 0 l 1,1,-1
 173 1413 l 1,2,-1
 1120 1413 l 1,3,-1
 1120 1150 l 1,4,-1
 456 1150 l 1,5,-1
 456 838 l 1,6,-1
 1090 838 l 1,7,-1
 1090 574 l 1,8,-1
 456 574 l 1,9,-1
 456 270 l 1,10,-1
 1120 270 l 1,11,-1
 1120 0 l 1,0,-1
EndSplineSet
Position2: "'cpsp' Capital Spacing lookup 0 subtable" dx=5 dy=0 dh=10 dv=0
EndChar

StartChar: F
Encoding: 70 70 41
Width: 1247
GlyphClass: 1
Flags: W
LayerCount: 2
Fore
SplineSet
456 0 m 1,0,-1
 173 0 l 1,1,-1
 173 1413 l 1,2,-1
 1204 1413 l 1,3,-1
 1204 1150 l 1,4,-1
 456 1150 l 1,5,-1
 456 838 l 1,6,-1
 1116 838 l 1,7,-1
 1116 574 l 1,8,-1
 456 574 l 1,9,-1
 456 0 l 1,0,-1
EndSplineSet
Position2: "'cpsp' Capital Spacing lookup 0 subtable" dx=5 dy=0 dh=10 dv=0
EndChar

StartChar: G
Encoding: 71 71 42
Width: 1542
GlyphClass: 1
Flags: W
LayerCount: 2
Fore
SplineSet
755 -20 m 0,0,1
 594 -20 594 -20 467 35 c 128,-1,2
 340 90 340 90 251.5 187.5 c 128,-1,3
 163 285 163 285 116 418 c 128,-1,4
 69 551 69 551 69 707 c 0,5,6
 69 868 69 868 116 1001.5 c 128,-1,7
 163 1135 163 1135 252.5 1232 c 128,-1,8
 342 1329 342 1329 471.5 1382.5 c 128,-1,9
 601 1436 601 1436 766 1436 c 0,10,11
 874 1436 874 1436 969.5 1408.5 c 128,-1,12
 1065 1381 1065 1381 1145.5 1327.5 c 128,-1,13
 1226 1274 1226 1274 1289.5 1197 c 128,-1,14
 1353 1120 1353 1120 1395 1021 c 1,15,-1
 1145 917 l 1,16,17
 1125 989 1125 989 1088.5 1040.5 c 128,-1,18
 1052 1092 1052 1092 1002 1125.5 c 128,-1,19
 952 1159 952 1159 890 1175 c 128,-1,20
 828 1191 828 1191 756 1191 c 0,21,22
 654 1191 654 1191 578 1152 c 128,-1,23
 502 1113 502 1113 451 1047.5 c 128,-1,24
 400 982 400 982 375 896 c 128,-1,25
 350 810 350 810 350 717 c 0,26,27
 350 617 350 617 374.5 528.5 c 128,-1,28
 399 440 399 440 450 374 c 128,-1,29
 501 308 501 308 580 269.5 c 128,-1,30
 659 231 659 231 768 231 c 0,31,32
 839 231 839 231 902.5 254.5 c 128,-1,33
 966 278 966 278 1016 320 c 128,-1,34
 1066 362 1066 362 1100 420.5 c 128,-1,35
 1134 479 1134 479 1147 549 c 1,36,-1
 827 549 l 1,37,-1
 827 779 l 1,38,-1
 1423 779 l 1,39,-1
 1423 0 l 1,40,-1
 1201 0 l 1,41,42
 1194 45 1194 45 1187 90.5 c 128,-1,43
 1180 136 1180 136 1172 181 c 1,44,45
 1137 127 1137 127 1091 88.5 c 128,-1,46
 1045 50 1045 50 991 26 c 128,-1,47
 937 2 937 2 877.5 -9 c 128,-1,48
 818 -20 818 -20 755 -20 c 0,0,1
EndSplineSet
Position2: "'cpsp' Capital Spacing lookup 0 subtable" dx=5 dy=0 dh=10 dv=0
EndChar

StartChar: H
Encoding: 72 72 43
Width: 1502
GlyphClass: 1
Flags: W
LayerCount: 2
Fore
SplineSet
1329 0 m 1,0,-1
 1046 0 l 1,1,-1
 1046 574 l 1,2,-1
 456 574 l 1,3,-1
 456 0 l 1,4,-1
 173 0 l 1,5,-1
 173 1413 l 1,6,-1
 456 1413 l 1,7,-1
 456 838 l 1,8,-1
 1046 838 l 1,9,-1
 1046 1413 l 1,10,-1
 1329 1413 l 1,11,-1
 1329 0 l 1,0,-1
EndSplineSet
Position2: "'cpsp' Capital Spacing lookup 0 subtable" dx=5 dy=0 dh=10 dv=0
EndChar

StartChar: I
Encoding: 73 73 44
Width: 629
GlyphClass: 1
Flags: W
LayerCount: 2
Fore
SplineSet
456 0 m 1,0,-1
 173 0 l 1,1,-1
 173 1413 l 1,2,-1
 456 1413 l 1,3,-1
 456 0 l 1,0,-1
EndSplineSet
Position2: "'cpsp' Capital Spacing lookup 0 subtable" dx=5 dy=0 dh=10 dv=0
EndChar

StartChar: J
Encoding: 74 74 45
Width: 1145
GlyphClass: 1
Flags: W
LayerCount: 2
Fore
SplineSet
502 -20 m 0,0,1
 400 -20 400 -20 314 16.5 c 128,-1,2
 228 53 228 53 164 117 c 128,-1,3
 100 181 100 181 62 267.5 c 128,-1,4
 24 354 24 354 18 454 c 1,5,-1
 298 485 l 1,6,7
 301 437 301 437 314.5 393.5 c 128,-1,8
 328 350 328 350 354 317 c 128,-1,9
 380 284 380 284 419 264.5 c 128,-1,10
 458 245 458 245 511 245 c 0,11,12
 591 245 591 245 633 272 c 128,-1,13
 675 299 675 299 694 344 c 128,-1,14
 713 389 713 389 715.5 448 c 128,-1,15
 718 507 718 507 718 570 c 2,16,-1
 718 1413 l 1,17,-1
 1002 1413 l 1,18,-1
 1002 512 l 2,19,20
 1002 389 1002 389 971.5 290.5 c 128,-1,21
 941 192 941 192 879.5 123 c 128,-1,22
 818 54 818 54 724 17 c 128,-1,23
 630 -20 630 -20 502 -20 c 0,0,1
EndSplineSet
Position2: "'cpsp' Capital Spacing lookup 0 subtable" dx=5 dy=0 dh=10 dv=0
EndChar

StartChar: K
Encoding: 75 75 46
Width: 1503
GlyphClass: 1
Flags: W
LayerCount: 2
Fore
SplineSet
1502 0 m 1,0,-1
 1147 0 l 1,1,-1
 725 638 l 1,2,-1
 456 360 l 1,3,-1
 456 0 l 1,4,-1
 173 0 l 1,5,-1
 173 1413 l 1,6,-1
 456 1413 l 1,7,-1
 456 705 l 1,8,-1
 1115 1413 l 1,9,-1
 1498 1413 l 1,10,-1
 923 827 l 1,11,-1
 1502 0 l 1,0,-1
EndSplineSet
Position2: "'cpsp' Capital Spacing lookup 0 subtable" dx=5 dy=0 dh=10 dv=0
EndChar

StartChar: L
Encoding: 76 76 47
Width: 1071
GlyphClass: 1
Flags: W
LayerCount: 2
Fore
SplineSet
1060 0 m 1,0,-1
 173 0 l 1,1,-1
 173 1413 l 1,2,-1
 456 1413 l 1,3,-1
 456 270 l 1,4,-1
 1060 270 l 1,5,-1
 1060 0 l 1,0,-1
EndSplineSet
Position2: "'cpsp' Capital Spacing lookup 0 subtable" dx=5 dy=0 dh=10 dv=0
EndChar

StartChar: M
Encoding: 77 77 48
Width: 1809
GlyphClass: 1
Flags: W
LayerCount: 2
Fore
SplineSet
1636 0 m 1,0,-1
 1365 0 l 1,1,-1
 1365 988 l 1,2,-1
 1039 123 l 1,3,-1
 770 123 l 1,4,-1
 443 988 l 1,5,-1
 443 0 l 1,6,-1
 173 0 l 1,7,-1
 173 1413 l 1,8,-1
 541 1413 l 1,9,-1
 906 448 l 1,10,-1
 1268 1413 l 1,11,-1
 1636 1413 l 1,12,-1
 1636 0 l 1,0,-1
EndSplineSet
Position2: "'cpsp' Capital Spacing lookup 0 subtable" dx=5 dy=0 dh=10 dv=0
EndChar

StartChar: N
Encoding: 78 78 49
Width: 1465
GlyphClass: 1
Flags: W
LayerCount: 2
Fore
SplineSet
1292 0 m 1,0,-1
 1032 0 l 1,1,-1
 443 911 l 1,2,-1
 443 0 l 1,3,-1
 173 0 l 1,4,-1
 173 1413 l 1,5,-1
 432 1413 l 1,6,-1
 1021 504 l 1,7,-1
 1021 1413 l 1,8,-1
 1292 1413 l 1,9,-1
 1292 0 l 1,0,-1
EndSplineSet
Position2: "'cpsp' Capital Spacing lookup 0 subtable" dx=5 dy=0 dh=10 dv=0
EndChar

StartChar: O
Encoding: 79 79 50
Width: 1532
GlyphClass: 1
Flags: W
LayerCount: 2
Fore
SplineSet
749 -20 m 0,0,1
 585 -20 585 -20 458.5 36.5 c 128,-1,2
 332 93 332 93 245.5 192 c 128,-1,3
 159 291 159 291 114 426 c 128,-1,4
 69 561 69 561 69 717 c 0,5,6
 69 822 69 822 93 922.5 c 128,-1,7
 117 1023 117 1023 165.5 1110 c 128,-1,8
 214 1197 214 1197 288.5 1266 c 128,-1,9
 363 1335 363 1335 464 1377 c 0,10,11
 542 1410 542 1410 620 1422 c 128,-1,12
 698 1434 698 1434 783 1434 c 0,13,14
 948 1434 948 1434 1074.5 1378 c 128,-1,15
 1201 1322 1201 1322 1287.5 1223 c 128,-1,16
 1374 1124 1374 1124 1418.5 989.5 c 128,-1,17
 1463 855 1463 855 1463 698 c 0,18,19
 1463 595 1463 595 1439 494.5 c 128,-1,20
 1415 394 1415 394 1366.5 306 c 128,-1,21
 1318 218 1318 218 1244 148.5 c 128,-1,22
 1170 79 1170 79 1071 37 c 0,23,24
 990 3 990 3 913 -8.5 c 128,-1,25
 836 -20 836 -20 749 -20 c 0,0,1
774 230 m 2,26,27
 881 230 881 230 954 269 c 128,-1,28
 1027 308 1027 308 1073 374 c 128,-1,29
 1119 440 1119 440 1139 526.5 c 128,-1,30
 1159 613 1159 613 1159 707 c 0,31,32
 1159 807 1159 807 1137.5 893.5 c 128,-1,33
 1116 980 1116 980 1068.5 1044.5 c 128,-1,34
 1021 1109 1021 1109 944.5 1146 c 128,-1,35
 868 1183 868 1183 758 1183 c 0,36,37
 652 1183 652 1183 578 1144 c 128,-1,38
 504 1105 504 1105 458.5 1039 c 128,-1,39
 413 973 413 973 392.5 887 c 128,-1,40
 372 801 372 801 372 707 c 256,41,42
 372 613 372 613 392 526.5 c 128,-1,43
 412 440 412 440 458 374 c 128,-1,44
 504 308 504 308 577.5 269 c 128,-1,45
 651 230 651 230 757 230 c 2,46,-1
 774 230 l 2,26,27
EndSplineSet
Substitution2: "Single Substitution lookup 3 subtable" ordmasculine
Substitution2: "Single Substitution lookup 2 subtable" ordmasculine
Position2: "'cpsp' Capital Spacing lookup 0 subtable" dx=5 dy=0 dh=10 dv=0
EndChar

StartChar: P
Encoding: 80 80 51
Width: 1173
GlyphClass: 1
Flags: W
LayerCount: 2
Fore
SplineSet
454 0 m 1,0,-1
 173 0 l 1,1,-1
 173 1413 l 1,2,-1
 641 1413 l 2,3,4
 741 1413 741 1413 832 1386 c 128,-1,5
 923 1359 923 1359 992.5 1305 c 128,-1,6
 1062 1251 1062 1251 1103 1169.5 c 128,-1,7
 1144 1088 1144 1088 1144 979 c 0,8,9
 1144 906 1144 906 1121 845 c 128,-1,10
 1098 784 1098 784 1056.5 735.5 c 128,-1,11
 1015 687 1015 687 958.5 652.5 c 128,-1,12
 902 618 902 618 835 598 c 0,13,14
 789 584 789 584 741.5 577.5 c 128,-1,15
 694 571 694 571 655.5 570 c 128,-1,16
 617 569 617 569 588 569 c 2,17,-1
 454 570 l 1,18,-1
 454 0 l 1,0,-1
630 837 m 2,19,20
 670 837 670 837 711 841.5 c 128,-1,21
 752 846 752 846 785.5 861.5 c 128,-1,22
 819 877 819 877 840.5 906.5 c 128,-1,23
 862 936 862 936 862 986 c 0,24,25
 862 1038 862 1038 841.5 1069.5 c 128,-1,26
 821 1101 821 1101 788 1118 c 128,-1,27
 755 1135 755 1135 713.5 1140.5 c 128,-1,28
 672 1146 672 1146 630 1146 c 2,29,-1
 454 1146 l 1,30,-1
 454 837 l 1,31,-1
 630 837 l 2,19,20
EndSplineSet
Position2: "'cpsp' Capital Spacing lookup 0 subtable" dx=5 dy=0 dh=10 dv=0
EndChar

StartChar: Q
Encoding: 81 81 52
Width: 1582
GlyphClass: 1
Flags: W
LayerCount: 2
Fore
SplineSet
1349 -126 m 1,0,1
 1298 -74 1298 -74 1246.5 -23.5 c 128,-1,2
 1195 27 1195 27 1143 78 c 1,3,4
 1052 23 1052 23 955.5 1.5 c 128,-1,5
 859 -20 859 -20 753 -20 c 0,6,7
 587 -20 587 -20 459 36 c 128,-1,8
 331 92 331 92 244.5 191.5 c 128,-1,9
 158 291 158 291 113.5 426.5 c 128,-1,10
 69 562 69 562 69 721 c 0,11,12
 69 812 69 812 88 901 c 128,-1,13
 107 990 107 990 145 1070 c 128,-1,14
 183 1150 183 1150 241.5 1218 c 128,-1,15
 300 1286 300 1286 379 1335 c 0,16,17
 427 1365 427 1365 475 1384 c 128,-1,18
 523 1403 523 1403 573 1414.5 c 128,-1,19
 623 1426 623 1426 675.5 1430 c 128,-1,20
 728 1434 728 1434 783 1434 c 0,21,22
 942 1434 942 1434 1068 1379 c 128,-1,23
 1194 1324 1194 1324 1282 1227.5 c 128,-1,24
 1370 1131 1370 1131 1416.5 999 c 128,-1,25
 1463 867 1463 867 1463 713 c 0,26,27
 1463 586 1463 586 1432 464.5 c 128,-1,28
 1401 343 1401 343 1329 237 c 1,29,-1
 1533 46 l 1,30,-1
 1349 -126 l 1,0,1
766 249 m 0,31,32
 811 249 811 249 855 256 c 128,-1,33
 899 263 899 263 941 277 c 1,34,-1
 750 444 l 1,35,-1
 936 611 l 1,36,37
 982 569 982 569 1028.5 528.5 c 128,-1,38
 1075 488 1075 488 1120 446 c 1,39,40
 1153 509 1153 509 1166 572.5 c 128,-1,41
 1179 636 1179 636 1179 707 c 0,42,43
 1179 807 1179 807 1154.5 891 c 128,-1,44
 1130 975 1130 975 1079 1035.5 c 128,-1,45
 1028 1096 1028 1096 950 1130 c 128,-1,46
 872 1164 872 1164 766 1164 c 256,47,48
 660 1164 660 1164 582.5 1130 c 128,-1,49
 505 1096 505 1096 454 1035.5 c 128,-1,50
 403 975 403 975 378 891 c 128,-1,51
 353 807 353 807 353 707 c 256,52,53
 353 607 353 607 378 523 c 128,-1,54
 403 439 403 439 454 378 c 128,-1,55
 505 317 505 317 583 283 c 128,-1,56
 661 249 661 249 766 249 c 0,31,32
EndSplineSet
Position2: "'cpsp' Capital Spacing lookup 0 subtable" dx=5 dy=0 dh=10 dv=0
EndChar

StartChar: R
Encoding: 82 82 53
Width: 1283
GlyphClass: 1
Flags: W
LayerCount: 2
Fore
SplineSet
1277 -2 m 1,0,-1
 953 -2 l 1,1,-1
 607 595 l 1,2,-1
 456 595 l 1,3,-1
 456 -2 l 1,4,-1
 173 -2 l 1,5,-1
 173 1413 l 1,6,-1
 656 1413 l 2,7,8
 751 1413 751 1413 839.5 1385.5 c 128,-1,9
 928 1358 928 1358 997 1304.5 c 128,-1,10
 1066 1251 1066 1251 1107.5 1172 c 128,-1,11
 1149 1093 1149 1093 1149 990 c 0,12,13
 1149 926 1149 926 1129 869 c 128,-1,14
 1109 812 1109 812 1073 764 c 128,-1,15
 1037 716 1037 716 988 679.5 c 128,-1,16
 939 643 939 643 881 621 c 1,17,18
 982 465 982 465 1079.5 309.5 c 128,-1,19
 1177 154 1177 154 1277 -2 c 1,0,-1
668 821 m 2,20,21
 705 821 705 821 741 831 c 128,-1,22
 777 841 777 841 805 861.5 c 128,-1,23
 833 882 833 882 850.5 913 c 128,-1,24
 868 944 868 944 868 985 c 0,25,26
 868 1032 868 1032 849 1065 c 128,-1,27
 830 1098 830 1098 799 1119 c 128,-1,28
 768 1140 768 1140 728.5 1149.5 c 128,-1,29
 689 1159 689 1159 648 1159 c 2,30,-1
 458 1159 l 1,31,-1
 458 821 l 1,32,-1
 668 821 l 2,20,21
EndSplineSet
Position2: "'cpsp' Capital Spacing lookup 0 subtable" dx=5 dy=0 dh=10 dv=0
EndChar

StartChar: S
Encoding: 83 83 54
Width: 1153
GlyphClass: 1
Flags: W
LayerCount: 2
Fore
SplineSet
594 -16 m 0,0,1
 493 -16 493 -16 401 12 c 128,-1,2
 309 40 309 40 236 94 c 128,-1,3
 163 148 163 148 113 228 c 128,-1,4
 63 308 63 308 45 412 c 1,5,-1
 324 484 l 1,6,7
 330 426 330 426 351 378.5 c 128,-1,8
 372 331 372 331 407 298 c 128,-1,9
 442 265 442 265 490 247 c 128,-1,10
 538 229 538 229 598 229 c 0,11,12
 636 229 636 229 674 238 c 128,-1,13
 712 247 712 247 742.5 267 c 128,-1,14
 773 287 773 287 792 318.5 c 128,-1,15
 811 350 811 350 811 394 c 0,16,17
 811 444 811 444 782 480 c 128,-1,18
 753 516 753 516 706 543.5 c 128,-1,19
 659 571 659 571 598.5 594.5 c 128,-1,20
 538 618 538 618 475 644.5 c 128,-1,21
 412 671 412 671 351.5 703 c 128,-1,22
 291 735 291 735 244 781 c 128,-1,23
 197 827 197 827 168 889.5 c 128,-1,24
 139 952 139 952 139 1038 c 0,25,26
 139 1134 139 1134 175.5 1208 c 128,-1,27
 212 1282 212 1282 274 1332 c 128,-1,28
 336 1382 336 1382 417 1407.5 c 128,-1,29
 498 1433 498 1433 588 1433 c 0,30,31
 734 1433 734 1433 846.5 1366.5 c 128,-1,32
 959 1300 959 1300 1031 1174 c 1,33,-1
 797 1031 l 1,34,35
 781 1062 781 1062 759 1090.5 c 128,-1,36
 737 1119 737 1119 709 1140.5 c 128,-1,37
 681 1162 681 1162 648.5 1175 c 128,-1,38
 616 1188 616 1188 579 1188 c 0,39,40
 548 1188 548 1188 519.5 1179 c 128,-1,41
 491 1170 491 1170 469 1153 c 128,-1,42
 447 1136 447 1136 433.5 1110 c 128,-1,43
 420 1084 420 1084 420 1051 c 0,44,45
 420 1006 420 1006 449 974 c 128,-1,46
 478 942 478 942 525 916.5 c 128,-1,47
 572 891 572 891 632.5 868.5 c 128,-1,48
 693 846 693 846 756.5 820 c 128,-1,49
 820 794 820 794 880.5 760.5 c 128,-1,50
 941 727 941 727 988 680 c 128,-1,51
 1035 633 1035 633 1064 569 c 128,-1,52
 1093 505 1093 505 1093 417 c 0,53,54
 1093 311 1093 311 1051.5 230.5 c 128,-1,55
 1010 150 1010 150 941 95 c 128,-1,56
 872 40 872 40 782 12 c 128,-1,57
 692 -16 692 -16 594 -16 c 0,0,1
EndSplineSet
Position2: "'cpsp' Capital Spacing lookup 0 subtable" dx=5 dy=0 dh=10 dv=0
EndChar

StartChar: T
Encoding: 84 84 55
Width: 1163
GlyphClass: 1
Flags: W
LayerCount: 2
Fore
SplineSet
723 0 m 1,0,-1
 440 0 l 1,1,-1
 440 1156 l 1,2,-1
 7 1156 l 1,3,-1
 7 1413 l 1,4,-1
 1154 1413 l 1,5,-1
 1154 1156 l 1,6,-1
 723 1156 l 1,7,-1
 723 0 l 1,0,-1
EndSplineSet
Position2: "'cpsp' Capital Spacing lookup 0 subtable" dx=5 dy=0 dh=10 dv=0
EndChar

StartChar: U
Encoding: 85 85 56
Width: 1388
GlyphClass: 1
Flags: W
LayerCount: 2
Fore
SplineSet
694 -20 m 0,0,1
 551 -20 551 -20 446.5 18.5 c 128,-1,2
 342 57 342 57 273.5 131.5 c 128,-1,3
 205 206 205 206 172 314 c 128,-1,4
 139 422 139 422 139 561 c 2,5,-1
 139 1413 l 1,6,-1
 422 1413 l 1,7,-1
 422 573 l 2,8,9
 422 497 422 497 433 438 c 128,-1,10
 444 379 444 379 474 338.5 c 128,-1,11
 504 298 504 298 557 276.5 c 128,-1,12
 610 255 610 255 694 255 c 0,13,14
 781 255 781 255 834.5 277.5 c 128,-1,15
 888 300 888 300 917.5 342.5 c 128,-1,16
 947 385 947 385 956.5 446.5 c 128,-1,17
 966 508 966 508 966 585 c 2,18,-1
 966 1413 l 1,19,-1
 1250 1413 l 1,20,-1
 1250 571 l 2,21,22
 1250 431 1250 431 1217.5 321 c 128,-1,23
 1185 211 1185 211 1117.5 135.5 c 128,-1,24
 1050 60 1050 60 945 20 c 128,-1,25
 840 -20 840 -20 694 -20 c 0,0,1
EndSplineSet
Position2: "'cpsp' Capital Spacing lookup 0 subtable" dx=5 dy=0 dh=10 dv=0
EndChar

StartChar: V
Encoding: 86 86 57
Width: 1349
GlyphClass: 1
Flags: W
LayerCount: 2
Fore
SplineSet
779 0 m 1,0,-1
 572 0 l 1,1,-1
 -4 1413 l 1,2,-1
 313 1413 l 1,3,-1
 677 475 l 1,4,-1
 1039 1413 l 1,5,-1
 1353 1413 l 1,6,-1
 779 0 l 1,0,-1
EndSplineSet
Position2: "'cpsp' Capital Spacing lookup 0 subtable" dx=5 dy=0 dh=10 dv=0
EndChar

StartChar: W
Encoding: 87 87 58
Width: 2012
GlyphClass: 1
Flags: W
LayerCount: 2
Fore
SplineSet
1570 0 m 1,0,-1
 1303 0 l 1,1,-1
 1004 966 l 1,2,-1
 709 0 l 1,3,-1
 442 0 l 1,4,-1
 10 1413 l 1,5,-1
 305 1413 l 1,6,-1
 596 429 l 1,7,-1
 897 1413 l 1,8,-1
 1115 1413 l 1,9,-1
 1416 429 l 1,10,-1
 1707 1413 l 1,11,-1
 2002 1413 l 1,12,-1
 1570 0 l 1,0,-1
EndSplineSet
Position2: "'cpsp' Capital Spacing lookup 0 subtable" dx=5 dy=0 dh=10 dv=0
EndChar

StartChar: X
Encoding: 88 88 59
Width: 1369
GlyphClass: 1
Flags: W
LayerCount: 2
Fore
SplineSet
1360 0 m 1,0,-1
 1020 0 l 1,1,-1
 683 525 l 1,2,-1
 349 0 l 1,3,-1
 10 0 l 1,4,-1
 485 707 l 1,5,-1
 12 1413 l 1,6,-1
 351 1413 l 1,7,-1
 685 881 l 1,8,-1
 1018 1413 l 1,9,-1
 1358 1413 l 1,10,-1
 884 707 l 1,11,-1
 1360 0 l 1,0,-1
EndSplineSet
Position2: "'cpsp' Capital Spacing lookup 0 subtable" dx=5 dy=0 dh=10 dv=0
EndChar

StartChar: Y
Encoding: 89 89 60
Width: 1320
GlyphClass: 1
Flags: W
LayerCount: 2
Fore
SplineSet
810 0 m 1,0,-1
 511 0 l 1,1,-1
 511 550 l 1,2,-1
 -19 1413 l 1,3,-1
 326 1413 l 1,4,-1
 657 820 l 1,5,-1
 991 1413 l 1,6,-1
 1339 1413 l 1,7,-1
 810 550 l 1,8,-1
 810 0 l 1,0,-1
EndSplineSet
Position2: "'cpsp' Capital Spacing lookup 0 subtable" dx=5 dy=0 dh=10 dv=0
EndChar

StartChar: Z
Encoding: 90 90 61
Width: 1271
GlyphClass: 1
Flags: W
LayerCount: 2
Fore
SplineSet
1205 0 m 1,0,-1
 50 0 l 1,1,-1
 50 192 l 1,2,-1
 806 1150 l 1,3,-1
 95 1150 l 1,4,-1
 95 1413 l 1,5,-1
 1205 1413 l 1,6,-1
 1205 1212 l 1,7,-1
 454 255 l 1,8,-1
 1205 255 l 1,9,-1
 1205 0 l 1,0,-1
EndSplineSet
Position2: "'cpsp' Capital Spacing lookup 0 subtable" dx=5 dy=0 dh=10 dv=0
EndChar

StartChar: bracketleft
Encoding: 91 91 62
Width: 643
GlyphClass: 1
Flags: W
LayerCount: 2
Fore
SplineSet
621 -186 m 1,0,-1
 167 -186 l 1,1,-1
 167 1594 l 1,2,-1
 621 1594 l 1,3,-1
 621 1410 l 1,4,-1
 386 1410 l 1,5,-1
 386 0 l 1,6,-1
 621 0 l 1,7,-1
 621 -186 l 1,0,-1
EndSplineSet
EndChar

StartChar: backslash
Encoding: 92 92 63
Width: 936
GlyphClass: 1
Flags: W
LayerCount: 2
Fore
SplineSet
988 -430 m 1,0,-1
 736 -430 l 1,1,-1
 -52 1516 l 1,2,-1
 198 1516 l 1,3,-1
 988 -430 l 1,0,-1
EndSplineSet
EndChar

StartChar: bracketright
Encoding: 93 93 64
Width: 643
GlyphClass: 1
Flags: W
LayerCount: 2
Fore
SplineSet
476 -186 m 1,0,-1
 22 -186 l 1,1,-1
 22 0 l 1,2,-1
 257 0 l 1,3,-1
 257 1410 l 1,4,-1
 22 1410 l 1,5,-1
 22 1594 l 1,6,-1
 476 1594 l 1,7,-1
 476 -186 l 1,0,-1
EndSplineSet
EndChar

StartChar: asciicircum
Encoding: 94 94 65
Width: 983
GlyphClass: 1
Flags: W
LayerCount: 2
Fore
SplineSet
938 794 m 1,0,-1
 670 794 l 1,1,-1
 490 1085 l 1,2,-1
 312 794 l 1,3,-1
 44 794 l 1,4,-1
 490 1518 l 1,5,-1
 938 794 l 1,0,-1
EndSplineSet
EndChar

StartChar: underscore
Encoding: 95 95 66
Width: 1250
GlyphClass: 1
Flags: W
LayerCount: 2
Fore
SplineSet
1062 -206 m 1,0,-1
 190 -206 l 1,1,-1
 190 0 l 1,2,-1
 1062 0 l 1,3,-1
 1062 -206 l 1,0,-1
EndSplineSet
EndChar

StartChar: grave
Encoding: 96 96 67
Width: 531
GlyphClass: 1
Flags: W
LayerCount: 2
Fore
SplineSet
511 1098 m 1,0,-1
 325 1098 l 1,1,-1
 1 1413 l 1,2,-1
 282 1413 l 1,3,-1
 511 1098 l 1,0,-1
EndSplineSet
EndChar

StartChar: a
Encoding: 97 97 68
Width: 1087
GlyphClass: 1
Flags: W
LayerCount: 2
Fore
SplineSet
423 -20 m 0,0,1
 346 -20 346 -20 276 3.5 c 128,-1,2
 206 27 206 27 152.5 71 c 128,-1,3
 99 115 99 115 66.5 180 c 128,-1,4
 34 245 34 245 34 327 c 0,5,6
 34 417 34 417 70.5 475 c 128,-1,7
 107 533 107 533 165.5 566 c 128,-1,8
 224 599 224 599 297 612 c 128,-1,9
 370 625 370 625 444 625 c 2,10,-1
 720 625 l 1,11,12
 720 670 720 670 706 706 c 128,-1,13
 692 742 692 742 666.5 766 c 128,-1,14
 641 790 641 790 606 803.5 c 128,-1,15
 571 817 571 817 531 817 c 0,16,17
 455 817 455 817 396 777.5 c 128,-1,18
 337 738 337 738 300 668 c 1,19,-1
 89 834 l 1,20,21
 169 944 169 944 279.5 1000 c 128,-1,22
 390 1056 390 1056 528 1056 c 0,23,24
 626 1056 626 1056 709 1028 c 128,-1,25
 792 1000 792 1000 853 945.5 c 128,-1,26
 914 891 914 891 948.5 810.5 c 128,-1,27
 983 730 983 730 983 625 c 2,28,-1
 983 0 l 1,29,-1
 759 0 l 1,30,-1
 739 127 l 1,31,32
 681 48 681 48 601 14 c 128,-1,33
 521 -20 521 -20 423 -20 c 0,0,1
481 211 m 0,34,35
 521 211 521 211 562.5 228 c 128,-1,36
 604 245 604 245 639.5 274.5 c 128,-1,37
 675 304 675 304 697.5 344 c 128,-1,38
 720 384 720 384 720 429 c 1,39,-1
 542 429 l 2,40,41
 515 429 515 429 476 427 c 128,-1,42
 437 425 437 425 401 414.5 c 128,-1,43
 365 404 365 404 339.5 381 c 128,-1,44
 314 358 314 358 314 317 c 0,45,46
 314 284 314 284 331.5 263.5 c 128,-1,47
 349 243 349 243 374 231.5 c 128,-1,48
 399 220 399 220 428 215.5 c 128,-1,49
 457 211 457 211 481 211 c 0,34,35
EndSplineSet
Substitution2: "Single Substitution lookup 3 subtable" ordfeminine
Substitution2: "Single Substitution lookup 2 subtable" ordfeminine
EndChar

StartChar: b
Encoding: 98 98 69
Width: 1208
GlyphClass: 1
Flags: W
LayerCount: 2
Fore
SplineSet
713 -20 m 0,0,1
 635 -20 635 -20 559 5.5 c 128,-1,2
 483 31 483 31 430 89 c 1,3,-1
 430 0 l 1,4,-1
 146 0 l 1,5,-1
 146 1410 l 1,6,-1
 430 1410 l 1,7,-1
 430 950 l 1,8,9
 457 981 457 981 490 1002 c 128,-1,10
 523 1023 523 1023 560 1035.5 c 128,-1,11
 597 1048 597 1048 636 1053.5 c 128,-1,12
 675 1059 675 1059 715 1059 c 0,13,14
 792 1059 792 1059 858.5 1034 c 128,-1,15
 925 1009 925 1009 978 965 c 128,-1,16
 1031 921 1031 921 1070 859.5 c 128,-1,17
 1109 798 1109 798 1131 726 c 0,18,19
 1147 673 1147 673 1153.5 620 c 128,-1,20
 1160 567 1160 567 1160 511 c 0,21,22
 1160 438 1160 438 1144.5 365.5 c 128,-1,23
 1129 293 1129 293 1097 228 c 128,-1,24
 1065 163 1065 163 1016 108.5 c 128,-1,25
 967 54 967 54 901 20 c 0,26,27
 855 -4 855 -4 809.5 -12 c 128,-1,28
 764 -20 764 -20 713 -20 c 0,0,1
647 234 m 0,29,30
 711 234 711 234 756.5 256 c 128,-1,31
 802 278 802 278 830 316.5 c 128,-1,32
 858 355 858 355 871 407.5 c 128,-1,33
 884 460 884 460 884 520 c 256,34,35
 884 580 884 580 871 632.5 c 128,-1,36
 858 685 858 685 829.5 724.5 c 128,-1,37
 801 764 801 764 756 787 c 128,-1,38
 711 810 711 810 647 810 c 0,39,40
 582 810 582 810 536.5 788 c 128,-1,41
 491 766 491 766 461.5 726.5 c 128,-1,42
 432 687 432 687 418.5 634 c 128,-1,43
 405 581 405 581 405 520 c 256,44,45
 405 459 405 459 419 406.5 c 128,-1,46
 433 354 433 354 462.5 315.5 c 128,-1,47
 492 277 492 277 538 255.5 c 128,-1,48
 584 234 584 234 647 234 c 0,29,30
EndSplineSet
EndChar

StartChar: c
Encoding: 99 99 70
Width: 1039
GlyphClass: 1
Flags: W
LayerCount: 2
Fore
SplineSet
553 -20 m 0,0,1
 435 -20 435 -20 340.5 22 c 128,-1,2
 246 64 246 64 181.5 138.5 c 128,-1,3
 117 213 117 213 82.5 312.5 c 128,-1,4
 48 412 48 412 48 527 c 0,5,6
 48 641 48 641 85 738.5 c 128,-1,7
 122 836 122 836 189.5 906.5 c 128,-1,8
 257 977 257 977 351.5 1016.5 c 128,-1,9
 446 1056 446 1056 560 1056 c 0,10,11
 639 1056 639 1056 708.5 1035 c 128,-1,12
 778 1014 778 1014 836 974.5 c 128,-1,13
 894 935 894 935 940.5 879 c 128,-1,14
 987 823 987 823 1017 753 c 1,15,-1
 747 645 l 1,16,17
 727 716 727 716 676.5 755 c 128,-1,18
 626 794 626 794 555 794 c 0,19,20
 495 794 495 794 451.5 772.5 c 128,-1,21
 408 751 408 751 380 713 c 128,-1,22
 352 675 352 675 339 625 c 128,-1,23
 326 575 326 575 326 518 c 0,24,25
 326 460 326 460 338.5 409 c 128,-1,26
 351 358 351 358 378.5 321 c 128,-1,27
 406 284 406 284 449.5 262.5 c 128,-1,28
 493 241 493 241 555 241 c 0,29,30
 626 241 626 241 676.5 279.5 c 128,-1,31
 727 318 727 318 747 389 c 1,32,-1
 1007 288 l 1,33,34
 980 213 980 213 935.5 155.5 c 128,-1,35
 891 98 891 98 832.5 59 c 128,-1,36
 774 20 774 20 703.5 0 c 128,-1,37
 633 -20 633 -20 553 -20 c 0,0,1
EndSplineSet
AlternateSubs2: "'salt' Stylistic Alternatives lookup 15 subtable" c.001
Substitution2: "'aalt' Access All Alternates lookup 0 subtable" c.001
EndChar

StartChar: d
Encoding: 100 100 71
Width: 1201
GlyphClass: 1
Flags: W
LayerCount: 2
Fore
SplineSet
501 -20 m 0,0,1
 386 -20 386 -20 302 27 c 128,-1,2
 218 74 218 74 163 151 c 128,-1,3
 108 228 108 228 81.5 327.5 c 128,-1,4
 55 427 55 427 55 530 c 0,5,6
 55 595 55 595 68 660.5 c 128,-1,7
 81 726 81 726 106.5 784.5 c 128,-1,8
 132 843 132 843 169.5 893.5 c 128,-1,9
 207 944 207 944 255.5 980.5 c 128,-1,10
 304 1017 304 1017 364.5 1038.5 c 128,-1,11
 425 1060 425 1060 496 1060 c 0,12,13
 536 1060 536 1060 576 1054 c 128,-1,14
 616 1048 616 1048 653.5 1035 c 128,-1,15
 691 1022 691 1022 725 1001 c 128,-1,16
 759 980 759 980 786 950 c 1,17,-1
 786 1413 l 1,18,-1
 1064 1413 l 1,19,-1
 1064 0 l 1,20,-1
 812 0 l 1,21,-1
 798 103 l 1,22,23
 771 69 771 69 737 45.5 c 128,-1,24
 703 22 703 22 665 7.5 c 128,-1,25
 627 -7 627 -7 585 -13.5 c 128,-1,26
 543 -20 543 -20 501 -20 c 0,0,1
572 233 m 0,27,28
 636 233 636 233 681.5 255 c 128,-1,29
 727 277 727 277 755 315.5 c 128,-1,30
 783 354 783 354 796 407 c 128,-1,31
 809 460 809 460 809 520 c 256,32,33
 809 580 809 580 796 633 c 128,-1,34
 783 686 783 686 755 726.5 c 128,-1,35
 727 767 727 767 681.5 790 c 128,-1,36
 636 813 636 813 572 813 c 256,37,38
 508 813 508 813 462 790 c 128,-1,39
 416 767 416 767 387.5 726.5 c 128,-1,40
 359 686 359 686 345.5 633 c 128,-1,41
 332 580 332 580 332 520 c 0,42,43
 332 459 332 459 345 406 c 128,-1,44
 358 353 358 353 387 314.5 c 128,-1,45
 416 276 416 276 461.5 254.5 c 128,-1,46
 507 233 507 233 572 233 c 0,27,28
EndSplineSet
EndChar

StartChar: e
Encoding: 101 101 72
Width: 1115
GlyphClass: 1
Flags: W
LayerCount: 2
Fore
SplineSet
565 -12 m 0,0,1
 446 -12 446 -12 350.5 28 c 128,-1,2
 255 68 255 68 187 139 c 128,-1,3
 119 210 119 210 82.5 308.5 c 128,-1,4
 46 407 46 407 46 523 c 0,5,6
 46 636 46 636 83.5 733 c 128,-1,7
 121 830 121 830 189 901 c 128,-1,8
 257 972 257 972 352 1012 c 128,-1,9
 447 1052 447 1052 563 1052 c 0,10,11
 690 1052 690 1052 784.5 1016 c 128,-1,12
 879 980 879 980 942.5 911.5 c 128,-1,13
 1006 843 1006 843 1037 745 c 128,-1,14
 1068 647 1068 647 1068 524 c 0,15,16
 1068 500 1068 500 1066 477 c 128,-1,17
 1064 454 1064 454 1057 430 c 1,18,-1
 346 430 l 1,19,20
 354 382 354 382 375.5 347.5 c 128,-1,21
 397 313 397 313 428.5 290 c 128,-1,22
 460 267 460 267 498.5 256 c 128,-1,23
 537 245 537 245 579 245 c 0,24,25
 615 245 615 245 649 249 c 128,-1,26
 683 253 683 253 715 263.5 c 128,-1,27
 747 274 747 274 775.5 293.5 c 128,-1,28
 804 313 804 313 829 343 c 1,29,30
 879 298 879 298 927.5 254.5 c 128,-1,31
 976 211 976 211 1025 166 c 1,32,33
 979 116 979 116 927 82 c 128,-1,34
 875 48 875 48 816.5 27 c 128,-1,35
 758 6 758 6 695.5 -3 c 128,-1,36
 633 -12 633 -12 565 -12 c 0,0,1
786 623 m 1,37,38
 769 728 769 728 715 776 c 128,-1,39
 661 824 661 824 563 824 c 0,40,41
 471 824 471 824 419 769.5 c 128,-1,42
 367 715 367 715 346 623 c 1,43,-1
 786 623 l 1,37,38
EndSplineSet
EndChar

StartChar: f
Encoding: 102 102 73
Width: 707
GlyphClass: 1
Flags: W
LayerCount: 2
Fore
SplineSet
492 0 m 1,0,-1
 207 0 l 1,1,-1
 207 809 l 1,2,-1
 17 809 l 1,3,-1
 17 1037 l 1,4,-1
 210 1037 l 1,5,-1
 210 1158 l 2,6,7
 210 1221 210 1221 238 1272 c 128,-1,8
 266 1323 266 1323 313.5 1359 c 128,-1,9
 361 1395 361 1395 422 1414.5 c 128,-1,10
 483 1434 483 1434 550 1434 c 0,11,12
 599 1434 599 1434 647 1423 c 128,-1,13
 695 1412 695 1412 739 1392 c 1,14,-1
 643 1170 l 1,15,16
 628 1179 628 1179 610.5 1183.5 c 128,-1,17
 593 1188 593 1188 574 1188 c 0,18,19
 536 1188 536 1188 518 1172 c 128,-1,20
 500 1156 500 1156 495 1135 c 128,-1,21
 490 1114 490 1114 490 1094 c 0,22,23
 490 1089 490 1089 491 1073.5 c 128,-1,24
 492 1058 492 1058 492 1039 c 1,25,-1
 717 1039 l 1,26,-1
 717 809 l 1,27,-1
 492 809 l 1,28,-1
 492 0 l 1,0,-1
EndSplineSet
EndChar

StartChar: g
Encoding: 103 103 74
Width: 1070
GlyphClass: 1
Flags: W
LayerCount: 2
Fore
SplineSet
550 -478 m 0,0,1
 494 -478 494 -478 437 -469 c 128,-1,2
 380 -460 380 -460 327 -441 c 128,-1,3
 274 -422 274 -422 228.5 -391.5 c 128,-1,4
 183 -361 183 -361 149 -320.5 c 128,-1,5
 115 -280 115 -280 96 -227 c 128,-1,6
 77 -174 77 -174 77 -109 c 0,7,8
 77 -98 77 -98 78 -86 c 128,-1,9
 79 -74 79 -74 81 -63 c 1,10,-1
 173 19 l 1,11,12
 126 55 126 55 105 107.5 c 128,-1,13
 84 160 84 160 84 219 c 0,14,15
 84 289 84 289 108 343.5 c 128,-1,16
 132 398 132 398 183 444 c 1,17,18
 143 496 143 496 121.5 558 c 128,-1,19
 100 620 100 620 100 688 c 0,20,21
 100 773 100 773 138.5 840 c 128,-1,22
 177 907 177 907 238.5 954.5 c 128,-1,23
 300 1002 300 1002 377 1027 c 128,-1,24
 454 1052 454 1052 530 1052 c 0,25,26
 589 1052 589 1052 647 1040 c 128,-1,27
 705 1028 705 1028 759 1004 c 1,28,-1
 892 1128 l 1,29,-1
 1058 966 l 1,30,-1
 917 852 l 1,31,32
 942 809 942 809 951.5 760.5 c 128,-1,33
 961 712 961 712 961 663 c 0,34,35
 961 577 961 577 924.5 507 c 128,-1,36
 888 437 888 437 828 389 c 128,-1,37
 768 341 768 341 691.5 314.5 c 128,-1,38
 615 288 615 288 536 288 c 0,39,40
 434 288 434 288 341 326 c 1,41,42
 329 318 329 318 323 306 c 128,-1,43
 317 294 317 294 317 280 c 0,44,45
 317 254 317 254 334 239.5 c 128,-1,46
 351 225 351 225 374.5 217 c 128,-1,47
 398 209 398 209 423 207 c 128,-1,48
 448 205 448 205 467 204 c 0,49,50
 520 200 520 200 572 192.5 c 128,-1,51
 624 185 624 185 677 176 c 0,52,53
 747 166 747 166 810.5 148.5 c 128,-1,54
 874 131 874 131 920.5 97.5 c 128,-1,55
 967 64 967 64 994.5 9.5 c 128,-1,56
 1022 -45 1022 -45 1022 -130 c 0,57,58
 1022 -197 1022 -197 1002.5 -248.5 c 128,-1,59
 983 -300 983 -300 949 -339 c 128,-1,60
 915 -378 915 -378 869 -404.5 c 128,-1,61
 823 -431 823 -431 770 -447.5 c 128,-1,62
 717 -464 717 -464 661 -471 c 128,-1,63
 605 -478 605 -478 550 -478 c 0,0,1
539 513 m 0,64,65
 614 513 614 513 652.5 557 c 128,-1,66
 691 601 691 601 691 673 c 0,67,68
 691 708 691 708 681 738.5 c 128,-1,69
 671 769 671 769 651.5 792 c 128,-1,70
 632 815 632 815 604 828 c 128,-1,71
 576 841 576 841 539 841 c 256,72,73
 502 841 502 841 473 828.5 c 128,-1,74
 444 816 444 816 424 793.5 c 128,-1,75
 404 771 404 771 393.5 740.5 c 128,-1,76
 383 710 383 710 383 673 c 0,77,78
 383 637 383 637 394 608 c 128,-1,79
 405 579 405 579 425.5 557.5 c 128,-1,80
 446 536 446 536 475 524.5 c 128,-1,81
 504 513 504 513 539 513 c 0,64,65
561 -267 m 0,82,83
 586 -267 586 -267 619.5 -264 c 128,-1,84
 653 -261 653 -261 685 -250 c 128,-1,85
 717 -239 717 -239 739 -219 c 128,-1,86
 761 -199 761 -199 761 -164 c 0,87,88
 761 -148 761 -148 756 -138 c 128,-1,89
 751 -128 751 -128 738 -118 c 0,90,91
 726 -109 726 -109 705 -102.5 c 128,-1,92
 684 -96 684 -96 660.5 -92.5 c 128,-1,93
 637 -89 637 -89 613.5 -87 c 128,-1,94
 590 -85 590 -85 575 -84 c 0,95,96
 513 -79 513 -79 453.5 -70 c 128,-1,97
 394 -61 394 -61 333 -48 c 1,98,-1
 303 -117 l 1,99,100
 311 -165 311 -165 337.5 -194.5 c 128,-1,101
 364 -224 364 -224 400.5 -240.5 c 128,-1,102
 437 -257 437 -257 479 -262 c 128,-1,103
 521 -267 521 -267 561 -267 c 0,82,83
EndSplineSet
Substitution2: "'ss01' Style Set 1 lookup 16 subtable" g.ss01
AlternateSubs2: "'salt' Stylistic Alternatives lookup 15 subtable" g.ss01
Substitution2: "'aalt' Access All Alternates lookup 0 subtable" g.ss01
EndChar

StartChar: h
Encoding: 104 104 75
Width: 1198
GlyphClass: 1
Flags: W
LayerCount: 2
Fore
SplineSet
1097 0 m 1,0,-1
 819 0 l 1,1,-1
 819 592 l 2,2,3
 819 636 819 636 813.5 674.5 c 128,-1,4
 808 713 808 713 791 740.5 c 128,-1,5
 774 768 774 768 743.5 784.5 c 128,-1,6
 713 801 713 801 661 801 c 0,7,8
 591 801 591 801 545 772 c 128,-1,9
 499 743 499 743 472.5 696 c 128,-1,10
 446 649 446 649 435.5 590.5 c 128,-1,11
 425 532 425 532 425 473 c 2,12,-1
 425 0 l 1,13,-1
 146 0 l 1,14,-1
 146 1413 l 1,15,-1
 425 1413 l 1,16,-1
 425 938 l 1,17,18
 484 1002 484 1002 557 1029 c 128,-1,19
 630 1056 630 1056 717 1056 c 0,20,21
 810 1056 810 1056 881.5 1020.5 c 128,-1,22
 953 985 953 985 1000.5 925.5 c 128,-1,23
 1048 866 1048 866 1072.5 786.5 c 128,-1,24
 1097 707 1097 707 1097 618 c 2,25,-1
 1097 0 l 1,0,-1
EndSplineSet
EndChar

StartChar: i
Encoding: 105 105 76
Width: 546
GlyphClass: 1
Flags: W
LayerCount: 2
Fore
SplineSet
383 0 m 1,0,-1
 138 0 l 1,1,-1
 138 1039 l 1,2,-1
 383 1039 l 1,3,-1
 383 0 l 1,0,-1
383 1178 m 1,4,-1
 138 1178 l 1,5,-1
 138 1413 l 1,6,-1
 383 1413 l 1,7,-1
 383 1178 l 1,4,-1
EndSplineSet
Substitution2: "'locl' Localized Forms in Latin lookup 5 subtable" i.loclTRK
Substitution2: "Single Substitution lookup 2 subtable" dotlessi
Substitution2: "'aalt' Access All Alternates lookup 0 subtable" i.loclTRK
EndChar

StartChar: j
Encoding: 106 106 77
Width: 566
GlyphClass: 1
Flags: W
LayerCount: 2
Fore
SplineSet
435 1149 m 1,0,-1
 153 1149 l 1,1,-1
 153 1411 l 1,2,-1
 435 1411 l 1,3,-1
 435 1149 l 1,0,-1
117 -438 m 0,4,5
 69 -438 69 -438 22.5 -429.5 c 128,-1,6
 -24 -421 -24 -421 -69 -406 c 1,7,8
 -48 -346 -48 -346 -31 -285 c 128,-1,9
 -14 -224 -14 -224 6 -164 c 1,10,11
 25 -173 25 -173 45.5 -180 c 128,-1,12
 66 -187 66 -187 88 -187 c 0,13,14
 113 -187 113 -187 126.5 -175 c 128,-1,15
 140 -163 140 -163 147 -145 c 128,-1,16
 154 -127 154 -127 155 -106.5 c 128,-1,17
 156 -86 156 -86 156 -68 c 0,18,19
 156 -30 156 -30 152.5 6.5 c 128,-1,20
 149 43 149 43 149 81 c 2,21,-1
 149 999 l 1,22,-1
 423 999 l 1,23,-1
 423 -88 l 2,24,25
 423 -160 423 -160 404.5 -223.5 c 128,-1,26
 386 -287 386 -287 349 -334.5 c 128,-1,27
 312 -382 312 -382 254 -410 c 128,-1,28
 196 -438 196 -438 117 -438 c 0,4,5
EndSplineSet
Substitution2: "Single Substitution lookup 2 subtable" uni0237
EndChar

StartChar: k
Encoding: 107 107 78
Width: 1169
GlyphClass: 1
Flags: W
LayerCount: 2
Fore
SplineSet
1193 0 m 1,0,-1
 859 0 l 1,1,-1
 558 461 l 1,2,-1
 417 306 l 1,3,-1
 417 0 l 1,4,-1
 144 0 l 1,5,-1
 145 1413 l 1,6,-1
 417 1413 l 1,7,-1
 417 643 l 1,8,-1
 787 1039 l 1,9,-1
 1159 1039 l 1,10,-1
 755 630 l 1,11,-1
 1193 0 l 1,0,-1
EndSplineSet
EndChar

StartChar: l
Encoding: 108 108 79
Width: 595
GlyphClass: 1
Flags: W
LayerCount: 2
Fore
SplineSet
370 -20 m 0,0,1
 250 -20 250 -20 193 33.5 c 128,-1,2
 136 87 136 87 136 207 c 2,3,-1
 136 1413 l 1,4,-1
 409 1413 l 1,5,-1
 409 302 l 2,6,7
 409 262 409 262 433 244 c 128,-1,8
 457 226 457 226 497 226 c 0,9,10
 514 226 514 226 529.5 228 c 128,-1,11
 545 230 545 230 562 232 c 1,12,-1
 562 0 l 1,13,14
 465 -20 465 -20 370 -20 c 0,0,1
EndSplineSet
EndChar

StartChar: m
Encoding: 109 109 80
Width: 1784
GlyphClass: 1
Flags: W
LayerCount: 2
Fore
SplineSet
1681 0 m 1,0,-1
 1403 0 l 1,1,-1
 1403 592 l 2,2,3
 1403 632 1403 632 1397 669.5 c 128,-1,4
 1391 707 1391 707 1375 736 c 128,-1,5
 1359 765 1359 765 1330 782.5 c 128,-1,6
 1301 800 1301 800 1253 800 c 0,7,8
 1204 800 1204 800 1166 781.5 c 128,-1,9
 1128 763 1128 763 1102 731.5 c 128,-1,10
 1076 700 1076 700 1062.5 658.5 c 128,-1,11
 1049 617 1049 617 1049 570 c 2,12,-1
 1049 0 l 1,13,-1
 771 0 l 1,14,-1
 771 596 l 2,15,16
 771 637 771 637 766 674.5 c 128,-1,17
 761 712 761 712 744.5 739.5 c 128,-1,18
 728 767 728 767 698.5 783.5 c 128,-1,19
 669 800 669 800 621 800 c 256,20,21
 573 800 573 800 535.5 781 c 128,-1,22
 498 762 498 762 472 730.5 c 128,-1,23
 446 699 446 699 432.5 657.5 c 128,-1,24
 419 616 419 616 419 570 c 2,25,-1
 419 0 l 1,26,-1
 144 0 l 1,27,-1
 144 1039 l 1,28,-1
 419 1039 l 1,29,-1
 419 956 l 1,30,31
 520 1058 520 1058 666 1058 c 0,32,33
 759 1058 759 1058 827.5 1023.5 c 128,-1,34
 896 989 896 989 954 919 c 1,35,36
 987 956 987 956 1027 982 c 128,-1,37
 1067 1008 1067 1008 1112.5 1024.5 c 128,-1,38
 1158 1041 1158 1041 1206.5 1048.5 c 128,-1,39
 1255 1056 1255 1056 1303 1056 c 0,40,41
 1392 1056 1392 1056 1462 1021.5 c 128,-1,42
 1532 987 1532 987 1580.5 929 c 128,-1,43
 1629 871 1629 871 1655 794 c 128,-1,44
 1681 717 1681 717 1681 631 c 2,45,-1
 1681 0 l 1,0,-1
EndSplineSet
EndChar

StartChar: n
Encoding: 110 110 81
Width: 1197
GlyphClass: 1
Flags: W
LayerCount: 2
Fore
SplineSet
1096 0 m 1,0,-1
 817 0 l 1,1,-1
 817 592 l 2,2,3
 817 635 817 635 811.5 673 c 128,-1,4
 806 711 806 711 789.5 739.5 c 128,-1,5
 773 768 773 768 742 784.5 c 128,-1,6
 711 801 711 801 660 801 c 0,7,8
 587 801 587 801 540.5 771.5 c 128,-1,9
 494 742 494 742 467.5 694.5 c 128,-1,10
 441 647 441 647 431.5 587 c 128,-1,11
 422 527 422 527 422 466 c 2,12,-1
 422 0 l 1,13,-1
 144 0 l 1,14,-1
 144 1039 l 1,15,-1
 422 1039 l 1,16,-1
 422 936 l 1,17,18
 479 997 479 997 556 1026.5 c 128,-1,19
 633 1056 633 1056 717 1056 c 0,20,21
 809 1056 809 1056 879.5 1020.5 c 128,-1,22
 950 985 950 985 998.5 926 c 128,-1,23
 1047 867 1047 867 1071.5 788 c 128,-1,24
 1096 709 1096 709 1096 622 c 2,25,-1
 1096 0 l 1,0,-1
EndSplineSet
EndChar

StartChar: o
Encoding: 111 111 82
Width: 1150
GlyphClass: 1
Flags: W
LayerCount: 2
Fore
SplineSet
560 -20 m 0,0,1
 447 -20 447 -20 352 22.5 c 128,-1,2
 257 65 257 65 188 139 c 128,-1,3
 119 213 119 213 80.5 312 c 128,-1,4
 42 411 42 411 42 524 c 0,5,6
 42 605 42 605 64 679.5 c 128,-1,7
 86 754 86 754 128 817.5 c 128,-1,8
 170 881 170 881 229 930.5 c 128,-1,9
 288 980 288 980 361 1010 c 0,10,11
 419 1034 419 1034 473.5 1043 c 128,-1,12
 528 1052 528 1052 591 1052 c 0,13,14
 670 1052 670 1052 744 1029 c 128,-1,15
 818 1006 818 1006 880.5 964 c 128,-1,16
 943 922 943 922 992.5 861.5 c 128,-1,17
 1042 801 1042 801 1071 726 c 0,18,19
 1092 673 1092 673 1100.5 617.5 c 128,-1,20
 1109 562 1109 562 1109 505 c 0,21,22
 1109 436 1109 436 1091.5 369.5 c 128,-1,23
 1074 303 1074 303 1041 244 c 128,-1,24
 1008 185 1008 185 961 135.5 c 128,-1,25
 914 86 914 86 855 52 c 0,26,27
 784 9 784 9 712.5 -5.5 c 128,-1,28
 641 -20 641 -20 560 -20 c 0,0,1
575 214 m 256,29,30
 642 214 642 214 690 237.5 c 128,-1,31
 738 261 738 261 768.5 302.5 c 128,-1,32
 799 344 799 344 813.5 399 c 128,-1,33
 828 454 828 454 828 516 c 0,34,35
 828 579 828 579 813.5 633.5 c 128,-1,36
 799 688 799 688 768.5 729 c 128,-1,37
 738 770 738 770 690 793 c 128,-1,38
 642 816 642 816 575 816 c 0,39,40
 509 816 509 816 462 792.5 c 128,-1,41
 415 769 415 769 384 728 c 128,-1,42
 353 687 353 687 338 632.5 c 128,-1,43
 323 578 323 578 323 516 c 0,44,45
 323 453 323 453 337.5 398 c 128,-1,46
 352 343 352 343 382 302 c 128,-1,47
 412 261 412 261 460 237.5 c 128,-1,48
 508 214 508 214 575 214 c 256,29,30
EndSplineSet
Substitution2: "Single Substitution lookup 3 subtable" ordmasculine
Substitution2: "Single Substitution lookup 2 subtable" ordmasculine
EndChar

StartChar: p
Encoding: 112 112 83
Width: 1201
GlyphClass: 1
Flags: W
LayerCount: 2
Fore
SplineSet
424 -438 m 1,0,-1
 146 -438 l 1,1,-1
 146 1039 l 1,2,-1
 424 1039 l 1,3,-1
 424 950 l 1,4,5
 480 1012 480 1012 553.5 1036 c 128,-1,6
 627 1060 627 1060 709 1060 c 0,7,8
 785 1060 785 1060 847 1038.5 c 128,-1,9
 909 1017 909 1017 958.5 978.5 c 128,-1,10
 1008 940 1008 940 1044.5 888 c 128,-1,11
 1081 836 1081 836 1105.5 775 c 128,-1,12
 1130 714 1130 714 1142 647 c 128,-1,13
 1154 580 1154 580 1154 511 c 0,14,15
 1154 410 1154 410 1125 314.5 c 128,-1,16
 1096 219 1096 219 1039.5 144.5 c 128,-1,17
 983 70 983 70 899.5 25 c 128,-1,18
 816 -20 816 -20 707 -20 c 0,19,20
 629 -20 629 -20 553 5.5 c 128,-1,21
 477 31 477 31 424 89 c 1,22,-1
 424 -438 l 1,0,-1
638 234 m 0,23,24
 701 234 701 234 746.5 256 c 128,-1,25
 792 278 792 278 820.5 316.5 c 128,-1,26
 849 355 849 355 862.5 407.5 c 128,-1,27
 876 460 876 460 876 520 c 256,28,29
 876 580 876 580 863 633.5 c 128,-1,30
 850 687 850 687 821.5 727.5 c 128,-1,31
 793 768 793 768 748 791 c 128,-1,32
 703 814 703 814 638 814 c 256,33,34
 573 814 573 814 528 791 c 128,-1,35
 483 768 483 768 454.5 727.5 c 128,-1,36
 426 687 426 687 413 633.5 c 128,-1,37
 400 580 400 580 400 520 c 0,38,39
 400 458 400 458 413 405.5 c 128,-1,40
 426 353 426 353 454 315 c 128,-1,41
 482 277 482 277 527.5 255.5 c 128,-1,42
 573 234 573 234 638 234 c 0,23,24
EndSplineSet
EndChar

StartChar: q
Encoding: 113 113 84
Width: 1198
GlyphClass: 1
Flags: W
LayerCount: 2
Fore
SplineSet
1061 -438 m 1,0,-1
 786 -438 l 1,1,-1
 786 89 l 1,2,3
 760 58 760 58 726.5 37 c 128,-1,4
 693 16 693 16 656.5 3 c 128,-1,5
 620 -10 620 -10 580 -15 c 128,-1,6
 540 -20 540 -20 501 -20 c 0,7,8
 423 -20 423 -20 356.5 4.5 c 128,-1,9
 290 29 290 29 236.5 73 c 128,-1,10
 183 117 183 117 144.5 178.5 c 128,-1,11
 106 240 106 240 84 313 c 0,12,13
 68 367 68 367 61.5 420.5 c 128,-1,14
 55 474 55 474 55 530 c 0,15,16
 55 631 55 631 84.5 726.5 c 128,-1,17
 114 822 114 822 170.5 896 c 128,-1,18
 227 970 227 970 310.5 1015 c 128,-1,19
 394 1060 394 1060 503 1060 c 0,20,21
 541 1060 541 1060 580.5 1054 c 128,-1,22
 620 1048 620 1048 657 1034.5 c 128,-1,23
 694 1021 694 1021 727.5 1000 c 128,-1,24
 761 979 761 979 786 950 c 1,25,-1
 786 1039 l 1,26,-1
 1061 1039 l 1,27,-1
 1061 -438 l 1,0,-1
572 234 m 256,28,29
 636 234 636 234 681.5 256 c 128,-1,30
 727 278 727 278 755 316.5 c 128,-1,31
 783 355 783 355 796 407.5 c 128,-1,32
 809 460 809 460 809 520 c 0,33,34
 809 581 809 581 796 633.5 c 128,-1,35
 783 686 783 686 755 726 c 128,-1,36
 727 766 727 766 681.5 788.5 c 128,-1,37
 636 811 636 811 572 811 c 0,38,39
 509 811 509 811 463 788 c 128,-1,40
 417 765 417 765 388 725.5 c 128,-1,41
 359 686 359 686 345.5 633 c 128,-1,42
 332 580 332 580 332 520 c 0,43,44
 332 459 332 459 345.5 406 c 128,-1,45
 359 353 359 353 387.5 315 c 128,-1,46
 416 277 416 277 462 255.5 c 128,-1,47
 508 234 508 234 572 234 c 256,28,29
EndSplineSet
EndChar

StartChar: r
Encoding: 114 114 85
Width: 839
GlyphClass: 1
Flags: W
LayerCount: 2
Fore
SplineSet
406 0 m 1,0,-1
 144 0 l 1,1,-1
 144 1039 l 1,2,-1
 408 1039 l 1,3,-1
 408 879 l 1,4,5
 422 916 422 916 444.5 948 c 128,-1,6
 467 980 467 980 497 1003.5 c 128,-1,7
 527 1027 527 1027 564 1040.5 c 128,-1,8
 601 1054 601 1054 644 1054 c 0,9,10
 705 1054 705 1054 767.5 1037 c 128,-1,11
 830 1020 830 1020 877 982 c 1,12,13
 844 925 844 925 810 869.5 c 128,-1,14
 776 814 776 814 741 757 c 1,15,16
 717 779 717 779 691.5 784.5 c 128,-1,17
 666 790 666 790 634 790 c 0,18,19
 579 790 579 790 536.5 763 c 128,-1,20
 494 736 494 736 465 694.5 c 128,-1,21
 436 653 436 653 421 601.5 c 128,-1,22
 406 550 406 550 406 500 c 2,23,-1
 406 0 l 1,0,-1
EndSplineSet
EndChar

StartChar: s
Encoding: 115 115 86
Width: 941
GlyphClass: 1
Flags: W
LayerCount: 2
Fore
SplineSet
468 -21 m 0,0,1
 324 -21 324 -21 206 50 c 0,2,3
 78 126 78 126 32 254 c 1,4,5
 103 289 103 289 246 363 c 1,6,7
 309 202 309 202 450 202 c 0,8,9
 506 202 506 202 543 223 c 0,10,11
 611 262 611 262 611 318 c 0,12,13
 611 366 611 366 530 390 c 0,14,15
 494 401 494 401 447.5 410.5 c 128,-1,16
 401 420 401 420 352.5 433 c 128,-1,17
 304 446 304 446 257.5 466.5 c 128,-1,18
 211 487 211 487 174 521 c 0,19,20
 72 616 72 616 72 728 c 0,21,22
 72 892 72 892 202 980 c 0,23,24
 312 1055 312 1055 457 1055 c 256,25,26
 602 1055 602 1055 697.5 1006.5 c 128,-1,27
 793 958 793 958 859 855 c 1,28,29
 815 828 815 828 657 725 c 1,30,31
 588 840 588 840 460 840 c 0,32,33
 334 840 334 840 334 773 c 0,34,35
 334 753 334 753 425 711 c 0,36,37
 453 698 453 698 481 689.5 c 128,-1,38
 509 681 509 681 542 671 c 128,-1,39
 575 661 575 661 627 647 c 128,-1,40
 679 633 679 633 724 610 c 0,41,42
 880 528 880 528 880 341 c 0,43,44
 880 171 880 171 752 70 c 0,45,46
 637 -21 637 -21 468 -21 c 0,0,1
EndSplineSet
Substitution2: "'hist' Historical Forms lookup 20 subtable" longs
Substitution2: "'aalt' Access All Alternates lookup 0 subtable" longs
EndChar

StartChar: t
Encoding: 116 116 87
Width: 796
GlyphClass: 1
Flags: W
LayerCount: 2
Fore
SplineSet
531 -20 m 0,0,1
 461 -20 461 -20 398 0 c 128,-1,2
 335 20 335 20 288.5 59.5 c 128,-1,3
 242 99 242 99 215 157.5 c 128,-1,4
 188 216 188 216 188 294 c 2,5,-1
 188 809 l 1,6,-1
 20 809 l 1,7,-1
 20 1039 l 1,8,-1
 193 1039 l 1,9,-1
 193 1271 l 1,10,11
 258 1313 258 1313 321 1354.5 c 128,-1,12
 384 1396 384 1396 448 1439 c 1,13,-1
 448 1039 l 1,14,-1
 721 1039 l 1,15,-1
 721 809 l 1,16,-1
 448 809 l 1,17,-1
 448 344 l 2,18,19
 448 280 448 280 480.5 252 c 128,-1,20
 513 224 513 224 572 224 c 0,21,22
 614 224 614 224 653.5 235.5 c 128,-1,23
 693 247 693 247 729 266 c 1,24,-1
 729 13 l 1,25,26
 682 -4 682 -4 631.5 -12 c 128,-1,27
 581 -20 581 -20 531 -20 c 0,0,1
EndSplineSet
EndChar

StartChar: u
Encoding: 117 117 88
Width: 1198
GlyphClass: 1
Flags: W
LayerCount: 2
Fore
SplineSet
490 -23 m 0,0,1
 398 -23 398 -23 327.5 14 c 128,-1,2
 257 51 257 51 208.5 112.5 c 128,-1,3
 160 174 160 174 135 254 c 128,-1,4
 110 334 110 334 110 421 c 2,5,-1
 110 1039 l 1,6,-1
 388 1039 l 1,7,-1
 388 441 l 2,8,9
 388 392 388 392 396.5 354.5 c 128,-1,10
 405 317 405 317 425.5 291.5 c 128,-1,11
 446 266 446 266 480.5 253.5 c 128,-1,12
 515 241 515 241 567 241 c 0,13,14
 639 241 639 241 682 266.5 c 128,-1,15
 725 292 725 292 748 333.5 c 128,-1,16
 771 375 771 375 778.5 430 c 128,-1,17
 786 485 786 485 786 545 c 2,18,-1
 786 1039 l 1,19,-1
 1065 1039 l 1,20,-1
 1065 0 l 1,21,-1
 786 0 l 1,22,-1
 786 101 l 1,23,24
 728 35 728 35 652.5 6 c 128,-1,25
 577 -23 577 -23 490 -23 c 0,0,1
EndSplineSet
EndChar

StartChar: v
Encoding: 118 118 89
Width: 1057
GlyphClass: 1
Flags: W
LayerCount: 2
Fore
SplineSet
643 0 m 1,0,-1
 412 0 l 1,1,-1
 -23 1039 l 1,2,-1
 287 1039 l 1,3,-1
 528 367 l 1,4,-1
 770 1039 l 1,5,-1
 1080 1039 l 1,6,-1
 643 0 l 1,0,-1
EndSplineSet
EndChar

StartChar: w
Encoding: 119 119 90
Width: 1540
GlyphClass: 1
Flags: W
LayerCount: 2
Fore
SplineSet
578 -5 m 1,0,-1
 326 -5 l 1,1,-1
 -2 1039 l 1,2,-1
 301 1039 l 1,3,-1
 466 445 l 1,4,-1
 650 1039 l 1,5,-1
 890 1039 l 1,6,-1
 1072 447 l 1,7,-1
 1242 1039 l 1,8,-1
 1544 1039 l 1,9,-1
 1214 0 l 1,10,-1
 962 0 l 1,11,-1
 769 630 l 1,12,-1
 578 -5 l 1,0,-1
EndSplineSet
EndChar

StartChar: x
Encoding: 120 120 91
Width: 1106
GlyphClass: 1
Flags: W
LayerCount: 2
Fore
SplineSet
1108 0 m 1,0,-1
 758 0 l 1,1,-1
 551 336 l 1,2,-1
 344 0 l 1,3,-1
 -1 0 l 1,4,-1
 356 524 l 1,5,-1
 -1 1039 l 1,6,-1
 344 1039 l 1,7,-1
 551 710 l 1,8,-1
 758 1039 l 1,9,-1
 1108 1039 l 1,10,-1
 747 524 l 1,11,-1
 1108 0 l 1,0,-1
EndSplineSet
EndChar

StartChar: y
Encoding: 121 121 92
Width: 1093
GlyphClass: 1
Flags: W
LayerCount: 2
Fore
SplineSet
505 -430 m 1,0,-1
 193 -430 l 1,1,-1
 389 47 l 1,2,-1
 -20 1039 l 1,3,-1
 292 1039 l 1,4,-1
 542 365 l 1,5,-1
 799 1039 l 1,6,-1
 1112 1039 l 1,7,-1
 505 -430 l 1,0,-1
EndSplineSet
EndChar

StartChar: z
Encoding: 122 122 93
Width: 1063
GlyphClass: 1
Flags: W
LayerCount: 2
Fore
SplineSet
998 0 m 1,0,-1
 51 0 l 1,1,-1
 51 177 l 1,2,-1
 623 809 l 1,3,-1
 81 809 l 1,4,-1
 81 1039 l 1,5,-1
 998 1039 l 1,6,-1
 998 849 l 1,7,-1
 452 229 l 1,8,-1
 998 229 l 1,9,-1
 998 0 l 1,0,-1
EndSplineSet
EndChar

StartChar: braceleft
Encoding: 123 123 94
Width: 624
GlyphClass: 1
Flags: W
LayerCount: 2
Fore
SplineSet
507 -167 m 2,0,-1
 409 -167 l 2,1,2
 333 -167 333 -167 285.5 -138.5 c 128,-1,3
 238 -110 238 -110 211.5 -63 c 128,-1,4
 185 -16 185 -16 175.5 44 c 128,-1,5
 166 104 166 104 166 167 c 0,6,7
 166 178 166 178 170 190.5 c 128,-1,8
 174 203 174 203 174 215 c 2,9,-1
 174 491 l 2,10,11
 174 520 174 520 161.5 536.5 c 128,-1,12
 149 553 149 553 129.5 563 c 128,-1,13
 110 573 110 573 87 579 c 128,-1,14
 64 585 64 585 43 594 c 1,15,-1
 43 768 l 1,16,17
 72 779 72 779 96 789 c 128,-1,18
 120 799 120 799 137 813.5 c 128,-1,19
 154 828 154 828 164 849.5 c 128,-1,20
 174 871 174 871 174 905 c 2,21,-1
 174 1331 l 2,22,23
 174 1461 174 1461 236 1531.5 c 128,-1,24
 298 1602 298 1602 431 1602 c 2,25,-1
 525 1602 l 2,26,27
 536 1602 536 1602 551 1600.5 c 128,-1,28
 566 1599 566 1599 577 1597 c 1,29,-1
 577 1410 l 1,30,31
 545 1421 545 1421 511.5 1424.5 c 128,-1,32
 478 1428 478 1428 444 1428 c 0,33,34
 430 1428 430 1428 416.5 1424 c 128,-1,35
 403 1420 403 1420 403 1402 c 2,36,-1
 403 891 l 2,37,38
 403 816 403 816 369.5 764.5 c 128,-1,39
 336 713 336 713 274 675 c 1,40,41
 298 664 298 664 321.5 645.5 c 128,-1,42
 345 627 345 627 363 603 c 128,-1,43
 381 579 381 579 392 552 c 128,-1,44
 403 525 403 525 403 497 c 2,45,-1
 403 136 l 2,46,47
 403 113 403 113 407 91 c 128,-1,48
 411 69 411 69 421.5 52 c 128,-1,49
 432 35 432 35 449.5 24.5 c 128,-1,50
 467 14 467 14 494 14 c 0,51,52
 515 14 515 14 536 17 c 128,-1,53
 557 20 557 20 577 25 c 1,54,-1
 577 -162 l 1,55,56
 560 -162 560 -162 542 -164.5 c 128,-1,57
 524 -167 524 -167 507 -167 c 2,0,-1
EndSplineSet
EndChar

StartChar: bar
Encoding: 124 124 95
Width: 623
GlyphClass: 1
Flags: W
LayerCount: 2
Fore
SplineSet
412 -512 m 1,0,-1
 210 -512 l 1,1,-1
 210 1534 l 1,2,-1
 412 1534 l 1,3,-1
 412 -512 l 1,0,-1
EndSplineSet
EndChar

StartChar: braceright
Encoding: 125 125 96
Width: 624
GlyphClass: 1
Flags: W
LayerCount: 2
Fore
SplineSet
215 -167 m 2,0,-1
 143 -167 l 2,1,2
 119 -167 119 -167 95 -164.5 c 128,-1,3
 71 -162 71 -162 47 -162 c 1,4,-1
 47 25 l 1,5,6
 67 20 67 20 88.5 17 c 128,-1,7
 110 14 110 14 131 14 c 0,8,9
 159 14 159 14 176.5 24 c 128,-1,10
 194 34 194 34 204 51 c 128,-1,11
 214 68 214 68 217.5 90 c 128,-1,12
 221 112 221 112 221 136 c 2,13,-1
 221 497 l 2,14,15
 221 527 221 527 232 553.5 c 128,-1,16
 243 580 243 580 261 602.5 c 128,-1,17
 279 625 279 625 302.5 643.5 c 128,-1,18
 326 662 326 662 351 675 c 1,19,20
 288 714 288 714 254.5 764.5 c 128,-1,21
 221 815 221 815 221 891 c 2,22,-1
 221 1402 l 2,23,24
 221 1419 221 1419 209 1423 c 128,-1,25
 197 1427 197 1427 183 1427 c 0,26,27
 148 1427 148 1427 114.5 1422.5 c 128,-1,28
 81 1418 81 1418 47 1410 c 1,29,-1
 47 1597 l 1,30,31
 58 1599 58 1599 73.5 1600.5 c 128,-1,32
 89 1602 89 1602 100 1602 c 2,33,-1
 192 1602 l 2,34,35
 327 1602 327 1602 388.5 1532 c 128,-1,36
 450 1462 450 1462 450 1331 c 2,37,-1
 450 905 l 2,38,39
 450 870 450 870 460 848.5 c 128,-1,40
 470 827 470 827 487.5 812.5 c 128,-1,41
 505 798 505 798 529 788.5 c 128,-1,42
 553 779 553 779 581 768 c 1,43,-1
 581 594 l 1,44,-1
 579 593 l 2,45,46
 568 588 568 588 557 584.5 c 128,-1,47
 546 581 546 581 535 576 c 2,48,-1
 531 574 l 2,49,50
 517 568 517 568 502.5 561 c 128,-1,51
 488 554 488 554 476.5 544.5 c 128,-1,52
 465 535 465 535 457.5 522 c 128,-1,53
 450 509 450 509 450 491 c 2,54,-1
 450 134 l 2,55,56
 450 76 450 76 438.5 21.5 c 128,-1,57
 427 -33 427 -33 400 -75 c 128,-1,58
 373 -117 373 -117 328 -142 c 128,-1,59
 283 -167 283 -167 215 -167 c 2,0,-1
EndSplineSet
EndChar

StartChar: asciitilde
Encoding: 126 126 97
Width: 1156
GlyphClass: 1
Flags: W
LayerCount: 2
Fore
SplineSet
619 376 m 0,0,1
 602 376 602 376 571 389 c 128,-1,2
 540 402 540 402 507 417.5 c 128,-1,3
 474 433 474 433 444.5 446 c 128,-1,4
 415 459 415 459 400 459 c 0,5,6
 382 459 382 459 372.5 457 c 128,-1,7
 363 455 363 455 358.5 449.5 c 128,-1,8
 354 444 354 444 353 433.5 c 128,-1,9
 352 423 352 423 352 406 c 1,10,-1
 160 406 l 1,11,12
 160 526 160 526 218.5 588.5 c 128,-1,13
 277 651 277 651 398 651 c 0,14,15
 436 651 436 651 474 648 c 128,-1,16
 512 645 512 645 549 637 c 0,17,18
 570 632 570 632 597 622 c 2,19,-1
 599 621 l 2,20,21
 602 619 602 619 604.5 617.5 c 128,-1,22
 607 616 607 616 611 616 c 2,23,-1
 635 606 l 2,24,25
 638 606 638 606 643 603 c 2,26,-1
 647 601 l 1,27,-1
 650 601 l 1,28,29
 676 590 676 590 700.5 582 c 128,-1,30
 725 574 725 574 741 574 c 0,31,32
 764 574 764 574 775 578.5 c 128,-1,33
 786 583 786 583 790.5 591.5 c 128,-1,34
 795 600 795 600 795 614 c 2,35,-1
 795 645 l 1,36,-1
 995 645 l 1,37,38
 995 546 995 546 966 492 c 128,-1,39
 937 438 937 438 886.5 412 c 128,-1,40
 836 386 836 386 767.5 381 c 128,-1,41
 699 376 699 376 619 376 c 0,0,1
EndSplineSet
EndChar

StartChar: exclamdown
Encoding: 161 161 99
Width: 637
GlyphClass: 1
Flags: W
LayerCount: 2
Fore
SplineSet
463 713 m 1,0,-1
 174 713 l 1,1,-1
 174 999 l 1,2,-1
 463 999 l 1,3,-1
 463 713 l 1,0,-1
450 -434 m 1,4,-1
 187 -434 l 1,5,-1
 215 556 l 1,6,-1
 422 556 l 1,7,-1
 450 -434 l 1,4,-1
EndSplineSet
EndChar

StartChar: cent
Encoding: 162 162 100
Width: 1110
GlyphClass: 1
Flags: W
LayerCount: 2
Fore
SplineSet
680 -205 m 1,0,-1
 478 -205 l 1,1,-1
 478 -22 l 1,2,3
 380 -6 380 -6 308.5 45 c 128,-1,4
 237 96 237 96 190.5 168.5 c 128,-1,5
 144 241 144 241 121.5 329.5 c 128,-1,6
 99 418 99 418 99 509 c 0,7,8
 99 597 99 597 124 681 c 128,-1,9
 149 765 149 765 197.5 834 c 128,-1,10
 246 903 246 903 316.5 952 c 128,-1,11
 387 1001 387 1001 478 1017 c 1,12,-1
 478 1200 l 1,13,-1
 680 1200 l 1,14,-1
 680 1017 l 1,15,16
 748 1004 748 1004 801 978 c 128,-1,17
 854 952 854 952 896 913.5 c 128,-1,18
 938 875 938 875 971 825 c 128,-1,19
 1004 775 1004 775 1031 713 c 1,20,-1
 793 622 l 1,21,22
 781 667 781 667 765 701.5 c 128,-1,23
 749 736 749 736 725 759 c 128,-1,24
 701 782 701 782 666 794 c 128,-1,25
 631 806 631 806 581 806 c 0,26,27
 517 806 517 806 472.5 778.5 c 128,-1,28
 428 751 428 751 400.5 707 c 128,-1,29
 373 663 373 663 360.5 608 c 128,-1,30
 348 553 348 553 348 498 c 0,31,32
 348 442 348 442 359.5 386.5 c 128,-1,33
 371 331 371 331 398.5 287 c 128,-1,34
 426 243 426 243 470.5 215.5 c 128,-1,35
 515 188 515 188 581 188 c 0,36,37
 630 188 630 188 664 201 c 128,-1,38
 698 214 698 214 722 238 c 128,-1,39
 746 262 746 262 763 296 c 128,-1,40
 780 330 780 330 793 373 c 1,41,-1
 1017 285 l 1,42,43
 993 224 993 224 962.5 173 c 128,-1,44
 932 122 932 122 891.5 83 c 128,-1,45
 851 44 851 44 799 17.5 c 128,-1,46
 747 -9 747 -9 680 -21 c 1,47,-1
 680 -205 l 1,0,-1
EndSplineSet
EndChar

StartChar: sterling
Encoding: 163 163 101
Width: 1187
GlyphClass: 1
Flags: W
LayerCount: 2
Fore
SplineSet
1177 0 m 1,0,-1
 129 0 l 1,1,-1
 129 235 l 1,2,-1
 131 234 l 1,3,4
 146 235 146 235 172.5 249 c 128,-1,5
 199 263 199 263 228 281.5 c 128,-1,6
 257 300 257 300 282.5 319.5 c 128,-1,7
 308 339 308 339 320 351 c 0,8,9
 335 365 335 365 344.5 378 c 128,-1,10
 354 391 354 391 360 404.5 c 128,-1,11
 366 418 366 418 369.5 434 c 128,-1,12
 373 450 373 450 376 470 c 0,13,14
 377 475 377 475 377 482 c 256,15,16
 377 489 377 489 375.5 501.5 c 128,-1,17
 374 514 374 514 370.5 532 c 128,-1,18
 367 550 367 550 363 567 c 128,-1,19
 359 584 359 584 356 594 c 1,20,-1
 133 594 l 1,21,-1
 133 821 l 1,22,-1
 301 821 l 1,23,24
 292 835 292 835 286 866 c 128,-1,25
 280 897 280 897 276 932 c 128,-1,26
 272 967 272 967 270 1000 c 128,-1,27
 268 1033 268 1033 268 1050 c 0,28,29
 268 1146 268 1146 303.5 1220.5 c 128,-1,30
 339 1295 339 1295 399 1346 c 128,-1,31
 459 1397 459 1397 539.5 1423.5 c 128,-1,32
 620 1450 620 1450 710 1450 c 0,33,34
 785 1450 785 1450 850.5 1426 c 128,-1,35
 916 1402 916 1402 969 1359 c 128,-1,36
 1022 1316 1022 1316 1062 1258 c 128,-1,37
 1102 1200 1102 1200 1126 1131 c 1,38,-1
 915 1054 l 1,39,40
 903 1089 903 1089 884 1119.5 c 128,-1,41
 865 1150 865 1150 839.5 1173 c 128,-1,42
 814 1196 814 1196 781.5 1209 c 128,-1,43
 749 1222 749 1222 710 1222 c 0,44,45
 662 1222 662 1222 622.5 1212.5 c 128,-1,46
 583 1203 583 1203 555 1181.5 c 128,-1,47
 527 1160 527 1160 511.5 1124.5 c 128,-1,48
 496 1089 496 1089 496 1037 c 0,49,50
 496 1018 496 1018 499 988 c 128,-1,51
 502 958 502 958 507.5 926 c 128,-1,52
 513 894 513 894 520.5 865.5 c 128,-1,53
 528 837 528 837 537 821 c 1,54,-1
 1015 821 l 1,55,-1
 1015 594 l 1,56,-1
 588 594 l 1,57,58
 594 562 594 562 597 529 c 128,-1,59
 600 496 600 496 600 464 c 0,60,61
 600 433 600 433 594 398 c 128,-1,62
 588 363 588 363 575.5 330 c 128,-1,63
 563 297 563 297 542 270 c 128,-1,64
 521 243 521 243 491 227 c 1,65,-1
 1177 227 l 1,66,-1
 1177 0 l 1,0,-1
EndSplineSet
EndChar

StartChar: currency
Encoding: 164 164 102
Width: 1339
GlyphClass: 1
Flags: W
LayerCount: 2
Fore
SplineSet
1040 117 m 1,0,1
 1012 144 1012 144 985.5 172 c 128,-1,2
 959 200 959 200 931 227 c 1,3,4
 871 190 871 190 805.5 169 c 128,-1,5
 740 148 740 148 669 148 c 256,6,7
 598 148 598 148 532.5 168.5 c 128,-1,8
 467 189 467 189 407 227 c 1,9,10
 379 200 379 200 352.5 172 c 128,-1,11
 326 144 326 144 299 117 c 1,12,-1
 158 264 l 1,13,14
 186 290 186 290 212.5 316.5 c 128,-1,15
 239 343 239 343 266 369 c 1,16,17
 228 428 228 428 208 493 c 128,-1,18
 188 558 188 558 188 628 c 0,19,20
 188 700 188 700 208 766 c 128,-1,21
 228 832 228 832 266 892 c 1,22,23
 214 944 214 944 160 995 c 1,24,-1
 301 1141 l 1,25,-1
 409 1033 l 1,26,27
 467 1073 467 1073 535.5 1092.5 c 128,-1,28
 604 1112 604 1112 674 1112 c 0,29,30
 743 1112 743 1112 808 1092.5 c 128,-1,31
 873 1073 873 1073 931 1035 c 1,32,-1
 1038 1139 l 1,33,-1
 1182 999 l 1,34,-1
 1073 894 l 1,35,36
 1113 836 1113 836 1133 768.5 c 128,-1,37
 1153 701 1153 701 1153 631 c 0,38,39
 1153 486 1153 486 1073 367 c 1,40,-1
 1182 264 l 1,41,-1
 1040 117 l 1,0,1
669 346 m 0,42,43
 728 346 728 346 779.5 369 c 128,-1,44
 831 392 831 392 869.5 431.5 c 128,-1,45
 908 471 908 471 930 523.5 c 128,-1,46
 952 576 952 576 952 634 c 0,47,48
 952 693 952 693 929.5 743.5 c 128,-1,49
 907 794 907 794 869 831.5 c 128,-1,50
 831 869 831 869 779.5 890.5 c 128,-1,51
 728 912 728 912 670 912 c 0,52,53
 610 912 610 912 558.5 889.5 c 128,-1,54
 507 867 507 867 469 828.5 c 128,-1,55
 431 790 431 790 409 738 c 128,-1,56
 387 686 387 686 387 627 c 0,57,58
 387 570 387 570 409.5 518.5 c 128,-1,59
 432 467 432 467 470.5 429 c 128,-1,60
 509 391 509 391 560.5 368.5 c 128,-1,61
 612 346 612 346 669 346 c 0,42,43
EndSplineSet
EndChar

StartChar: yen
Encoding: 165 165 103
Width: 1328
GlyphClass: 1
Flags: W
LayerCount: 2
Fore
SplineSet
779 0 m 1,0,-1
 549 0 l 1,1,-1
 549 163 l 1,2,-1
 250 163 l 1,3,-1
 250 368 l 1,4,-1
 549 368 l 1,5,-1
 549 485 l 1,6,-1
 250 485 l 1,7,-1
 250 693 l 1,8,-1
 453 693 l 1,9,-1
 -19 1413 l 1,10,-1
 257 1413 l 1,11,-1
 664 752 l 1,12,-1
 1071 1413 l 1,13,-1
 1347 1413 l 1,14,-1
 874 690 l 1,15,-1
 1077 690 l 1,16,-1
 1077 485 l 1,17,-1
 779 485 l 1,18,-1
 779 368 l 1,19,-1
 1077 368 l 1,20,-1
 1077 163 l 1,21,-1
 779 163 l 1,22,-1
 779 0 l 1,0,-1
EndSplineSet
EndChar

StartChar: brokenbar
Encoding: 166 166 104
Width: 651
GlyphClass: 1
Flags: W
LayerCount: 2
Fore
SplineSet
440 731 m 1,0,-1
 210 731 l 1,1,-1
 210 1475 l 1,2,-1
 440 1475 l 1,3,-1
 440 731 l 1,0,-1
440 -307 m 1,4,-1
 210 -307 l 1,5,-1
 210 420 l 1,6,-1
 440 420 l 1,7,-1
 440 -307 l 1,4,-1
EndSplineSet
EndChar

StartChar: section
Encoding: 167 167 105
Width: 1108
GlyphClass: 1
Flags: W
LayerCount: 2
Fore
SplineSet
548 -18 m 0,0,1
 477 -18 477 -18 404.5 -0.5 c 128,-1,2
 332 17 332 17 271.5 53 c 128,-1,3
 211 89 211 89 167.5 145 c 128,-1,4
 124 201 124 201 112 279 c 1,5,-1
 374 357 l 1,6,7
 394 271 394 271 443.5 234.5 c 128,-1,8
 493 198 493 198 580 198 c 0,9,10
 603 198 603 198 633.5 201.5 c 128,-1,11
 664 205 664 205 691 215.5 c 128,-1,12
 718 226 718 226 737 245 c 128,-1,13
 756 264 756 264 756 295 c 0,14,15
 756 333 756 333 730.5 357 c 128,-1,16
 705 381 705 381 663 396.5 c 128,-1,17
 621 412 621 412 567 423 c 128,-1,18
 513 434 513 434 457 447.5 c 128,-1,19
 401 461 401 461 347 480 c 128,-1,20
 293 499 293 499 251 530.5 c 128,-1,21
 209 562 209 562 183.5 609.5 c 128,-1,22
 158 657 158 657 158 727 c 0,23,24
 158 789 158 789 178.5 837 c 128,-1,25
 199 885 199 885 239 931 c 1,26,27
 197 973 197 973 178.5 1020 c 128,-1,28
 160 1067 160 1067 160 1126 c 0,29,30
 160 1205 160 1205 197 1263 c 128,-1,31
 234 1321 234 1321 292.5 1359 c 128,-1,32
 351 1397 351 1397 422 1415.5 c 128,-1,33
 493 1434 493 1434 562 1434 c 0,34,35
 610 1434 610 1434 666.5 1423.5 c 128,-1,36
 723 1413 723 1413 776 1391.5 c 128,-1,37
 829 1370 829 1370 874 1337.5 c 128,-1,38
 919 1305 919 1305 944 1261 c 1,39,-1
 731 1127 l 1,40,41
 721 1155 721 1155 702 1174 c 128,-1,42
 683 1193 683 1193 658.5 1204.5 c 128,-1,43
 634 1216 634 1216 606.5 1221 c 128,-1,44
 579 1226 579 1226 552 1226 c 0,45,46
 527 1226 527 1226 498 1220 c 128,-1,47
 469 1214 469 1214 444 1201 c 128,-1,48
 419 1188 419 1188 402 1167 c 128,-1,49
 385 1146 385 1146 385 1115 c 0,50,51
 385 1100 385 1100 390.5 1089 c 128,-1,52
 396 1078 396 1078 407 1068 c 0,53,54
 434 1042 434 1042 474.5 1026.5 c 128,-1,55
 515 1011 515 1011 563 1000 c 128,-1,56
 611 989 611 989 662.5 979 c 128,-1,57
 714 969 714 969 763 953.5 c 128,-1,58
 812 938 812 938 855 914.5 c 128,-1,59
 898 891 898 891 929 852 c 0,60,61
 958 816 958 816 970.5 775 c 128,-1,62
 983 734 983 734 983 688 c 0,63,64
 983 628 983 628 964.5 579 c 128,-1,65
 946 530 946 530 908 485 c 1,66,67
 948 443 948 443 965.5 395.5 c 128,-1,68
 983 348 983 348 983 290 c 0,69,70
 983 203 983 203 942 144 c 128,-1,71
 901 85 901 85 837 49 c 128,-1,72
 773 13 773 13 696.5 -2.5 c 128,-1,73
 620 -18 620 -18 548 -18 c 0,0,1
680 583 m 1,74,75
 713 594 713 594 734.5 618 c 128,-1,76
 756 642 756 642 756 678 c 0,77,78
 756 726 756 726 722 754 c 0,79,80
 700 772 700 772 666.5 786.5 c 128,-1,81
 633 801 633 801 595.5 812 c 128,-1,82
 558 823 558 823 521 831.5 c 128,-1,83
 484 840 484 840 456 846 c 1,84,85
 426 830 426 830 405.5 800.5 c 128,-1,86
 385 771 385 771 385 736 c 0,87,88
 385 709 385 709 401 688.5 c 128,-1,89
 417 668 417 668 443.5 652.5 c 128,-1,90
 470 637 470 637 502.5 625.5 c 128,-1,91
 535 614 535 614 567.5 606 c 128,-1,92
 600 598 600 598 630 592.5 c 128,-1,93
 660 587 660 587 680 583 c 1,74,75
EndSplineSet
EndChar

StartChar: dieresis
Encoding: 168 168 106
Width: 845
GlyphClass: 1
Flags: W
LayerCount: 2
Fore
SplineSet
350 1178 m 1,0,-1
 134 1178 l 1,1,-1
 134 1413 l 1,2,-1
 350 1413 l 1,3,-1
 350 1178 l 1,0,-1
710 1178 m 1,4,-1
 495 1178 l 1,5,-1
 495 1413 l 1,6,-1
 710 1413 l 1,7,-1
 710 1178 l 1,4,-1
EndSplineSet
EndChar

StartChar: copyright
Encoding: 169 169 107
Width: 1735
GlyphClass: 1
Flags: W
LayerCount: 2
Fore
SplineSet
868 -49 m 256,0,1
 763 -49 763 -49 663 -23 c 128,-1,2
 563 3 563 3 474 51 c 128,-1,3
 385 99 385 99 311 167 c 128,-1,4
 237 235 237 235 183 319 c 128,-1,5
 129 403 129 403 99 501 c 128,-1,6
 69 599 69 599 69 707 c 0,7,8
 69 816 69 816 99 914 c 128,-1,9
 129 1012 129 1012 183 1095.5 c 128,-1,10
 237 1179 237 1179 311 1246.5 c 128,-1,11
 385 1314 385 1314 474 1362 c 128,-1,12
 563 1410 563 1410 663 1435.5 c 128,-1,13
 763 1461 763 1461 868 1461 c 256,14,15
 973 1461 973 1461 1073 1435.5 c 128,-1,16
 1173 1410 1173 1410 1262 1362 c 128,-1,17
 1351 1314 1351 1314 1425 1246.5 c 128,-1,18
 1499 1179 1499 1179 1552.5 1095.5 c 128,-1,19
 1606 1012 1606 1012 1636 913.5 c 128,-1,20
 1666 815 1666 815 1666 707 c 256,21,22
 1666 599 1666 599 1636 501 c 128,-1,23
 1606 403 1606 403 1552.5 319 c 128,-1,24
 1499 235 1499 235 1424.5 167 c 128,-1,25
 1350 99 1350 99 1261.5 51 c 128,-1,26
 1173 3 1173 3 1073 -23 c 128,-1,27
 973 -49 973 -49 868 -49 c 256,0,1
868 161 m 256,28,29
 943 161 943 161 1016 179.5 c 128,-1,30
 1089 198 1089 198 1154 233 c 128,-1,31
 1219 268 1219 268 1274.5 317 c 128,-1,32
 1330 366 1330 366 1370 426.5 c 128,-1,33
 1410 487 1410 487 1432.5 558 c 128,-1,34
 1455 629 1455 629 1455 707 c 256,35,36
 1455 785 1455 785 1432.5 855.5 c 128,-1,37
 1410 926 1410 926 1369.5 986.5 c 128,-1,38
 1329 1047 1329 1047 1273.5 1096 c 128,-1,39
 1218 1145 1218 1145 1153 1179.5 c 128,-1,40
 1088 1214 1088 1214 1015.5 1233 c 128,-1,41
 943 1252 943 1252 868 1252 c 0,42,43
 756 1252 756 1252 650.5 1210.5 c 128,-1,44
 545 1169 545 1169 463 1096 c 128,-1,45
 381 1023 381 1023 331.5 923.5 c 128,-1,46
 282 824 282 824 282 707 c 0,47,48
 282 629 282 629 304.5 558 c 128,-1,49
 327 487 327 487 367 426.5 c 128,-1,50
 407 366 407 366 462.5 317 c 128,-1,51
 518 268 518 268 583 233.5 c 128,-1,52
 648 199 648 199 720.5 180 c 128,-1,53
 793 161 793 161 868 161 c 256,28,29
878 253 m 0,54,55
 779 253 779 253 705.5 291.5 c 128,-1,56
 632 330 632 330 583 394 c 128,-1,57
 534 458 534 458 509.5 541.5 c 128,-1,58
 485 625 485 625 485 715 c 0,59,60
 485 804 485 804 512 884 c 128,-1,61
 539 964 539 964 590.5 1024.5 c 128,-1,62
 642 1085 642 1085 716.5 1120.5 c 128,-1,63
 791 1156 791 1156 885 1156 c 0,64,65
 957 1156 957 1156 1012.5 1138.5 c 128,-1,66
 1068 1121 1068 1121 1112.5 1088 c 128,-1,67
 1157 1055 1157 1055 1191.5 1006.5 c 128,-1,68
 1226 958 1226 958 1254 895 c 1,69,-1
 1060 812 l 1,70,71
 1046 844 1046 844 1030.5 868.5 c 128,-1,72
 1015 893 1015 893 995 909.5 c 128,-1,73
 975 926 975 926 948.5 934.5 c 128,-1,74
 922 943 922 943 885 943 c 0,75,76
 832 943 832 943 795 923.5 c 128,-1,77
 758 904 758 904 735.5 871 c 128,-1,78
 713 838 713 838 703 795 c 128,-1,79
 693 752 693 752 693 705 c 256,80,81
 693 658 693 658 702.5 615 c 128,-1,82
 712 572 712 572 734 539.5 c 128,-1,83
 756 507 756 507 792.5 487.5 c 128,-1,84
 829 468 829 468 883 468 c 0,85,86
 922 468 922 468 948 476 c 128,-1,87
 974 484 974 484 993.5 500.5 c 128,-1,88
 1013 517 1013 517 1027.5 541.5 c 128,-1,89
 1042 566 1042 566 1058 598 c 1,90,-1
 1254 516 l 1,91,92
 1224 452 1224 452 1189 403 c 128,-1,93
 1154 354 1154 354 1109.5 320.5 c 128,-1,94
 1065 287 1065 287 1008.5 270 c 128,-1,95
 952 253 952 253 878 253 c 0,54,55
EndSplineSet
EndChar

StartChar: ordfeminine
Encoding: 170 170 108
Width: 987
GlyphClass: 2
Flags: W
LayerCount: 2
Fore
SplineSet
409 709 m 0,0,1
 361 709 361 709 315 724 c 128,-1,2
 269 739 269 739 234 767.5 c 128,-1,3
 199 796 199 796 177.5 837 c 128,-1,4
 156 878 156 878 156 930 c 0,5,6
 156 995 156 995 179 1036.5 c 128,-1,7
 202 1078 202 1078 240 1102.5 c 128,-1,8
 278 1127 278 1127 327.5 1138 c 128,-1,9
 377 1149 377 1149 421.5 1152 c 128,-1,10
 466 1155 466 1155 503 1155 c 0,11,12
 518 1155 518 1155 552 1154 c 128,-1,13
 586 1153 586 1153 629 1153 c 1,14,15
 627 1224 627 1224 587 1255 c 128,-1,16
 547 1286 547 1286 479 1286 c 0,17,18
 421 1286 421 1286 377.5 1255 c 128,-1,19
 334 1224 334 1224 302 1179 c 1,20,-1
 175 1265 l 1,21,22
 205 1307 205 1307 237 1338.5 c 128,-1,23
 269 1370 269 1370 306.5 1391 c 128,-1,24
 344 1412 344 1412 387.5 1423 c 128,-1,25
 431 1434 431 1434 483 1434 c 0,26,27
 550 1434 550 1434 605.5 1415 c 128,-1,28
 661 1396 661 1396 700.5 1359.5 c 128,-1,29
 740 1323 740 1323 762 1270 c 128,-1,30
 784 1217 784 1217 784 1148 c 2,31,-1
 784 723 l 1,32,-1
 640 723 l 1,33,-1
 636 797 l 1,34,35
 589 750 589 750 531.5 729.5 c 128,-1,36
 474 709 474 709 409 709 c 0,0,1
436 857 m 0,37,38
 470 857 470 857 501.5 868 c 128,-1,39
 533 879 533 879 559 899 c 128,-1,40
 585 919 585 919 603.5 947 c 128,-1,41
 622 975 622 975 629 1008 c 1,42,-1
 450 1008 l 2,43,44
 431 1008 431 1008 409 1005 c 128,-1,45
 387 1002 387 1002 369 993.5 c 128,-1,46
 351 985 351 985 339 970 c 128,-1,47
 327 955 327 955 327 930 c 0,48,49
 327 912 327 912 338.5 898 c 128,-1,50
 350 884 350 884 366.5 875 c 128,-1,51
 383 866 383 866 402 861.5 c 128,-1,52
 421 857 421 857 436 857 c 0,37,38
EndSplineSet
EndChar

StartChar: guillemotleft
Encoding: 171 171 109
Width: 951
GlyphClass: 1
Flags: W
LayerCount: 2
Fore
SplineSet
447 147 m 1,0,-1
 1 509 l 1,1,-1
 447 875 l 1,2,-1
 447 649 l 1,3,-1
 272 509 l 1,4,-1
 447 373 l 1,5,-1
 447 147 l 1,0,-1
810 147 m 1,6,-1
 364 509 l 1,7,-1
 810 875 l 1,8,-1
 810 649 l 1,9,-1
 635 509 l 1,10,-1
 810 373 l 1,11,-1
 810 147 l 1,6,-1
EndSplineSet
EndChar

StartChar: logicalnot
Encoding: 172 172 110
Width: 1305
GlyphClass: 1
Flags: W
LayerCount: 2
Fore
SplineSet
1099 291 m 1,0,-1
 837 291 l 1,1,-1
 837 554 l 1,2,-1
 129 554 l 1,3,-1
 129 797 l 1,4,-1
 1099 797 l 1,5,-1
 1099 291 l 1,0,-1
EndSplineSet
EndChar

StartChar: uni00AD
Encoding: 173 173 111
Width: 1020
GlyphClass: 1
Flags: W
LayerCount: 2
Fore
SplineSet
884 486 m 1,0,-1
 135 486 l 1,1,-1
 135 692 l 1,2,-1
 884 692 l 1,3,-1
 884 486 l 1,0,-1
EndSplineSet
EndChar

StartChar: registered
Encoding: 174 174 112
Width: 1735
GlyphClass: 1
Flags: W
LayerCount: 2
Fore
SplineSet
868 -47 m 256,0,1
 763 -47 763 -47 663 -21 c 128,-1,2
 563 5 563 5 474 53 c 128,-1,3
 385 101 385 101 311 169 c 128,-1,4
 237 237 237 237 183 321 c 128,-1,5
 129 405 129 405 99 503 c 128,-1,6
 69 601 69 601 69 709 c 0,7,8
 69 818 69 818 99 916 c 128,-1,9
 129 1014 129 1014 183 1097.5 c 128,-1,10
 237 1181 237 1181 311 1248.5 c 128,-1,11
 385 1316 385 1316 474 1364 c 128,-1,12
 563 1412 563 1412 663 1437.5 c 128,-1,13
 763 1463 763 1463 868 1463 c 256,14,15
 973 1463 973 1463 1073 1437.5 c 128,-1,16
 1173 1412 1173 1412 1262 1364 c 128,-1,17
 1351 1316 1351 1316 1425 1248.5 c 128,-1,18
 1499 1181 1499 1181 1552.5 1097.5 c 128,-1,19
 1606 1014 1606 1014 1636 915.5 c 128,-1,20
 1666 817 1666 817 1666 709 c 256,21,22
 1666 601 1666 601 1636 503 c 128,-1,23
 1606 405 1606 405 1552.5 321 c 128,-1,24
 1499 237 1499 237 1424.5 169 c 128,-1,25
 1350 101 1350 101 1261.5 53 c 128,-1,26
 1173 5 1173 5 1073 -21 c 128,-1,27
 973 -47 973 -47 868 -47 c 256,0,1
868 155 m 0,28,29
 970 155 970 155 1067 188.5 c 128,-1,30
 1164 222 1164 222 1245 284 c 1,31,-1
 1046 284 l 1,32,-1
 875 594 l 1,33,-1
 798 594 l 1,34,-1
 798 284 l 1,35,-1
 594 284 l 1,36,-1
 594 1118 l 1,37,-1
 922 1118 l 2,38,39
 985 1118 985 1118 1038.5 1102.5 c 128,-1,40
 1092 1087 1092 1087 1130.5 1055.5 c 128,-1,41
 1169 1024 1169 1024 1191 975 c 128,-1,42
 1213 926 1213 926 1213 858 c 0,43,44
 1213 780 1213 780 1181.5 720.5 c 128,-1,45
 1150 661 1150 661 1080 625 c 1,46,47
 1128 544 1128 544 1174.5 463.5 c 128,-1,48
 1221 383 1221 383 1268 302 c 1,49,50
 1360 379 1360 379 1412.5 483.5 c 128,-1,51
 1465 588 1465 588 1465 709 c 0,52,53
 1465 789 1465 789 1442 860.5 c 128,-1,54
 1419 932 1419 932 1378 993.5 c 128,-1,55
 1337 1055 1337 1055 1281 1104.5 c 128,-1,56
 1225 1154 1225 1154 1158.5 1189 c 128,-1,57
 1092 1224 1092 1224 1018 1243 c 128,-1,58
 944 1262 944 1262 868 1262 c 256,59,60
 792 1262 792 1262 718 1243 c 128,-1,61
 644 1224 644 1224 577.5 1189 c 128,-1,62
 511 1154 511 1154 455 1104.5 c 128,-1,63
 399 1055 399 1055 358 993.5 c 128,-1,64
 317 932 317 932 294 860 c 128,-1,65
 271 788 271 788 271 709 c 0,66,67
 271 633 271 633 293 563.5 c 128,-1,68
 315 494 315 494 354 433 c 128,-1,69
 393 372 393 372 447 321.5 c 128,-1,70
 501 271 501 271 565 234 c 0,71,72
 634 193 634 193 710.5 174 c 128,-1,73
 787 155 787 155 868 155 c 0,28,29
922 788 m 2,74,75
 943 788 943 788 961 789.5 c 128,-1,76
 979 791 979 791 992 798 c 128,-1,77
 1005 805 1005 805 1012.5 819 c 128,-1,78
 1020 833 1020 833 1020 858 c 0,79,80
 1020 884 1020 884 1012.5 897.5 c 128,-1,81
 1005 911 1005 911 992 917 c 128,-1,82
 979 923 979 923 961 924 c 128,-1,83
 943 925 943 925 922 925 c 2,84,-1
 788 925 l 1,85,-1
 788 788 l 1,86,-1
 922 788 l 2,74,75
EndSplineSet
EndChar

StartChar: macron
Encoding: 175 175 113
Width: 830
GlyphClass: 1
Flags: W
LayerCount: 2
Fore
SplineSet
697 1136 m 1,0,-1
 133 1136 l 1,1,-1
 133 1284 l 1,2,-1
 697 1284 l 1,3,-1
 697 1136 l 1,0,-1
EndSplineSet
EndChar

StartChar: degree
Encoding: 176 176 114
Width: 854
GlyphClass: 1
Flags: W
LayerCount: 2
Fore
SplineSet
419 848 m 0,0,1
 376 848 376 848 335.5 862 c 128,-1,2
 295 876 295 876 260.5 900.5 c 128,-1,3
 226 925 226 925 199 958 c 128,-1,4
 172 991 172 991 155 1030 c 0,5,6
 141 1061 141 1061 137 1088 c 128,-1,7
 133 1115 133 1115 133 1148 c 0,8,9
 133 1208 133 1208 158 1260.5 c 128,-1,10
 183 1313 183 1313 224.5 1351.5 c 128,-1,11
 266 1390 266 1390 320 1412 c 128,-1,12
 374 1434 374 1434 433 1434 c 0,13,14
 495 1434 495 1434 547.5 1409.5 c 128,-1,15
 600 1385 600 1385 638.5 1344 c 128,-1,16
 677 1303 677 1303 698.5 1248.5 c 128,-1,17
 720 1194 720 1194 720 1134 c 0,18,19
 720 1091 720 1091 706.5 1051 c 128,-1,20
 693 1011 693 1011 669 976.5 c 128,-1,21
 645 942 645 942 612 915 c 128,-1,22
 579 888 579 888 541 871 c 0,23,24
 510 857 510 857 481 852.5 c 128,-1,25
 452 848 452 848 419 848 c 0,0,1
426 1034 m 0,26,27
 474 1034 474 1034 505 1063.5 c 128,-1,28
 536 1093 536 1093 536 1141 c 256,29,30
 536 1189 536 1189 504.5 1218.5 c 128,-1,31
 473 1248 473 1248 426 1248 c 0,32,33
 404 1248 404 1248 384.5 1239.5 c 128,-1,34
 365 1231 365 1231 350.5 1216.5 c 128,-1,35
 336 1202 336 1202 327.5 1182.5 c 128,-1,36
 319 1163 319 1163 319 1141 c 256,37,38
 319 1119 319 1119 327.5 1099.5 c 128,-1,39
 336 1080 336 1080 350.5 1065.5 c 128,-1,40
 365 1051 365 1051 384.5 1042.5 c 128,-1,41
 404 1034 404 1034 426 1034 c 0,26,27
EndSplineSet
EndChar

StartChar: plusminus
Encoding: 177 177 115
Width: 1334
GlyphClass: 1
Flags: W
LayerCount: 2
Fore
SplineSet
771 106 m 1,0,-1
 564 106 l 1,1,-1
 564 520 l 1,2,-1
 108 520 l 1,3,-1
 108 728 l 1,4,-1
 564 728 l 1,5,-1
 564 1143 l 1,6,-1
 771 1143 l 1,7,-1
 771 728 l 1,8,-1
 1227 728 l 1,9,-1
 1227 520 l 1,10,-1
 771 520 l 1,11,-1
 771 106 l 1,0,-1
1224 -206 m 1,12,-1
 110 -206 l 1,13,-1
 110 0 l 1,14,-1
 1224 0 l 1,15,-1
 1224 -206 l 1,12,-1
EndSplineSet
EndChar

StartChar: twosuperior
Encoding: 178 178 116
Width: 840
GlyphClass: 2
Flags: W
LayerCount: 2
Fore
SplineSet
802 486 m 1,0,-1
 21 486 l 1,1,-1
 21 625 l 1,2,3
 58 645 58 645 101.5 671.5 c 128,-1,4
 145 698 145 698 191 729 c 128,-1,5
 237 760 237 760 283 794.5 c 128,-1,6
 329 829 329 829 371 864.5 c 128,-1,7
 413 900 413 900 447.5 936 c 128,-1,8
 482 972 482 972 505 1006 c 0,9,10
 523 1034 523 1034 534 1064.5 c 128,-1,11
 545 1095 545 1095 545 1129 c 0,12,13
 545 1189 545 1189 512 1219 c 128,-1,14
 479 1249 479 1249 421 1249 c 0,15,16
 380 1249 380 1249 351 1234.5 c 128,-1,17
 322 1220 322 1220 303.5 1195.5 c 128,-1,18
 285 1171 285 1171 276 1138 c 128,-1,19
 267 1105 267 1105 265 1068 c 1,20,21
 213 1070 213 1070 161.5 1073 c 128,-1,22
 110 1076 110 1076 58 1078 c 1,23,-1
 58 1085 l 2,24,25
 58 1138 58 1138 73.5 1187 c 128,-1,26
 89 1236 89 1236 117 1278 c 128,-1,27
 145 1320 145 1320 184 1354 c 128,-1,28
 223 1388 223 1388 271 1410 c 0,29,30
 309 1427 309 1427 348.5 1434 c 128,-1,31
 388 1441 388 1441 430 1441 c 0,32,33
 489 1441 489 1441 547 1422.5 c 128,-1,34
 605 1404 605 1404 651.5 1369 c 128,-1,35
 698 1334 698 1334 727 1283 c 128,-1,36
 756 1232 756 1232 756 1167 c 0,37,38
 756 1116 756 1116 738 1066.5 c 128,-1,39
 720 1017 720 1017 689.5 971 c 128,-1,40
 659 925 659 925 619 882.5 c 128,-1,41
 579 840 579 840 535.5 803 c 128,-1,42
 492 766 492 766 448 735 c 128,-1,43
 404 704 404 704 364 680 c 1,44,-1
 802 680 l 1,45,-1
 802 486 l 1,0,-1
EndSplineSet
EndChar

StartChar: threesuperior
Encoding: 179 179 117
Width: 873
GlyphClass: 2
Flags: W
LayerCount: 2
Fore
SplineSet
417 461 m 0,0,1
 341 461 341 461 270.5 481.5 c 128,-1,2
 200 502 200 502 145 543.5 c 128,-1,3
 90 585 90 585 57 647.5 c 128,-1,4
 24 710 24 710 24 793 c 1,5,-1
 229 802 l 1,6,7
 229 763 229 763 248 735.5 c 128,-1,8
 267 708 267 708 296 691 c 128,-1,9
 325 674 325 674 360.5 666.5 c 128,-1,10
 396 659 396 659 429 659 c 0,11,12
 458 659 458 659 491.5 664.5 c 128,-1,13
 525 670 525 670 554 684 c 128,-1,14
 583 698 583 698 602 721.5 c 128,-1,15
 621 745 621 745 621 782 c 0,16,17
 621 816 621 816 606 838 c 128,-1,18
 591 860 591 860 567.5 873 c 128,-1,19
 544 886 544 886 515 891 c 128,-1,20
 486 896 486 896 458 896 c 2,21,-1
 324 896 l 1,22,-1
 324 1075 l 1,23,-1
 457 1075 l 2,24,25
 478 1075 478 1075 497 1079 c 128,-1,26
 516 1083 516 1083 531 1093 c 128,-1,27
 546 1103 546 1103 554.5 1119 c 128,-1,28
 563 1135 563 1135 563 1159 c 0,29,30
 563 1188 563 1188 550.5 1206 c 128,-1,31
 538 1224 538 1224 518.5 1234.5 c 128,-1,32
 499 1245 499 1245 475 1249 c 128,-1,33
 451 1253 451 1253 427 1253 c 0,34,35
 401 1253 401 1253 374.5 1247.5 c 128,-1,36
 348 1242 348 1242 326.5 1229 c 128,-1,37
 305 1216 305 1216 291.5 1194.5 c 128,-1,38
 278 1173 278 1173 278 1142 c 1,39,40
 227 1144 227 1144 177.5 1147 c 128,-1,41
 128 1150 128 1150 77 1152 c 1,42,-1
 77 1160 l 2,43,44
 77 1233 77 1233 107.5 1288 c 128,-1,45
 138 1343 138 1343 188 1379.5 c 128,-1,46
 238 1416 238 1416 301.5 1434.5 c 128,-1,47
 365 1453 365 1453 431 1453 c 0,48,49
 489 1453 489 1453 549 1436 c 128,-1,50
 609 1419 609 1419 658 1385.5 c 128,-1,51
 707 1352 707 1352 738 1302 c 128,-1,52
 769 1252 769 1252 769 1186 c 0,53,54
 769 1131 769 1131 746.5 1084.5 c 128,-1,55
 724 1038 724 1038 685 1000 c 1,56,57
 753 961 753 961 789.5 900.5 c 128,-1,58
 826 840 826 840 826 761 c 0,59,60
 826 679 826 679 788 621.5 c 128,-1,61
 750 564 750 564 691 528.5 c 128,-1,62
 632 493 632 493 559 477 c 128,-1,63
 486 461 486 461 417 461 c 0,0,1
EndSplineSet
EndChar

StartChar: acute
Encoding: 180 180 118
Width: 539
GlyphClass: 1
Flags: W
LayerCount: 2
Fore
SplineSet
215 1124 m 1,0,-1
 23 1124 l 1,1,-1
 250 1413 l 1,2,-1
 531 1413 l 1,3,-1
 215 1124 l 1,0,-1
EndSplineSet
EndChar

StartChar: uni00B5
Encoding: 181 181 119
Width: 1309
GlyphClass: 1
Flags: W
LayerCount: 2
Fore
SplineSet
442 -266 m 1,0,-1
 216 -266 l 1,1,-1
 216 1039 l 1,2,-1
 465 1039 l 1,3,-1
 465 434 l 2,4,5
 465 384 465 384 472.5 342.5 c 128,-1,6
 480 301 480 301 499 272 c 128,-1,7
 518 243 518 243 553 226.5 c 128,-1,8
 588 210 588 210 644 210 c 0,9,10
 720 210 720 210 768.5 241.5 c 128,-1,11
 817 273 817 273 844.5 323.5 c 128,-1,12
 872 374 872 374 882.5 437 c 128,-1,13
 893 500 893 500 893 563 c 2,14,-1
 893 1039 l 1,15,-1
 1142 1039 l 1,16,-1
 1142 0 l 1,17,-1
 893 0 l 1,18,-1
 893 76 l 1,19,20
 834 28 834 28 762.5 2.5 c 128,-1,21
 691 -23 691 -23 613 -23 c 0,22,23
 574 -23 574 -23 535 -17.5 c 128,-1,24
 496 -12 496 -12 459 2 c 1,25,-1
 442 -266 l 1,0,-1
EndSplineSet
EndChar

StartChar: paragraph
Encoding: 182 182 120
Width: 1240
GlyphClass: 1
Flags: W
LayerCount: 2
Fore
SplineSet
682 -246 m 1,0,-1
 501 -246 l 1,1,-1
 501 623 l 1,2,3
 411 623 411 623 329.5 650 c 128,-1,4
 248 677 248 677 185.5 728.5 c 128,-1,5
 123 780 123 780 86 855 c 128,-1,6
 49 930 49 930 49 1025 c 0,7,8
 49 1114 49 1114 87 1186 c 128,-1,9
 125 1258 125 1258 187 1308.5 c 128,-1,10
 249 1359 249 1359 328.5 1386 c 128,-1,11
 408 1413 408 1413 491 1413 c 2,12,-1
 682 1413 l 1,13,-1
 682 -246 l 1,0,-1
1029 -246 m 1,14,-1
 845 -246 l 1,15,-1
 845 1413 l 1,16,-1
 1029 1413 l 1,17,-1
 1029 -246 l 1,14,-1
EndSplineSet
EndChar

StartChar: periodcentered
Encoding: 183 183 121
Width: 608
GlyphClass: 1
Flags: W
LayerCount: 2
Fore
SplineSet
303 636 m 0,0,1
 270 636 270 636 242 648.5 c 128,-1,2
 214 661 214 661 193.5 682.5 c 128,-1,3
 173 704 173 704 161 733 c 128,-1,4
 149 762 149 762 149 794 c 256,5,6
 149 826 149 826 161 854 c 128,-1,7
 173 882 173 882 194 903 c 128,-1,8
 215 924 215 924 243 936 c 128,-1,9
 271 948 271 948 303 948 c 256,10,11
 335 948 335 948 364 936 c 128,-1,12
 393 924 393 924 414.5 903.5 c 128,-1,13
 436 883 436 883 448.5 855 c 128,-1,14
 461 827 461 827 461 794 c 0,15,16
 461 762 461 762 448.5 733 c 128,-1,17
 436 704 436 704 414.5 682.5 c 128,-1,18
 393 661 393 661 364 648.5 c 128,-1,19
 335 636 335 636 303 636 c 0,0,1
EndSplineSet
EndChar

StartChar: cedilla
Encoding: 184 184 122
Width: 556
GlyphClass: 2
Flags: W
AnchorPoint: "Anchor-3" 277 -500 basemark 0
LayerCount: 2
Fore
SplineSet
253 -528 m 0,0,1
 221 -528 221 -528 190.5 -518.5 c 128,-1,2
 160 -509 160 -509 134 -491.5 c 128,-1,3
 108 -474 108 -474 87 -450 c 128,-1,4
 66 -426 66 -426 52 -397 c 1,5,-1
 199 -338 l 1,6,7
 209 -355 209 -355 224 -366 c 128,-1,8
 239 -377 239 -377 259 -377 c 0,9,10
 291 -377 291 -377 312.5 -357 c 128,-1,11
 334 -337 334 -337 334 -305 c 0,12,13
 334 -262 334 -262 306.5 -240.5 c 128,-1,14
 279 -219 279 -219 240.5 -210 c 128,-1,15
 202 -201 202 -201 161 -200.5 c 128,-1,16
 120 -200 120 -200 92 -200 c 1,17,-1
 223 -3 l 1,18,-1
 375 -3 l 1,19,-1
 296 -95 l 1,20,21
 339 -102 339 -102 374.5 -117 c 128,-1,22
 410 -132 410 -132 435 -156.5 c 128,-1,23
 460 -181 460 -181 474 -216 c 128,-1,24
 488 -251 488 -251 488 -297 c 0,25,26
 488 -347 488 -347 470 -389.5 c 128,-1,27
 452 -432 452 -432 420 -462.5 c 128,-1,28
 388 -493 388 -493 345.5 -510.5 c 128,-1,29
 303 -528 303 -528 253 -528 c 0,0,1
EndSplineSet
EndChar

StartChar: onesuperior
Encoding: 185 185 123
Width: 815
GlyphClass: 2
Flags: W
LayerCount: 2
Fore
SplineSet
571 486 m 1,0,-1
 361 486 l 1,1,-1
 361 1147 l 1,2,-1
 113 1147 l 1,3,-1
 113 1308 l 1,4,-1
 271 1308 l 2,5,6
 303 1308 303 1308 322 1316.5 c 128,-1,7
 341 1325 341 1325 351 1340.5 c 128,-1,8
 361 1356 361 1356 364 1378.5 c 128,-1,9
 367 1401 367 1401 367 1428 c 1,10,-1
 571 1428 l 1,11,-1
 571 486 l 1,0,-1
EndSplineSet
EndChar

StartChar: ordmasculine
Encoding: 186 186 124
Width: 1020
GlyphClass: 2
Flags: W
LayerCount: 2
Fore
SplineSet
502 711 m 0,0,1
 424 711 424 711 358.5 740.5 c 128,-1,2
 293 770 293 770 246 820 c 128,-1,3
 199 870 199 870 172.5 937.5 c 128,-1,4
 146 1005 146 1005 146 1081 c 0,5,6
 146 1159 146 1159 175.5 1224 c 128,-1,7
 205 1289 205 1289 256 1335.5 c 128,-1,8
 307 1382 307 1382 374.5 1408 c 128,-1,9
 442 1434 442 1434 518 1434 c 0,10,11
 596 1434 596 1434 661 1405 c 128,-1,12
 726 1376 726 1376 773 1326 c 128,-1,13
 820 1276 820 1276 846 1209 c 128,-1,14
 872 1142 872 1142 872 1066 c 0,15,16
 872 1013 872 1013 856.5 963 c 128,-1,17
 841 913 841 913 812.5 870 c 128,-1,18
 784 827 784 827 744 793 c 128,-1,19
 704 759 704 759 655 739 c 0,20,21
 617 722 617 722 580.5 716.5 c 128,-1,22
 544 711 544 711 502 711 c 0,0,1
510 867 m 0,23,24
 559 867 559 867 593.5 882 c 128,-1,25
 628 897 628 897 650 924.5 c 128,-1,26
 672 952 672 952 682.5 990 c 128,-1,27
 693 1028 693 1028 693 1073 c 0,28,29
 693 1119 693 1119 682.5 1157 c 128,-1,30
 672 1195 672 1195 650 1222 c 128,-1,31
 628 1249 628 1249 593.5 1264 c 128,-1,32
 559 1279 559 1279 510 1279 c 256,33,34
 461 1279 461 1279 426 1264.5 c 128,-1,35
 391 1250 391 1250 368.5 1223 c 128,-1,36
 346 1196 346 1196 335.5 1158 c 128,-1,37
 325 1120 325 1120 325 1073 c 0,38,39
 325 1028 325 1028 336 990 c 128,-1,40
 347 952 347 952 369.5 924.5 c 128,-1,41
 392 897 392 897 427 882 c 128,-1,42
 462 867 462 867 510 867 c 0,23,24
EndSplineSet
EndChar

StartChar: guillemotright
Encoding: 187 187 125
Width: 954
GlyphClass: 1
Flags: W
LayerCount: 2
Fore
SplineSet
139 147 m 1,0,-1
 139 373 l 1,1,-1
 316 509 l 1,2,-1
 139 649 l 1,3,-1
 139 875 l 1,4,-1
 586 509 l 1,5,-1
 139 147 l 1,0,-1
502 147 m 1,6,-1
 502 373 l 1,7,-1
 678 509 l 1,8,-1
 502 649 l 1,9,-1
 502 875 l 1,10,-1
 948 509 l 1,11,-1
 502 147 l 1,6,-1
EndSplineSet
EndChar

StartChar: questiondown
Encoding: 191 191 126
Width: 985
GlyphClass: 1
Flags: W
LayerCount: 2
Fore
SplineSet
645 713 m 1,0,-1
 357 713 l 1,1,-1
 357 999 l 1,2,-1
 645 999 l 1,3,-1
 645 713 l 1,0,-1
503 -434 m 0,4,5
 414 -434 414 -434 331.5 -407 c 128,-1,6
 249 -380 249 -380 186 -328 c 128,-1,7
 123 -276 123 -276 85.5 -201.5 c 128,-1,8
 48 -127 48 -127 48 -31 c 0,9,10
 48 50 48 50 64.5 108.5 c 128,-1,11
 81 167 81 167 115 211 c 128,-1,12
 149 255 149 255 199.5 289.5 c 128,-1,13
 250 324 250 324 319 358 c 0,14,15
 333 365 333 365 351.5 375.5 c 128,-1,16
 370 386 370 386 378 399 c 0,17,18
 385 409 385 409 387.5 430.5 c 128,-1,19
 390 452 390 452 390 476 c 256,20,21
 390 500 390 500 389 523.5 c 128,-1,22
 388 547 388 547 388 560 c 1,23,-1
 617 560 l 1,24,-1
 617 410 l 2,25,26
 617 337 617 337 592 291 c 128,-1,27
 567 245 567 245 529 213.5 c 128,-1,28
 491 182 491 182 447 160 c 128,-1,29
 403 138 403 138 365 113.5 c 128,-1,30
 327 89 327 89 302 55.5 c 128,-1,31
 277 22 277 22 277 -31 c 0,32,33
 277 -81 277 -81 296 -115 c 128,-1,34
 315 -149 315 -149 346 -170 c 128,-1,35
 377 -191 377 -191 418 -200 c 128,-1,36
 459 -209 459 -209 502 -209 c 0,37,38
 549 -209 549 -209 589.5 -197 c 128,-1,39
 630 -185 630 -185 659.5 -160.5 c 128,-1,40
 689 -136 689 -136 705.5 -99 c 128,-1,41
 722 -62 722 -62 722 -12 c 1,42,-1
 959 -12 l 1,43,-1
 959 -20 l 2,44,45
 959 -118 959 -118 922.5 -194.5 c 128,-1,46
 886 -271 886 -271 823.5 -324.5 c 128,-1,47
 761 -378 761 -378 678 -406 c 128,-1,48
 595 -434 595 -434 503 -434 c 0,4,5
EndSplineSet
EndChar

StartChar: Aring
Encoding: 197 197 132
Width: 1355
GlyphClass: 1
Flags: W
LayerCount: 2
Fore
SplineSet
1358 0 m 1,0,-1
 1052 0 l 1,1,-1
 943 307 l 1,2,-1
 416 307 l 1,3,4
 389 229 389 229 361.5 153 c 128,-1,5
 334 77 334 77 305 0 c 1,6,-1
 -4 0 l 1,7,-1
 536 1321 l 1,8,9
 489 1355 489 1355 464 1406 c 128,-1,10
 439 1457 439 1457 439 1514 c 0,11,12
 439 1562 439 1562 458.5 1605 c 128,-1,13
 478 1648 478 1648 510.5 1681 c 128,-1,14
 543 1714 543 1714 586.5 1733 c 128,-1,15
 630 1752 630 1752 678 1752 c 0,16,17
 728 1752 728 1752 771.5 1733.5 c 128,-1,18
 815 1715 815 1715 847 1682.5 c 128,-1,19
 879 1650 879 1650 898 1607 c 128,-1,20
 917 1564 917 1564 917 1514 c 0,21,22
 917 1456 917 1456 893 1405.5 c 128,-1,23
 869 1355 869 1355 821 1320 c 1,24,-1
 1358 0 l 1,0,-1
678 1413 m 0,25,26
 726 1413 726 1413 752 1441.5 c 128,-1,27
 778 1470 778 1470 778 1517 c 0,28,29
 778 1562 778 1562 750 1587 c 128,-1,30
 722 1612 722 1612 678 1612 c 0,31,32
 636 1612 636 1612 607.5 1586 c 128,-1,33
 579 1560 579 1560 579 1517 c 0,34,35
 579 1473 579 1473 606 1443 c 128,-1,36
 633 1413 633 1413 678 1413 c 0,25,26
846 546 m 1,37,-1
 680 996 l 1,38,-1
 512 546 l 1,39,-1
 846 546 l 1,37,-1
EndSplineSet
Position2: "'cpsp' Capital Spacing lookup 0 subtable" dx=5 dy=0 dh=10 dv=0
EndChar

StartChar: AE
Encoding: 198 198 133
Width: 1871
GlyphClass: 1
Flags: W
LayerCount: 2
Fore
SplineSet
1773 0 m 1,0,-1
 767 0 l 1,1,-1
 767 307 l 1,2,-1
 392 307 l 1,3,-1
 281 0 l 1,4,-1
 -4 0 l 1,5,-1
 565 1413 l 1,6,-1
 1773 1413 l 1,7,-1
 1773 1174 l 1,8,-1
 1026 1174 l 1,9,-1
 1026 825 l 1,10,-1
 1685 825 l 1,11,-1
 1685 588 l 1,12,-1
 1026 588 l 1,13,-1
 1026 245 l 1,14,-1
 1773 245 l 1,15,-1
 1773 0 l 1,0,-1
767 521 m 1,16,-1
 767 1174 l 1,17,-1
 741 1174 l 1,18,-1
 481 521 l 1,19,-1
 767 521 l 1,16,-1
EndSplineSet
Position2: "'cpsp' Capital Spacing lookup 0 subtable" dx=5 dy=0 dh=10 dv=0
EndChar

StartChar: Eth
Encoding: 208 208 143
Width: 1432
GlyphClass: 1
Flags: W
LayerCount: 2
Fore
SplineSet
605 0 m 2,0,-1
 197 0 l 1,1,-1
 197 610 l 1,2,-1
 84 610 l 1,3,-1
 84 816 l 1,4,-1
 197 816 l 1,5,-1
 197 1413 l 1,6,-1
 607 1413 l 2,7,8
 780 1413 780 1413 920 1368 c 128,-1,9
 1060 1323 1060 1323 1159 1233.5 c 128,-1,10
 1258 1144 1258 1144 1311.5 1009.5 c 128,-1,11
 1365 875 1365 875 1365 696 c 0,12,13
 1365 520 1365 520 1309 389 c 128,-1,14
 1253 258 1253 258 1152.5 171.5 c 128,-1,15
 1052 85 1052 85 912 42.5 c 128,-1,16
 772 0 772 0 605 0 c 2,0,-1
581 241 m 2,17,18
 698 241 698 241 794.5 266.5 c 128,-1,19
 891 292 891 292 960.5 348 c 128,-1,20
 1030 404 1030 404 1068 492.5 c 128,-1,21
 1106 581 1106 581 1106 707 c 256,22,23
 1106 833 1106 833 1073 922 c 128,-1,24
 1040 1011 1040 1011 976 1066.5 c 128,-1,25
 912 1122 912 1122 818 1147.5 c 128,-1,26
 724 1173 724 1173 603 1173 c 2,27,-1
 453 1173 l 1,28,-1
 453 816 l 1,29,-1
 834 816 l 1,30,-1
 834 610 l 1,31,-1
 453 610 l 1,32,-1
 453 241 l 1,33,-1
 581 241 l 2,17,18
EndSplineSet
Position2: "'cpsp' Capital Spacing lookup 0 subtable" dx=5 dy=0 dh=10 dv=0
EndChar

StartChar: Ntilde
Encoding: 209 209 144
Width: 1465
GlyphClass: 1
Flags: W
LayerCount: 2
Fore
SplineSet
862 1504 m 0,0,1
 823 1504 823 1504 793 1514.5 c 128,-1,2
 763 1525 763 1525 739.5 1540.5 c 128,-1,3
 716 1556 716 1556 698 1574 c 128,-1,4
 680 1592 680 1592 664 1607.5 c 128,-1,5
 648 1623 648 1623 633 1633.5 c 128,-1,6
 618 1644 618 1644 601 1644 c 0,7,8
 579 1644 579 1644 566.5 1628 c 128,-1,9
 554 1612 554 1612 547.5 1590.5 c 128,-1,10
 541 1569 541 1569 539 1545.5 c 128,-1,11
 537 1522 537 1522 537 1507 c 1,12,-1
 385 1507 l 1,13,14
 385 1566 385 1566 396.5 1620 c 128,-1,15
 408 1674 408 1674 434.5 1715 c 128,-1,16
 461 1756 461 1756 505.5 1780.5 c 128,-1,17
 550 1805 550 1805 616 1805 c 0,18,19
 666 1805 666 1805 702 1783.5 c 128,-1,20
 738 1762 738 1762 765.5 1736.5 c 128,-1,21
 793 1711 793 1711 817 1689.5 c 128,-1,22
 841 1668 841 1668 867 1668 c 0,23,24
 885 1668 885 1668 896 1683.5 c 128,-1,25
 907 1699 907 1699 913 1720 c 128,-1,26
 919 1741 919 1741 921 1763 c 128,-1,27
 923 1785 923 1785 923 1798 c 1,28,-1
 1081 1798 l 1,29,30
 1081 1745 1081 1745 1070.5 1692.5 c 128,-1,31
 1060 1640 1060 1640 1034.5 1598 c 128,-1,32
 1009 1556 1009 1556 967 1530 c 128,-1,33
 925 1504 925 1504 862 1504 c 0,0,1
1292 0 m 1,34,-1
 1032 0 l 1,35,-1
 443 911 l 1,36,-1
 443 0 l 1,37,-1
 173 0 l 1,38,-1
 173 1413 l 1,39,-1
 432 1413 l 1,40,-1
 1021 504 l 1,41,-1
 1021 1413 l 1,42,-1
 1292 1413 l 1,43,-1
 1292 0 l 1,34,-1
EndSplineSet
Position2: "'cpsp' Capital Spacing lookup 0 subtable" dx=5 dy=0 dh=10 dv=0
EndChar

StartChar: multiply
Encoding: 215 215 150
Width: 1085
GlyphClass: 1
Flags: W
LayerCount: 2
Fore
SplineSet
218 157 m 1,0,-1
 74 301 l 1,1,-1
 396 625 l 1,2,-1
 103 918 l 1,3,-1
 250 1065 l 1,4,-1
 542 772 l 1,5,-1
 866 1092 l 1,6,-1
 1010 948 l 1,7,-1
 689 625 l 1,8,-1
 983 332 l 1,9,-1
 836 185 l 1,10,-1
 542 478 l 1,11,-1
 218 157 l 1,0,-1
EndSplineSet
EndChar

StartChar: Oslash
Encoding: 216 216 151
Width: 1532
GlyphClass: 1
Flags: W
LayerCount: 2
Fore
SplineSet
766 -20 m 0,0,1
 685 -20 685 -20 606.5 -6 c 128,-1,2
 528 8 528 8 453 40 c 1,3,-1
 428 0 l 1,4,-1
 229 0 l 1,5,-1
 310 129 l 1,6,7
 244 185 244 185 198 253 c 128,-1,8
 152 321 152 321 123.5 397 c 128,-1,9
 95 473 95 473 82 555 c 128,-1,10
 69 637 69 637 69 721 c 0,11,12
 69 812 69 812 88 900.5 c 128,-1,13
 107 989 107 989 145 1069.5 c 128,-1,14
 183 1150 183 1150 241.5 1218 c 128,-1,15
 300 1286 300 1286 379 1335 c 0,16,17
 469 1391 469 1391 565.5 1412.5 c 128,-1,18
 662 1434 662 1434 766 1434 c 0,19,20
 847 1434 847 1434 925.5 1420 c 128,-1,21
 1004 1406 1004 1406 1079 1374 c 1,22,-1
 1102 1413 l 1,23,-1
 1301 1413 l 1,24,-1
 1223 1284 l 1,25,26
 1288 1229 1288 1229 1334 1160.5 c 128,-1,27
 1380 1092 1380 1092 1408.5 1016 c 128,-1,28
 1437 940 1437 940 1450 858 c 128,-1,29
 1463 776 1463 776 1463 693 c 0,30,31
 1463 603 1463 603 1444.5 514 c 128,-1,32
 1426 425 1426 425 1387.5 345 c 128,-1,33
 1349 265 1349 265 1291 197 c 128,-1,34
 1233 129 1233 129 1154 79 c 0,35,36
 1063 22 1063 22 967.5 1 c 128,-1,37
 872 -20 872 -20 766 -20 c 0,0,1
458 373 m 1,38,-1
 940 1149 l 1,39,40
 899 1168 899 1168 855 1175.5 c 128,-1,41
 811 1183 811 1183 766 1183 c 0,42,43
 658 1183 658 1183 582.5 1145 c 128,-1,44
 507 1107 507 1107 460.5 1042 c 128,-1,45
 414 977 414 977 393 890.5 c 128,-1,46
 372 804 372 804 372 707 c 0,47,48
 372 619 372 619 391 533.5 c 128,-1,49
 410 448 410 448 458 373 c 1,38,-1
774 230 m 0,50,51
 880 230 880 230 953.5 269.5 c 128,-1,52
 1027 309 1027 309 1072.5 375 c 128,-1,53
 1118 441 1118 441 1138.5 527 c 128,-1,54
 1159 613 1159 613 1159 707 c 0,55,56
 1159 795 1159 795 1140 881 c 128,-1,57
 1121 967 1121 967 1074 1042 c 1,58,-1
 590 264 l 1,59,60
 634 245 634 245 680 237.5 c 128,-1,61
 726 230 726 230 774 230 c 0,50,51
EndSplineSet
Position2: "'cpsp' Capital Spacing lookup 0 subtable" dx=5 dy=0 dh=10 dv=0
EndChar

StartChar: Thorn
Encoding: 222 222 157
Width: 1151
GlyphClass: 1
Flags: W
LayerCount: 2
Fore
SplineSet
427 0 m 1,0,-1
 173 0 l 1,1,-1
 173 1413 l 1,2,-1
 427 1413 l 1,3,-1
 427 1221 l 1,4,-1
 685 1221 l 2,5,6
 782 1221 782 1221 861.5 1196.5 c 128,-1,7
 941 1172 941 1172 998 1122 c 128,-1,8
 1055 1072 1055 1072 1086 996.5 c 128,-1,9
 1117 921 1117 921 1117 819 c 0,10,11
 1117 706 1117 706 1077.5 624 c 128,-1,12
 1038 542 1038 542 970 489 c 128,-1,13
 902 436 902 436 810.5 411 c 128,-1,14
 719 386 719 386 615 386 c 2,15,-1
 427 386 l 1,16,-1
 427 0 l 1,0,-1
615 617 m 2,17,18
 666 617 666 617 711 625 c 128,-1,19
 756 633 756 633 789.5 654.5 c 128,-1,20
 823 676 823 676 843 713.5 c 128,-1,21
 863 751 863 751 863 809 c 256,22,23
 863 867 863 867 843.5 905 c 128,-1,24
 824 943 824 943 790.5 966 c 128,-1,25
 757 989 757 989 711.5 998.5 c 128,-1,26
 666 1008 666 1008 615 1008 c 2,27,-1
 427 1008 l 1,28,-1
 427 617 l 1,29,-1
 615 617 l 2,17,18
EndSplineSet
Position2: "'cpsp' Capital Spacing lookup 0 subtable" dx=5 dy=0 dh=10 dv=0
EndChar

StartChar: germandbls
Encoding: 223 223 158
Width: 1193
GlyphClass: 1
Flags: W
LayerCount: 2
Fore
SplineSet
743 -18 m 0,0,1
 696 -18 696 -18 650 -11 c 128,-1,2
 604 -4 604 -4 559 9 c 1,3,-1
 651 237 l 1,4,5
 692 225 692 225 736 225 c 0,6,7
 761 225 761 225 783 230.5 c 128,-1,8
 805 236 805 236 821.5 248 c 128,-1,9
 838 260 838 260 847.5 279.5 c 128,-1,10
 857 299 857 299 857 327 c 0,11,12
 857 364 857 364 835.5 394.5 c 128,-1,13
 814 425 814 425 782 454 c 128,-1,14
 750 483 750 483 713 513 c 128,-1,15
 676 543 676 543 644 578.5 c 128,-1,16
 612 614 612 614 590.5 658 c 128,-1,17
 569 702 569 702 569 759 c 0,18,19
 569 795 569 795 575.5 819.5 c 128,-1,20
 582 844 582 844 593 861 c 128,-1,21
 604 878 604 878 619.5 890.5 c 128,-1,22
 635 903 635 903 653.5 915 c 128,-1,23
 672 927 672 927 692 941 c 128,-1,24
 712 955 712 955 733 975 c 0,25,26
 753 995 753 995 770 1020.5 c 128,-1,27
 787 1046 787 1046 787 1075 c 0,28,29
 787 1086 787 1086 784 1094 c 128,-1,30
 781 1102 781 1102 776 1112 c 0,31,32
 750 1166 750 1166 708.5 1184 c 128,-1,33
 667 1202 667 1202 609 1202 c 0,34,35
 547 1202 547 1202 509 1187 c 128,-1,36
 471 1172 471 1172 450 1143.5 c 128,-1,37
 429 1115 429 1115 422.5 1074 c 128,-1,38
 416 1033 416 1033 416 980 c 2,39,-1
 417 0 l 1,40,-1
 146 0 l 1,41,42
 146 252 146 252 144.5 412.5 c 128,-1,43
 143 573 143 573 143 644 c 0,44,45
 143 1035 143 1035 156 1114 c 0,46,47
 165 1165 165 1165 187 1208.5 c 128,-1,48
 209 1252 209 1252 241.5 1288 c 128,-1,49
 274 1324 274 1324 316 1352 c 128,-1,50
 358 1380 358 1380 404 1399 c 0,51,52
 453 1419 453 1419 501 1426.5 c 128,-1,53
 549 1434 549 1434 602 1434 c 0,54,55
 683 1434 683 1434 762.5 1407.5 c 128,-1,56
 842 1381 842 1381 906.5 1332 c 128,-1,57
 971 1283 971 1283 1011 1213 c 128,-1,58
 1051 1143 1051 1143 1051 1056 c 0,59,60
 1051 995 1051 995 1033.5 953 c 128,-1,61
 1016 911 1016 911 990 882.5 c 128,-1,62
 964 854 964 854 934 836 c 128,-1,63
 904 818 904 818 878 804.5 c 128,-1,64
 852 791 852 791 834.5 778 c 128,-1,65
 817 765 817 765 817 747 c 0,66,67
 817 727 817 727 840.5 708 c 128,-1,68
 864 689 864 689 899 666 c 128,-1,69
 934 643 934 643 974.5 614 c 128,-1,70
 1015 585 1015 585 1050 544 c 128,-1,71
 1085 503 1085 503 1108.5 448 c 128,-1,72
 1132 393 1132 393 1132 319 c 0,73,74
 1132 240 1132 240 1098.5 177.5 c 128,-1,75
 1065 115 1065 115 1010.5 71.5 c 128,-1,76
 956 28 956 28 886.5 5 c 128,-1,77
 817 -18 817 -18 743 -18 c 0,0,1
EndSplineSet
EndChar

StartChar: ae
Encoding: 230 230 165
Width: 1734
GlyphClass: 1
Flags: W
LayerCount: 2
Fore
SplineSet
402 -20 m 0,0,1
 331 -20 331 -20 265.5 3 c 128,-1,2
 200 26 200 26 149 69 c 128,-1,3
 98 112 98 112 67 173 c 128,-1,4
 36 234 36 234 36 309 c 0,5,6
 36 403 36 403 72.5 463.5 c 128,-1,7
 109 524 109 524 168 559.5 c 128,-1,8
 227 595 227 595 303 609 c 128,-1,9
 379 623 379 623 457 623 c 2,10,-1
 722 623 l 1,11,12
 722 682 722 682 707.5 720 c 128,-1,13
 693 758 693 758 665.5 781 c 128,-1,14
 638 804 638 804 598.5 813 c 128,-1,15
 559 822 559 822 509 822 c 0,16,17
 475 822 475 822 441 812 c 128,-1,18
 407 802 407 802 376.5 784.5 c 128,-1,19
 346 767 346 767 319.5 742 c 128,-1,20
 293 717 293 717 273 687 c 1,21,-1
 83 841 l 1,22,23
 165 952 165 952 273 1004 c 128,-1,24
 381 1056 381 1056 521 1056 c 0,25,26
 623 1056 623 1056 713.5 1017.5 c 128,-1,27
 804 979 804 979 867 900 c 1,28,29
 939 975 939 975 1024 1013.5 c 128,-1,30
 1109 1052 1109 1052 1216 1052 c 0,31,32
 1337 1052 1337 1052 1425.5 1010.5 c 128,-1,33
 1514 969 1514 969 1571.5 897.5 c 128,-1,34
 1629 826 1629 826 1656.5 729.5 c 128,-1,35
 1684 633 1684 633 1684 521 c 0,36,37
 1684 497 1684 497 1681.5 475 c 128,-1,38
 1679 453 1679 453 1672 430 c 1,39,-1
 961 430 l 1,40,41
 970 381 970 381 991.5 346 c 128,-1,42
 1013 311 1013 311 1044 288.5 c 128,-1,43
 1075 266 1075 266 1113.5 255.5 c 128,-1,44
 1152 245 1152 245 1196 245 c 0,45,46
 1234 245 1234 245 1267 248.5 c 128,-1,47
 1300 252 1300 252 1330 262.5 c 128,-1,48
 1360 273 1360 273 1387 292.5 c 128,-1,49
 1414 312 1414 312 1441 343 c 1,50,-1
 1641 166 l 1,51,52
 1549 69 1549 69 1441 28.5 c 128,-1,53
 1333 -12 1333 -12 1198 -12 c 0,54,55
 1148 -12 1148 -12 1100.5 -6.5 c 128,-1,56
 1053 -1 1053 -1 1007.5 13.5 c 128,-1,57
 962 28 962 28 921 52 c 128,-1,58
 880 76 880 76 846 113 c 1,59,60
 746 39 746 39 636 9.5 c 128,-1,61
 526 -20 526 -20 402 -20 c 0,0,1
1402 623 m 1,62,63
 1382 727 1382 727 1331 775.5 c 128,-1,64
 1280 824 1280 824 1180 824 c 0,65,66
 1085 824 1085 824 1033.5 772 c 128,-1,67
 982 720 982 720 964 623 c 1,68,-1
 1402 623 l 1,62,63
454 202 m 0,69,70
 500 202 500 202 543.5 221 c 128,-1,71
 587 240 587 240 624 272 c 128,-1,72
 661 304 661 304 686.5 346.5 c 128,-1,73
 712 389 712 389 721 435 c 1,74,75
 666 429 666 429 611 429 c 2,76,-1
 468 430 l 2,77,78
 442 430 442 430 410.5 424.5 c 128,-1,79
 379 419 379 419 352 406 c 128,-1,80
 325 393 325 393 306.5 370 c 128,-1,81
 288 347 288 347 288 311 c 0,82,83
 288 274 288 274 304 252 c 128,-1,84
 320 230 320 230 343.5 218.5 c 128,-1,85
 367 207 367 207 396.5 204.5 c 128,-1,86
 426 202 426 202 454 202 c 0,69,70
EndSplineSet
EndChar

StartChar: eth
Encoding: 240 240 175
Width: 1205
GlyphClass: 1
Flags: W
LayerCount: 2
Fore
SplineSet
595 -16 m 0,0,1
 471 -16 471 -16 370 24.5 c 128,-1,2
 269 65 269 65 197 138.5 c 128,-1,3
 125 212 125 212 86 316 c 128,-1,4
 47 420 47 420 47 546 c 0,5,6
 47 658 47 658 85 752.5 c 128,-1,7
 123 847 123 847 190.5 915 c 128,-1,8
 258 983 258 983 351 1021.5 c 128,-1,9
 444 1060 444 1060 554 1060 c 0,10,11
 628 1060 628 1060 689.5 1044 c 128,-1,12
 751 1028 751 1028 812 986 c 1,13,14
 790 1033 790 1033 761.5 1071.5 c 128,-1,15
 733 1110 733 1110 697 1141 c 128,-1,16
 661 1172 661 1172 618.5 1197 c 128,-1,17
 576 1222 576 1222 525 1244 c 1,18,-1
 445 1141 l 1,19,-1
 335 1204 l 1,20,-1
 335 1205 l 2,21,22
 335 1206 335 1206 337 1206.5 c 128,-1,23
 339 1207 339 1207 339 1208 c 2,24,-1
 339 1209 l 1,25,-1
 349 1221 l 2,26,27
 349 1223 349 1223 351 1224 c 2,28,-1
 353 1228 l 1,29,-1
 354 1228 l 1,30,-1
 360 1236 l 1,31,-1
 360 1237 l 2,32,33
 360 1238 360 1238 362.5 1239.5 c 128,-1,34
 365 1241 365 1241 366 1242 c 2,35,-1
 366 1243 l 2,36,37
 366 1244 366 1244 367.5 1244.5 c 128,-1,38
 369 1245 369 1245 369 1246 c 2,39,-1
 369 1247 l 1,40,-1
 401 1289 l 1,41,-1
 273 1320 l 1,42,-1
 397 1519 l 1,43,44
 433 1507 433 1507 469.5 1494.5 c 128,-1,45
 506 1482 506 1482 540 1466 c 1,46,-1
 613 1558 l 1,47,-1
 725 1501 l 1,48,49
 707 1479 707 1479 691 1456.5 c 128,-1,50
 675 1434 675 1434 657 1413 c 1,51,52
 781 1343 781 1343 870 1257.5 c 128,-1,53
 959 1172 959 1172 1017 1069 c 128,-1,54
 1075 966 1075 966 1102.5 845.5 c 128,-1,55
 1130 725 1130 725 1130 586 c 0,56,57
 1130 456 1130 456 1100.5 345.5 c 128,-1,58
 1071 235 1071 235 1007.5 155 c 128,-1,59
 944 75 944 75 842.5 29.5 c 128,-1,60
 741 -16 741 -16 595 -16 c 0,0,1
587 235 m 0,61,62
 651 235 651 235 702 258.5 c 128,-1,63
 753 282 753 282 787.5 323.5 c 128,-1,64
 822 365 822 365 840.5 420 c 128,-1,65
 859 475 859 475 859 538 c 0,66,67
 859 602 859 602 840.5 657 c 128,-1,68
 822 712 822 712 787.5 752 c 128,-1,69
 753 792 753 792 702.5 814.5 c 128,-1,70
 652 837 652 837 587 837 c 0,71,72
 525 837 525 837 475 813.5 c 128,-1,73
 425 790 425 790 390 748.5 c 128,-1,74
 355 707 355 707 336.5 652.5 c 128,-1,75
 318 598 318 598 318 536 c 256,76,77
 318 474 318 474 336 419 c 128,-1,78
 354 364 354 364 389 323 c 128,-1,79
 424 282 424 282 474 258.5 c 128,-1,80
 524 235 524 235 587 235 c 0,61,62
EndSplineSet
EndChar

StartChar: divide
Encoding: 247 247 182
Width: 1362
GlyphClass: 1
Flags: W
LayerCount: 2
Fore
SplineSet
826 812 m 1,0,-1
 538 812 l 1,1,-1
 538 1098 l 1,2,-1
 826 1098 l 1,3,-1
 826 812 l 1,0,-1
1294 526 m 1,4,-1
 71 526 l 1,5,-1
 71 732 l 1,6,-1
 1294 732 l 1,7,-1
 1294 526 l 1,4,-1
826 143 m 1,8,-1
 538 143 l 1,9,-1
 538 431 l 1,10,-1
 826 431 l 1,11,-1
 826 143 l 1,8,-1
EndSplineSet
EndChar

StartChar: oslash
Encoding: 248 248 183
Width: 1150
GlyphClass: 1
Flags: W
LayerCount: 2
Fore
SplineSet
572 -20 m 0,0,1
 513 -20 513 -20 455 -9 c 128,-1,2
 397 2 397 2 342 25 c 1,3,-1
 326 -2 l 1,4,-1
 185 -2 l 1,5,-1
 238 85 l 1,6,7
 136 166 136 166 89 278 c 128,-1,8
 42 390 42 390 42 522 c 0,9,10
 42 602 42 602 64.5 677 c 128,-1,11
 87 752 87 752 128.5 816 c 128,-1,12
 170 880 170 880 229 930 c 128,-1,13
 288 980 288 980 360 1011 c 0,14,15
 414 1035 414 1035 467 1043.5 c 128,-1,16
 520 1052 520 1052 579 1052 c 0,17,18
 637 1052 637 1052 693.5 1042 c 128,-1,19
 750 1032 750 1032 803 1010 c 1,20,-1
 822 1039 l 1,21,-1
 963 1039 l 1,22,-1
 908 950 l 1,23,24
 1012 871 1012 871 1060.5 756 c 128,-1,25
 1109 641 1109 641 1109 510 c 0,26,27
 1109 430 1109 430 1086.5 354.5 c 128,-1,28
 1064 279 1064 279 1022.5 215 c 128,-1,29
 981 151 981 151 922 101 c 128,-1,30
 863 51 863 51 790 20 c 0,31,32
 737 -3 737 -3 683 -11.5 c 128,-1,33
 629 -20 629 -20 572 -20 c 0,0,1
375 313 m 1,34,-1
 671 802 l 1,35,36
 647 811 647 811 623 813.5 c 128,-1,37
 599 816 599 816 575 816 c 0,38,39
 511 816 511 816 463 792.5 c 128,-1,40
 415 769 415 769 384 727.5 c 128,-1,41
 353 686 353 686 338 631.5 c 128,-1,42
 323 577 323 577 323 516 c 0,43,44
 323 462 323 462 334.5 410 c 128,-1,45
 346 358 346 358 375 313 c 1,34,-1
575 214 m 0,46,47
 643 214 643 214 691.5 237 c 128,-1,48
 740 260 740 260 770 300.5 c 128,-1,49
 800 341 800 341 814 396.5 c 128,-1,50
 828 452 828 452 828 516 c 0,51,52
 828 571 828 571 815 624.5 c 128,-1,53
 802 678 802 678 772 724 c 1,54,-1
 473 232 l 1,55,56
 497 222 497 222 523 218 c 128,-1,57
 549 214 549 214 575 214 c 0,46,47
EndSplineSet
EndChar

StartChar: thorn
Encoding: 254 254 189
Width: 1177
GlyphClass: 1
Flags: W
LayerCount: 2
Fore
SplineSet
400 -438 m 1,0,-1
 145 -438 l 1,1,-1
 145 1413 l 1,2,-1
 400 1413 l 1,3,-1
 400 976 l 1,4,5
 462 1023 462 1023 531.5 1041.5 c 128,-1,6
 601 1060 601 1060 678 1060 c 0,7,8
 756 1060 756 1060 823 1035.5 c 128,-1,9
 890 1011 890 1011 944 967 c 128,-1,10
 998 923 998 923 1038 862 c 128,-1,11
 1078 801 1078 801 1101 729 c 0,12,13
 1118 675 1118 675 1124.5 621 c 128,-1,14
 1131 567 1131 567 1131 511 c 0,15,16
 1131 410 1131 410 1101.5 314 c 128,-1,17
 1072 218 1072 218 1014 144 c 128,-1,18
 956 70 956 70 871.5 25 c 128,-1,19
 787 -20 787 -20 679 -20 c 0,20,21
 605 -20 605 -20 531.5 -1.5 c 128,-1,22
 458 17 458 17 400 64 c 1,23,-1
 400 -438 l 1,0,-1
632 212 m 0,24,25
 697 212 697 212 744.5 237 c 128,-1,26
 792 262 792 262 822.5 305 c 128,-1,27
 853 348 853 348 867.5 403.5 c 128,-1,28
 882 459 882 459 882 520 c 0,29,30
 882 582 882 582 868 637 c 128,-1,31
 854 692 854 692 823.5 734 c 128,-1,32
 793 776 793 776 745.5 800 c 128,-1,33
 698 824 698 824 632 824 c 0,34,35
 567 824 567 824 519.5 800 c 128,-1,36
 472 776 472 776 441.5 734 c 128,-1,37
 411 692 411 692 397 637 c 128,-1,38
 383 582 383 582 383 520 c 256,39,40
 383 458 383 458 397 402 c 128,-1,41
 411 346 411 346 440.5 303.5 c 128,-1,42
 470 261 470 261 518 236.5 c 128,-1,43
 566 212 566 212 632 212 c 0,24,25
EndSplineSet
EndChar

StartChar: ydieresis
Encoding: 255 255 190
Width: 1076
GlyphClass: 1
Flags: W
LayerCount: 2
Fore
SplineSet
462 1178 m 1,0,-1
 246 1178 l 1,1,-1
 246 1413 l 1,2,-1
 462 1413 l 1,3,-1
 462 1178 l 1,0,-1
828 1178 m 1,4,-1
 613 1178 l 1,5,-1
 613 1413 l 1,6,-1
 828 1413 l 1,7,-1
 828 1178 l 1,4,-1
497 -430 m 1,8,-1
 193 -430 l 1,9,-1
 383 34 l 1,10,-1
 -20 999 l 1,11,-1
 290 999 l 1,12,-1
 533 343 l 1,13,-1
 783 999 l 1,14,-1
 1095 999 l 1,15,-1
 497 -430 l 1,8,-1
EndSplineSet
EndChar

StartChar: Aogonek
Encoding: 260 260 195
Width: 1355
GlyphClass: 1
Flags: W
LayerCount: 2
Fore
SplineSet
1230 -451 m 0,0,1
 1184 -451 1184 -451 1142.5 -437.5 c 128,-1,2
 1101 -424 1101 -424 1069 -397.5 c 128,-1,3
 1037 -371 1037 -371 1018 -333 c 128,-1,4
 999 -295 999 -295 999 -246 c 0,5,6
 999 -212 999 -212 1013.5 -177.5 c 128,-1,7
 1028 -143 1028 -143 1050 -110.5 c 128,-1,8
 1072 -78 1072 -78 1099 -49.5 c 128,-1,9
 1126 -21 1126 -21 1150 0 c 1,10,-1
 1052 0 l 1,11,-1
 943 307 l 1,12,-1
 416 307 l 1,13,-1
 305 0 l 1,14,-1
 -4 0 l 1,15,-1
 573 1413 l 1,16,-1
 784 1413 l 1,17,-1
 1358 0 l 1,18,-1
 1359 0 l 1,19,20
 1328 -12 1328 -12 1292 -31.5 c 128,-1,21
 1256 -51 1256 -51 1225.5 -77.5 c 128,-1,22
 1195 -104 1195 -104 1175 -137 c 128,-1,23
 1155 -170 1155 -170 1155 -208 c 256,24,25
 1155 -246 1155 -246 1168.5 -268 c 128,-1,26
 1182 -290 1182 -290 1225 -290 c 0,27,28
 1255 -290 1255 -290 1280 -274.5 c 128,-1,29
 1305 -259 1305 -259 1322 -235 c 1,30,-1
 1453 -325 l 1,31,32
 1413 -384 1413 -384 1358 -417.5 c 128,-1,33
 1303 -451 1303 -451 1230 -451 c 0,0,1
846 546 m 1,34,-1
 680 996 l 1,35,-1
 512 546 l 1,36,-1
 846 546 l 1,34,-1
EndSplineSet
Position2: "'cpsp' Capital Spacing lookup 0 subtable" dx=5 dy=0 dh=10 dv=0
EndChar

StartChar: aogonek
Encoding: 261 261 196
Width: 1087
GlyphClass: 1
Flags: W
LayerCount: 2
Fore
SplineSet
852 -451 m 0,0,1
 807 -451 807 -451 764.5 -437 c 128,-1,2
 722 -423 722 -423 689.5 -397 c 128,-1,3
 657 -371 657 -371 638 -332.5 c 128,-1,4
 619 -294 619 -294 619 -246 c 0,5,6
 619 -209 619 -209 633 -174 c 128,-1,7
 647 -139 647 -139 669 -107.5 c 128,-1,8
 691 -76 691 -76 718 -48 c 128,-1,9
 745 -20 745 -20 772 3 c 1,10,-1
 768 0 l 1,11,-1
 755 0 l 1,12,-1
 735 127 l 1,13,14
 703 86 703 86 669.5 58 c 128,-1,15
 636 30 636 30 597.5 12.5 c 128,-1,16
 559 -5 559 -5 515.5 -12.5 c 128,-1,17
 472 -20 472 -20 421 -20 c 0,18,19
 346 -20 346 -20 275.5 3.5 c 128,-1,20
 205 27 205 27 151.5 72 c 128,-1,21
 98 117 98 117 66 181.5 c 128,-1,22
 34 246 34 246 34 327 c 0,23,24
 34 417 34 417 70.5 475 c 128,-1,25
 107 533 107 533 165 566 c 128,-1,26
 223 599 223 599 295.5 612 c 128,-1,27
 368 625 368 625 441 625 c 2,28,-1
 716 625 l 1,29,30
 716 718 716 718 664 767.5 c 128,-1,31
 612 817 612 817 529 817 c 0,32,33
 452 817 452 817 395 779 c 128,-1,34
 338 741 338 741 300 668 c 1,35,-1
 89 834 l 1,36,37
 172 945 172 945 278.5 1000.5 c 128,-1,38
 385 1056 385 1056 526 1056 c 0,39,40
 622 1056 622 1056 705.5 1028 c 128,-1,41
 789 1000 789 1000 849.5 945.5 c 128,-1,42
 910 891 910 891 944.5 810.5 c 128,-1,43
 979 730 979 730 979 625 c 2,44,-1
 979 0 l 1,45,46
 947 -14 947 -14 911 -33 c 128,-1,47
 875 -52 875 -52 845 -78 c 128,-1,48
 815 -104 815 -104 795 -136.5 c 128,-1,49
 775 -169 775 -169 775 -208 c 256,50,51
 775 -247 775 -247 788.5 -268.5 c 128,-1,52
 802 -290 802 -290 845 -290 c 0,53,54
 878 -290 878 -290 900 -275.5 c 128,-1,55
 922 -261 922 -261 942 -235 c 1,56,-1
 1077 -325 l 1,57,58
 1038 -386 1038 -386 982 -418.5 c 128,-1,59
 926 -451 926 -451 852 -451 c 0,0,1
479 211 m 0,60,61
 518 211 518 211 560 228 c 128,-1,62
 602 245 602 245 637 274.5 c 128,-1,63
 672 304 672 304 694 344 c 128,-1,64
 716 384 716 384 716 429 c 1,65,-1
 532 429 l 2,66,67
 505 429 505 429 475.5 427 c 128,-1,68
 446 425 446 425 417 419 c 128,-1,69
 388 413 388 413 365.5 400.5 c 128,-1,70
 343 388 343 388 328.5 367.5 c 128,-1,71
 314 347 314 347 314 317 c 0,72,73
 314 284 314 284 331 263.5 c 128,-1,74
 348 243 348 243 373.5 231.5 c 128,-1,75
 399 220 399 220 427.5 215.5 c 128,-1,76
 456 211 456 211 479 211 c 0,60,61
EndSplineSet
EndChar

StartChar: Dcaron
Encoding: 270 270 205
Width: 1410
GlyphClass: 1
Flags: W
LayerCount: 2
Fore
SplineSet
718 1489 m 1,0,-1
 406 1821 l 1,1,-1
 604 1821 l 1,2,-1
 718 1701 l 1,3,-1
 835 1821 l 1,4,-1
 1032 1821 l 1,5,-1
 718 1489 l 1,0,-1
596 0 m 2,6,-1
 173 0 l 1,7,-1
 173 1413 l 1,8,-1
 598 1413 l 2,9,10
 774 1413 774 1413 912 1368.5 c 128,-1,11
 1050 1324 1050 1324 1145 1234.5 c 128,-1,12
 1240 1145 1240 1145 1290 1010.5 c 128,-1,13
 1340 876 1340 876 1340 696 c 0,14,15
 1340 521 1340 521 1287 390.5 c 128,-1,16
 1234 260 1234 260 1136.5 173 c 128,-1,17
 1039 86 1039 86 901.5 43 c 128,-1,18
 764 0 764 0 596 0 c 2,6,-1
571 260 m 2,19,20
 690 260 690 260 780.5 283 c 128,-1,21
 871 306 871 306 932 359 c 128,-1,22
 993 412 993 412 1024.5 497.5 c 128,-1,23
 1056 583 1056 583 1056 707 c 0,24,25
 1056 830 1056 830 1030 915 c 128,-1,26
 1004 1000 1004 1000 949 1052.5 c 128,-1,27
 894 1105 894 1105 807.5 1128 c 128,-1,28
 721 1151 721 1151 599 1151 c 2,29,-1
 456 1151 l 1,30,-1
 456 260 l 1,31,-1
 571 260 l 2,19,20
EndSplineSet
Position2: "'cpsp' Capital Spacing lookup 0 subtable" dx=5 dy=0 dh=10 dv=0
EndChar

StartChar: dcaron
Encoding: 271 271 206
Width: 1344
GlyphClass: 1
Flags: W
LayerCount: 2
Fore
SplineSet
501 -20 m 0,0,1
 423 -20 423 -20 356.5 4.5 c 128,-1,2
 290 29 290 29 236.5 73 c 128,-1,3
 183 117 183 117 144.5 178.5 c 128,-1,4
 106 240 106 240 84 313 c 0,5,6
 68 367 68 367 61.5 420.5 c 128,-1,7
 55 474 55 474 55 530 c 0,8,9
 55 595 55 595 68 660.5 c 128,-1,10
 81 726 81 726 106.5 784.5 c 128,-1,11
 132 843 132 843 169.5 893.5 c 128,-1,12
 207 944 207 944 255.5 980.5 c 128,-1,13
 304 1017 304 1017 364.5 1038.5 c 128,-1,14
 425 1060 425 1060 496 1060 c 0,15,16
 536 1060 536 1060 576 1054 c 128,-1,17
 616 1048 616 1048 653.5 1035 c 128,-1,18
 691 1022 691 1022 725 1001 c 128,-1,19
 759 980 759 980 786 950 c 1,20,-1
 786 1413 l 1,21,-1
 1064 1413 l 1,22,-1
 1064 0 l 1,23,-1
 786 0 l 1,24,-1
 786 89 l 1,25,26
 760 57 760 57 726.5 36 c 128,-1,27
 693 15 693 15 656.5 2.5 c 128,-1,28
 620 -10 620 -10 580.5 -15 c 128,-1,29
 541 -20 541 -20 501 -20 c 0,0,1
1340 979 m 1,30,-1
 1179 979 l 1,31,-1
 1302 1413 l 1,32,-1
 1583 1413 l 1,33,-1
 1340 979 l 1,30,-1
572 233 m 0,34,35
 636 233 636 233 681.5 255 c 128,-1,36
 727 277 727 277 755 315.5 c 128,-1,37
 783 354 783 354 796 407 c 128,-1,38
 809 460 809 460 809 520 c 256,39,40
 809 580 809 580 796 633.5 c 128,-1,41
 783 687 783 687 755 727 c 128,-1,42
 727 767 727 767 681.5 790 c 128,-1,43
 636 813 636 813 572 813 c 256,44,45
 508 813 508 813 462 790 c 128,-1,46
 416 767 416 767 387.5 726.5 c 128,-1,47
 359 686 359 686 345.5 633 c 128,-1,48
 332 580 332 580 332 520 c 0,49,50
 332 458 332 458 345 405 c 128,-1,51
 358 352 358 352 387 314 c 128,-1,52
 416 276 416 276 461.5 254.5 c 128,-1,53
 507 233 507 233 572 233 c 0,34,35
EndSplineSet
EndChar

StartChar: Dcroat
Encoding: 272 272 207
Width: 1432
GlyphClass: 1
Flags: W
LayerCount: 2
Fore
SplineSet
605 0 m 2,0,-1
 197 0 l 1,1,-1
 197 610 l 1,2,-1
 84 610 l 1,3,-1
 84 816 l 1,4,-1
 197 816 l 1,5,-1
 197 1413 l 1,6,-1
 607 1413 l 2,7,8
 780 1413 780 1413 920 1368 c 128,-1,9
 1060 1323 1060 1323 1159 1233.5 c 128,-1,10
 1258 1144 1258 1144 1311.5 1009.5 c 128,-1,11
 1365 875 1365 875 1365 696 c 0,12,13
 1365 520 1365 520 1309 389 c 128,-1,14
 1253 258 1253 258 1152.5 171.5 c 128,-1,15
 1052 85 1052 85 912 42.5 c 128,-1,16
 772 0 772 0 605 0 c 2,0,-1
581 241 m 2,17,18
 698 241 698 241 794.5 266.5 c 128,-1,19
 891 292 891 292 960.5 348 c 128,-1,20
 1030 404 1030 404 1068 492.5 c 128,-1,21
 1106 581 1106 581 1106 707 c 256,22,23
 1106 833 1106 833 1073 922 c 128,-1,24
 1040 1011 1040 1011 976 1066.5 c 128,-1,25
 912 1122 912 1122 818 1147.5 c 128,-1,26
 724 1173 724 1173 603 1173 c 2,27,-1
 453 1173 l 1,28,-1
 453 816 l 1,29,-1
 834 816 l 1,30,-1
 834 610 l 1,31,-1
 453 610 l 1,32,-1
 453 241 l 1,33,-1
 581 241 l 2,17,18
EndSplineSet
Position2: "'cpsp' Capital Spacing lookup 0 subtable" dx=5 dy=0 dh=10 dv=0
EndChar

StartChar: dcroat
Encoding: 273 273 208
Width: 1205
GlyphClass: 1
Flags: W
LayerCount: 2
Fore
SplineSet
501 -20 m 0,0,1
 424 -20 424 -20 358 5 c 128,-1,2
 292 30 292 30 238.5 74 c 128,-1,3
 185 118 185 118 146 179 c 128,-1,4
 107 240 107 240 85 312 c 0,5,6
 68 366 68 366 61.5 420 c 128,-1,7
 55 474 55 474 55 530 c 0,8,9
 55 631 55 631 84.5 726.5 c 128,-1,10
 114 822 114 822 170.5 896 c 128,-1,11
 227 970 227 970 310.5 1015 c 128,-1,12
 394 1060 394 1060 503 1060 c 0,13,14
 542 1060 542 1060 581.5 1054 c 128,-1,15
 621 1048 621 1048 657.5 1034.5 c 128,-1,16
 694 1021 694 1021 727 1000.5 c 128,-1,17
 760 980 760 980 786 950 c 1,18,-1
 786 1152 l 1,19,-1
 532 1152 l 1,20,-1
 532 1331 l 1,21,-1
 786 1331 l 1,22,-1
 786 1413 l 1,23,-1
 1064 1413 l 1,24,-1
 1064 1331 l 1,25,-1
 1181 1331 l 1,26,-1
 1181 1152 l 1,27,-1
 1064 1152 l 1,28,-1
 1064 0 l 1,29,-1
 812 0 l 1,30,31
 807 26 807 26 804.5 51.5 c 128,-1,32
 802 77 802 77 798 103 c 1,33,34
 772 69 772 69 737.5 45.5 c 128,-1,35
 703 22 703 22 664.5 7.5 c 128,-1,36
 626 -7 626 -7 584.5 -13.5 c 128,-1,37
 543 -20 543 -20 501 -20 c 0,0,1
572 233 m 0,38,39
 636 233 636 233 681.5 255 c 128,-1,40
 727 277 727 277 755 315.5 c 128,-1,41
 783 354 783 354 796 407 c 128,-1,42
 809 460 809 460 809 520 c 256,43,44
 809 580 809 580 796 633.5 c 128,-1,45
 783 687 783 687 755 727 c 128,-1,46
 727 767 727 767 681.5 790 c 128,-1,47
 636 813 636 813 572 813 c 256,48,49
 508 813 508 813 462 790 c 128,-1,50
 416 767 416 767 387.5 726.5 c 128,-1,51
 359 686 359 686 345.5 633 c 128,-1,52
 332 580 332 580 332 520 c 0,53,54
 332 458 332 458 345 405 c 128,-1,55
 358 352 358 352 387 314 c 128,-1,56
 416 276 416 276 461.5 254.5 c 128,-1,57
 507 233 507 233 572 233 c 0,38,39
EndSplineSet
EndChar

StartChar: Eogonek
Encoding: 280 280 215
Width: 1247
GlyphClass: 1
Flags: W
LayerCount: 2
Fore
SplineSet
992 -451 m 0,0,1
 946 -451 946 -451 904.5 -437.5 c 128,-1,2
 863 -424 863 -424 831 -397.5 c 128,-1,3
 799 -371 799 -371 780 -333 c 128,-1,4
 761 -295 761 -295 761 -246 c 0,5,6
 761 -212 761 -212 775.5 -177.5 c 128,-1,7
 790 -143 790 -143 812 -110.5 c 128,-1,8
 834 -78 834 -78 861 -49.5 c 128,-1,9
 888 -21 888 -21 912 0 c 1,10,-1
 173 0 l 1,11,-1
 173 1413 l 1,12,-1
 1120 1413 l 1,13,-1
 1120 1150 l 1,14,-1
 456 1150 l 1,15,-1
 456 838 l 1,16,-1
 1090 838 l 1,17,-1
 1090 574 l 1,18,-1
 456 574 l 1,19,-1
 456 270 l 1,20,-1
 1120 270 l 1,21,-1
 1120 0 l 1,22,-1
 1121 0 l 1,23,24
 1090 -12 1090 -12 1054 -31.5 c 128,-1,25
 1018 -51 1018 -51 987.5 -77.5 c 128,-1,26
 957 -104 957 -104 937 -137 c 128,-1,27
 917 -170 917 -170 917 -208 c 256,28,29
 917 -246 917 -246 930.5 -268 c 128,-1,30
 944 -290 944 -290 987 -290 c 0,31,32
 1017 -290 1017 -290 1042 -274.5 c 128,-1,33
 1067 -259 1067 -259 1084 -235 c 1,34,-1
 1215 -325 l 1,35,36
 1175 -384 1175 -384 1120 -417.5 c 128,-1,37
 1065 -451 1065 -451 992 -451 c 0,0,1
EndSplineSet
Position2: "'cpsp' Capital Spacing lookup 0 subtable" dx=5 dy=0 dh=10 dv=0
EndChar

StartChar: eogonek
Encoding: 281 281 216
Width: 1109
GlyphClass: 1
Flags: W
LayerCount: 2
Fore
SplineSet
731 -404 m 0,0,1
 685 -404 685 -404 642 -390.5 c 128,-1,2
 599 -377 599 -377 565.5 -350.5 c 128,-1,3
 532 -324 532 -324 512.5 -286 c 128,-1,4
 493 -248 493 -248 493 -199 c 0,5,6
 493 -145 493 -145 515.5 -98 c 128,-1,7
 538 -51 538 -51 573 -12 c 1,8,9
 454 -12 454 -12 356.5 27 c 128,-1,10
 259 66 259 66 190 136.5 c 128,-1,11
 121 207 121 207 83.5 306 c 128,-1,12
 46 405 46 405 46 523 c 0,13,14
 46 636 46 636 83 733 c 128,-1,15
 120 830 120 830 188 901 c 128,-1,16
 256 972 256 972 350.5 1012 c 128,-1,17
 445 1052 445 1052 559 1052 c 0,18,19
 684 1052 684 1052 778.5 1014.5 c 128,-1,20
 873 977 873 977 936 908 c 128,-1,21
 999 839 999 839 1030.5 741 c 128,-1,22
 1062 643 1062 643 1062 522 c 0,23,24
 1062 513 1062 513 1061.5 500.5 c 128,-1,25
 1061 488 1061 488 1059.5 475 c 128,-1,26
 1058 462 1058 462 1055.5 450 c 128,-1,27
 1053 438 1053 438 1050 430 c 1,28,-1
 346 430 l 1,29,30
 364 331 364 331 425.5 288 c 128,-1,31
 487 245 487 245 576 245 c 0,32,33
 615 245 615 245 648 248.5 c 128,-1,34
 681 252 681 252 710 262.5 c 128,-1,35
 739 273 739 273 767 292.5 c 128,-1,36
 795 312 795 312 823 343 c 1,37,-1
 1019 166 l 1,38,39
 993 139 993 139 969.5 119.5 c 128,-1,40
 946 100 946 100 921.5 84.5 c 128,-1,41
 897 69 897 69 870 55 c 128,-1,42
 843 41 843 41 809 25 c 0,43,44
 783 13 783 13 754.5 -6.5 c 128,-1,45
 726 -26 726 -26 703 -50 c 128,-1,46
 680 -74 680 -74 665 -102 c 128,-1,47
 650 -130 650 -130 650 -161 c 0,48,49
 650 -200 650 -200 664 -221 c 128,-1,50
 678 -242 678 -242 723 -242 c 0,51,52
 755 -242 755 -242 780 -227 c 128,-1,53
 805 -212 805 -212 824 -187 c 1,54,55
 858 -210 858 -210 892.5 -232.5 c 128,-1,56
 927 -255 927 -255 960 -278 c 1,57,58
 919 -338 919 -338 862.5 -371 c 128,-1,59
 806 -404 806 -404 731 -404 c 0,0,1
780 623 m 1,60,61
 763 728 763 728 710.5 776 c 128,-1,62
 658 824 658 824 560 824 c 0,63,64
 470 824 470 824 418.5 769.5 c 128,-1,65
 367 715 367 715 346 623 c 1,66,-1
 780 623 l 1,60,61
EndSplineSet
EndChar

StartChar: Hbar
Encoding: 294 294 229
Width: 1502
GlyphClass: 1
Flags: W
LayerCount: 2
Fore
SplineSet
1329 0 m 1,0,-1
 1046 0 l 1,1,-1
 1046 574 l 1,2,-1
 456 574 l 1,3,-1
 456 0 l 1,4,-1
 173 0 l 1,5,-1
 173 1034 l 1,6,-1
 73 1034 l 1,7,-1
 73 1194 l 1,8,-1
 173 1194 l 1,9,-1
 173 1413 l 1,10,-1
 456 1413 l 1,11,-1
 456 1194 l 1,12,-1
 1046 1194 l 1,13,-1
 1046 1413 l 1,14,-1
 1329 1413 l 1,15,-1
 1329 1194 l 1,16,-1
 1427 1194 l 1,17,-1
 1427 1034 l 1,18,-1
 1329 1034 l 1,19,-1
 1329 0 l 1,0,-1
1046 838 m 1,20,-1
 1046 1034 l 1,21,-1
 456 1034 l 1,22,-1
 456 838 l 1,23,-1
 1046 838 l 1,20,-1
EndSplineSet
Position2: "'cpsp' Capital Spacing lookup 0 subtable" dx=5 dy=0 dh=10 dv=0
EndChar

StartChar: hbar
Encoding: 295 295 230
Width: 1203
GlyphClass: 1
Flags: W
LayerCount: 2
Fore
SplineSet
1097 0 m 1,0,-1
 819 0 l 1,1,-1
 819 592 l 2,2,3
 819 636 819 636 813 674.5 c 128,-1,4
 807 713 807 713 790.5 740.5 c 128,-1,5
 774 768 774 768 743.5 784.5 c 128,-1,6
 713 801 713 801 662 801 c 0,7,8
 621 801 621 801 579 783 c 128,-1,9
 537 765 537 765 502.5 735 c 128,-1,10
 468 705 468 705 446.5 665 c 128,-1,11
 425 625 425 625 425 582 c 2,12,-1
 425 0 l 1,13,-1
 146 0 l 1,14,-1
 146 1126 l 1,15,-1
 5 1126 l 1,16,-1
 5 1305 l 1,17,-1
 146 1305 l 1,18,-1
 146 1413 l 1,19,-1
 425 1413 l 1,20,-1
 425 1305 l 1,21,-1
 654 1305 l 1,22,-1
 654 1126 l 1,23,-1
 425 1126 l 1,24,-1
 425 938 l 1,25,26
 483 1003 483 1003 556.5 1029.5 c 128,-1,27
 630 1056 630 1056 717 1056 c 0,28,29
 809 1056 809 1056 880 1020 c 128,-1,30
 951 984 951 984 999.5 924.5 c 128,-1,31
 1048 865 1048 865 1072.5 785.5 c 128,-1,32
 1097 706 1097 706 1097 618 c 2,33,-1
 1097 0 l 1,0,-1
EndSplineSet
EndChar

StartChar: Itilde
Encoding: 296 296 231
Width: 629
GlyphClass: 1
Flags: W
LayerCount: 2
Fore
SplineSet
443 1504 m 0,0,1
 404 1504 404 1504 374 1514.5 c 128,-1,2
 344 1525 344 1525 320.5 1540.5 c 128,-1,3
 297 1556 297 1556 279 1574 c 128,-1,4
 261 1592 261 1592 245 1607.5 c 128,-1,5
 229 1623 229 1623 214 1633.5 c 128,-1,6
 199 1644 199 1644 182 1644 c 0,7,8
 160 1644 160 1644 147.5 1628 c 128,-1,9
 135 1612 135 1612 128.5 1590.5 c 128,-1,10
 122 1569 122 1569 120 1545.5 c 128,-1,11
 118 1522 118 1522 118 1507 c 1,12,-1
 -34 1507 l 1,13,14
 -34 1566 -34 1566 -22.5 1620 c 128,-1,15
 -11 1674 -11 1674 15.5 1715 c 128,-1,16
 42 1756 42 1756 86.5 1780.5 c 128,-1,17
 131 1805 131 1805 197 1805 c 0,18,19
 247 1805 247 1805 283 1783.5 c 128,-1,20
 319 1762 319 1762 346.5 1736.5 c 128,-1,21
 374 1711 374 1711 398 1689.5 c 128,-1,22
 422 1668 422 1668 448 1668 c 0,23,24
 466 1668 466 1668 477 1683.5 c 128,-1,25
 488 1699 488 1699 494 1720 c 128,-1,26
 500 1741 500 1741 502 1763 c 128,-1,27
 504 1785 504 1785 504 1798 c 1,28,-1
 662 1798 l 1,29,30
 662 1745 662 1745 651.5 1692.5 c 128,-1,31
 641 1640 641 1640 615.5 1598 c 128,-1,32
 590 1556 590 1556 548 1530 c 128,-1,33
 506 1504 506 1504 443 1504 c 0,0,1
456 0 m 1,34,-1
 173 0 l 1,35,-1
 173 1413 l 1,36,-1
 456 1413 l 1,37,-1
 456 0 l 1,34,-1
EndSplineSet
Position2: "'cpsp' Capital Spacing lookup 0 subtable" dx=5 dy=0 dh=10 dv=0
EndChar

StartChar: Iogonek
Encoding: 302 302 237
Width: 629
GlyphClass: 1
Flags: W
LayerCount: 2
Fore
SplineSet
328 -451 m 0,0,1
 282 -451 282 -451 240.5 -437.5 c 128,-1,2
 199 -424 199 -424 167 -397.5 c 128,-1,3
 135 -371 135 -371 116 -333 c 128,-1,4
 97 -295 97 -295 97 -246 c 0,5,6
 97 -212 97 -212 111.5 -177.5 c 128,-1,7
 126 -143 126 -143 148 -110.5 c 128,-1,8
 170 -78 170 -78 197 -49.5 c 128,-1,9
 224 -21 224 -21 248 0 c 1,10,-1
 173 0 l 1,11,-1
 173 1413 l 1,12,-1
 456 1413 l 1,13,-1
 456 0 l 1,14,-1
 457 0 l 1,15,16
 426 -12 426 -12 390 -31.5 c 128,-1,17
 354 -51 354 -51 323.5 -77.5 c 128,-1,18
 293 -104 293 -104 273 -137 c 128,-1,19
 253 -170 253 -170 253 -208 c 256,20,21
 253 -246 253 -246 266.5 -268 c 128,-1,22
 280 -290 280 -290 323 -290 c 0,23,24
 353 -290 353 -290 378 -274.5 c 128,-1,25
 403 -259 403 -259 420 -235 c 1,26,-1
 551 -325 l 1,27,28
 511 -384 511 -384 456 -417.5 c 128,-1,29
 401 -451 401 -451 328 -451 c 0,0,1
EndSplineSet
Position2: "'cpsp' Capital Spacing lookup 0 subtable" dx=5 dy=0 dh=10 dv=0
EndChar

StartChar: iogonek
Encoding: 303 303 238
Width: 523
GlyphClass: 1
Flags: W
LayerCount: 2
Fore
SplineSet
402 1178 m 1,0,-1
 120 1178 l 1,1,-1
 120 1413 l 1,2,-1
 402 1413 l 1,3,-1
 402 1178 l 1,0,-1
256 -451 m 0,4,5
 210 -451 210 -451 168.5 -437.5 c 128,-1,6
 127 -424 127 -424 94.5 -397.5 c 128,-1,7
 62 -371 62 -371 43 -333 c 128,-1,8
 24 -295 24 -295 24 -246 c 0,9,10
 24 -212 24 -212 38.5 -177.5 c 128,-1,11
 53 -143 53 -143 75 -110.5 c 128,-1,12
 97 -78 97 -78 124 -49.5 c 128,-1,13
 151 -21 151 -21 175 0 c 1,14,-1
 139 0 l 1,15,-1
 139 999 l 1,16,-1
 384 999 l 1,17,-1
 384 0 l 1,18,19
 353 -12 353 -12 317 -31.5 c 128,-1,20
 281 -51 281 -51 250.5 -77.5 c 128,-1,21
 220 -104 220 -104 200 -137 c 128,-1,22
 180 -170 180 -170 180 -208 c 256,23,24
 180 -246 180 -246 193.5 -268 c 128,-1,25
 207 -290 207 -290 250 -290 c 0,26,27
 280 -290 280 -290 305 -274.5 c 128,-1,28
 330 -259 330 -259 347 -235 c 1,29,-1
 481 -325 l 1,30,31
 441 -384 441 -384 385.5 -417.5 c 128,-1,32
 330 -451 330 -451 256 -451 c 0,4,5
EndSplineSet
EndChar

StartChar: Idotaccent
Encoding: 304 304 239
Width: 629
GlyphClass: 1
Flags: W
LayerCount: 2
Fore
SplineSet
455 1589 m 1,0,-1
 173 1589 l 1,1,-1
 173 1824 l 1,2,-1
 455 1824 l 1,3,-1
 455 1589 l 1,0,-1
456 0 m 1,4,-1
 173 0 l 1,5,-1
 173 1413 l 1,6,-1
 456 1413 l 1,7,-1
 456 0 l 1,4,-1
EndSplineSet
Position2: "'cpsp' Capital Spacing lookup 0 subtable" dx=5 dy=0 dh=10 dv=0
EndChar

StartChar: dotlessi
Encoding: 305 305 240
Width: 520
GlyphClass: 2
Flags: W
LayerCount: 2
Fore
SplineSet
383 0 m 1,0,-1
 138 0 l 1,1,-1
 138 1039 l 1,2,-1
 383 1039 l 1,3,-1
 383 0 l 1,0,-1
EndSplineSet
EndChar

StartChar: ij
Encoding: 307 307 242
Width: 1115
GlyphClass: 1
Flags: W
LayerCount: 2
Fore
SplineSet
421 1178 m 1,0,-1
 138 1178 l 1,1,-1
 138 1413 l 1,2,-1
 421 1413 l 1,3,-1
 421 1178 l 1,0,-1
992 1149 m 1,4,-1
 710 1149 l 1,5,-1
 710 1411 l 1,6,-1
 992 1411 l 1,7,-1
 992 1149 l 1,4,-1
414 0 m 1,8,-1
 144 0 l 1,9,-1
 144 999 l 1,10,-1
 414 999 l 1,11,-1
 414 0 l 1,8,-1
674 -438 m 0,12,13
 629 -438 629 -438 580 -429 c 128,-1,14
 531 -420 531 -420 488 -406 c 1,15,16
 509 -346 509 -346 526.5 -285 c 128,-1,17
 544 -224 544 -224 563 -164 c 1,18,19
 582 -173 582 -173 602.5 -180 c 128,-1,20
 623 -187 623 -187 645 -187 c 0,21,22
 670 -187 670 -187 683.5 -175 c 128,-1,23
 697 -163 697 -163 704 -145.5 c 128,-1,24
 711 -128 711 -128 712 -107 c 128,-1,25
 713 -86 713 -86 713 -68 c 0,26,27
 713 -30 713 -30 709.5 6.5 c 128,-1,28
 706 43 706 43 706 81 c 2,29,-1
 706 999 l 1,30,-1
 980 999 l 1,31,-1
 980 -88 l 2,32,33
 980 -160 980 -160 961.5 -223.5 c 128,-1,34
 943 -287 943 -287 906 -334.5 c 128,-1,35
 869 -382 869 -382 811 -410 c 128,-1,36
 753 -438 753 -438 674 -438 c 0,12,13
EndSplineSet
EndChar

StartChar: kgreenlandic
Encoding: 312 312 247
Width: 1167
GlyphClass: 1
Flags: W
LayerCount: 2
Fore
SplineSet
1193 0 m 1,0,-1
 859 0 l 1,1,-1
 558 461 l 1,2,-1
 417 306 l 1,3,-1
 417 0 l 1,4,-1
 144 0 l 1,5,-1
 144 1039 l 1,6,-1
 417 1039 l 1,7,-1
 417 643 l 1,8,-1
 787 1039 l 1,9,-1
 1159 1039 l 1,10,-1
 755 630 l 1,11,-1
 1193 0 l 1,0,-1
EndSplineSet
EndChar

StartChar: Lcaron
Encoding: 317 317 252
Width: 1115
GlyphClass: 1
Flags: W
LayerCount: 2
Fore
SplineSet
1060 0 m 1,0,-1
 173 0 l 1,1,-1
 173 1413 l 1,2,-1
 456 1413 l 1,3,-1
 456 270 l 1,4,-1
 1060 270 l 1,5,-1
 1060 0 l 1,0,-1
846 939 m 1,6,-1
 691 939 l 1,7,-1
 809 1413 l 1,8,-1
 1079 1413 l 1,9,-1
 846 939 l 1,6,-1
EndSplineSet
Position2: "'cpsp' Capital Spacing lookup 0 subtable" dx=5 dy=0 dh=10 dv=0
EndChar

StartChar: lcaron
Encoding: 318 318 253
Width: 718
GlyphClass: 1
Flags: W
LayerCount: 2
Fore
SplineSet
370 -20 m 0,0,1
 249 -20 249 -20 192.5 33.5 c 128,-1,2
 136 87 136 87 136 207 c 2,3,-1
 136 1413 l 1,4,-1
 409 1413 l 1,5,-1
 409 302 l 2,6,7
 409 262 409 262 433 244 c 128,-1,8
 457 226 457 226 497 226 c 0,9,10
 514 226 514 226 529.5 228 c 128,-1,11
 545 230 545 230 562 232 c 1,12,-1
 562 0 l 1,13,14
 466 -20 466 -20 370 -20 c 0,0,1
716 939 m 1,15,-1
 555 939 l 1,16,17
 585 1058 585 1058 616 1176 c 128,-1,18
 647 1294 647 1294 679 1413 c 1,19,-1
 958 1413 l 1,20,-1
 716 939 l 1,15,-1
EndSplineSet
EndChar

StartChar: Ldot
Encoding: 319 319 254
Width: 1071
GlyphClass: 1
Flags: W
LayerCount: 2
Fore
SplineSet
1060 0 m 1,0,-1
 173 0 l 1,1,-1
 173 1413 l 1,2,-1
 456 1413 l 1,3,-1
 456 270 l 1,4,-1
 1060 270 l 1,5,-1
 1060 0 l 1,0,-1
808 551 m 0,6,7
 775 551 775 551 747 563.5 c 128,-1,8
 719 576 719 576 698.5 597.5 c 128,-1,9
 678 619 678 619 666 648 c 128,-1,10
 654 677 654 677 654 709 c 256,11,12
 654 741 654 741 666 769 c 128,-1,13
 678 797 678 797 699 818 c 128,-1,14
 720 839 720 839 748 851 c 128,-1,15
 776 863 776 863 808 863 c 256,16,17
 840 863 840 863 869 851 c 128,-1,18
 898 839 898 839 919.5 818.5 c 128,-1,19
 941 798 941 798 953.5 770 c 128,-1,20
 966 742 966 742 966 709 c 0,21,22
 966 677 966 677 953.5 648 c 128,-1,23
 941 619 941 619 919.5 597.5 c 128,-1,24
 898 576 898 576 869 563.5 c 128,-1,25
 840 551 840 551 808 551 c 0,6,7
EndSplineSet
EndChar

StartChar: ldot
Encoding: 320 320 255
Width: 766
GlyphClass: 1
Flags: W
LayerCount: 2
Fore
SplineSet
368 -20 m 0,0,1
 248 -20 248 -20 192 33.5 c 128,-1,2
 136 87 136 87 136 207 c 2,3,-1
 136 1413 l 1,4,-1
 409 1413 l 1,5,-1
 409 302 l 2,6,7
 409 262 409 262 432.5 244 c 128,-1,8
 456 226 456 226 494 226 c 0,9,10
 508 226 508 226 544 230 c 0,11,12
 552 230 552 230 558 232 c 1,13,-1
 558 0 l 1,14,15
 463 -20 463 -20 368 -20 c 0,0,1
614 541 m 0,16,17
 581 541 581 541 553 553.5 c 128,-1,18
 525 566 525 566 504.5 587.5 c 128,-1,19
 484 609 484 609 472 638 c 128,-1,20
 460 667 460 667 460 699 c 256,21,22
 460 731 460 731 472 759 c 128,-1,23
 484 787 484 787 505 808 c 128,-1,24
 526 829 526 829 554 841 c 128,-1,25
 582 853 582 853 614 853 c 256,26,27
 646 853 646 853 675 841 c 128,-1,28
 704 829 704 829 725.5 808.5 c 128,-1,29
 747 788 747 788 759.5 760 c 128,-1,30
 772 732 772 732 772 699 c 0,31,32
 772 667 772 667 759.5 638 c 128,-1,33
 747 609 747 609 725.5 587.5 c 128,-1,34
 704 566 704 566 675 553.5 c 128,-1,35
 646 541 646 541 614 541 c 0,16,17
EndSplineSet
EndChar

StartChar: Lslash
Encoding: 321 321 256
Width: 1100
GlyphClass: 1
Flags: W
LayerCount: 2
Fore
SplineSet
1090 0 m 1,0,-1
 202 0 l 1,1,-1
 202 316 l 1,2,-1
 97 195 l 1,3,-1
 97 492 l 1,4,-1
 202 610 l 1,5,-1
 202 1413 l 1,6,-1
 486 1413 l 1,7,-1
 486 930 l 1,8,-1
 685 1153 l 1,9,-1
 685 865 l 1,10,-1
 486 636 l 1,11,-1
 486 270 l 1,12,-1
 1090 270 l 1,13,-1
 1090 0 l 1,0,-1
EndSplineSet
Position2: "'cpsp' Capital Spacing lookup 0 subtable" dx=5 dy=0 dh=10 dv=0
EndChar

StartChar: lslash
Encoding: 322 322 257
Width: 595
GlyphClass: 1
Flags: W
LayerCount: 2
Fore
SplineSet
369 -20 m 0,0,1
 269 -20 269 -20 219.5 10 c 128,-1,2
 170 40 170 40 152 90 c 128,-1,3
 134 140 134 140 134 205 c 0,4,5
 134 208 134 208 134.5 244.5 c 128,-1,6
 135 281 135 281 135 359 c 1,7,8
 125 348 125 348 115 337.5 c 128,-1,9
 105 327 105 327 96 316 c 1,10,-1
 96 569 l 1,11,-1
 135 614 l 1,12,-1
 135 1413 l 1,13,-1
 408 1413 l 1,14,-1
 408 922 l 1,15,-1
 492 1013 l 1,16,-1
 492 759 l 1,17,-1
 408 667 l 1,18,-1
 408 302 l 2,19,20
 408 278 408 278 415.5 263.5 c 128,-1,21
 423 249 423 249 436.5 241 c 128,-1,22
 450 233 450 233 469 230 c 128,-1,23
 488 227 488 227 509 227 c 0,24,25
 523 227 523 227 535.5 228.5 c 128,-1,26
 548 230 548 230 561 232 c 1,27,-1
 561 0 l 1,28,29
 465 -20 465 -20 369 -20 c 0,0,1
EndSplineSet
EndChar

StartChar: Eng
Encoding: 330 330 265
Width: 1465
GlyphClass: 1
Flags: W
LayerCount: 2
Fore
SplineSet
950 -369 m 2,0,-1
 816 -369 l 1,1,-1
 816 -206 l 1,2,-1
 812 -200 l 1,3,-1
 816 -197 l 1,4,-1
 816 -206 l 1,5,-1
 818 -207 l 1,6,-1
 832 -207 l 2,7,8
 864 -207 864 -207 903.5 -201 c 128,-1,9
 943 -195 943 -195 977 -179 c 128,-1,10
 1011 -163 1011 -163 1034 -136.5 c 128,-1,11
 1057 -110 1057 -110 1057 -69 c 0,12,13
 1054 -62 1054 -62 1051.5 -54 c 128,-1,14
 1049 -46 1049 -46 1045 -40 c 2,15,-1
 443 925 l 1,16,-1
 443 0 l 1,17,-1
 173 0 l 1,18,-1
 173 1410 l 1,19,-1
 434 1410 l 1,20,-1
 1021 488 l 1,21,-1
 1021 1410 l 1,22,-1
 1290 1410 l 1,23,-1
 1290 0 l 2,24,25
 1290 -84 1290 -84 1270 -152 c 128,-1,26
 1250 -220 1250 -220 1208.5 -268 c 128,-1,27
 1167 -316 1167 -316 1103 -342.5 c 128,-1,28
 1039 -369 1039 -369 950 -369 c 2,0,-1
EndSplineSet
Position2: "'cpsp' Capital Spacing lookup 0 subtable" dx=5 dy=0 dh=10 dv=0
EndChar

StartChar: eng
Encoding: 331 331 266
Width: 1184
GlyphClass: 1
Flags: W
LayerCount: 2
Fore
SplineSet
747 -369 m 2,0,-1
 611 -369 l 1,1,-1
 611 -146 l 1,2,3
 668 -146 668 -146 707.5 -143 c 128,-1,4
 747 -140 747 -140 772 -122.5 c 128,-1,5
 797 -105 797 -105 808.5 -69.5 c 128,-1,6
 820 -34 820 -34 820 29 c 0,7,8
 820 69 820 69 817.5 108.5 c 128,-1,9
 815 148 815 148 815 188 c 2,10,-1
 815 595 l 2,11,12
 815 640 815 640 809 680 c 128,-1,13
 803 720 803 720 785 750 c 128,-1,14
 767 780 767 780 735 798 c 128,-1,15
 703 816 703 816 651 816 c 0,16,17
 606 816 606 816 562.5 796 c 128,-1,18
 519 776 519 776 484.5 743.5 c 128,-1,19
 450 711 450 711 429.5 668 c 128,-1,20
 409 625 409 625 409 579 c 2,21,-1
 409 6 l 1,22,-1
 144 6 l 1,23,-1
 144 1039 l 1,24,-1
 409 1039 l 1,25,-1
 409 921 l 1,26,27
 465 994 465 994 541 1025 c 128,-1,28
 617 1056 617 1056 710 1056 c 0,29,30
 799 1056 799 1056 868 1022 c 128,-1,31
 937 988 937 988 983.5 931 c 128,-1,32
 1030 874 1030 874 1054.5 798.5 c 128,-1,33
 1079 723 1079 723 1079 638 c 2,34,-1
 1079 -52 l 2,35,36
 1079 -136 1079 -136 1057 -196 c 128,-1,37
 1035 -256 1035 -256 993 -294.5 c 128,-1,38
 951 -333 951 -333 889 -351 c 128,-1,39
 827 -369 827 -369 747 -369 c 2,0,-1
EndSplineSet
EndChar

StartChar: OE
Encoding: 338 338 273
Width: 2258
GlyphClass: 1
Flags: W
LayerCount: 2
Fore
SplineSet
755 -20 m 0,0,1
 627 -20 627 -20 517 16.5 c 128,-1,2
 407 53 407 53 320.5 122 c 128,-1,3
 234 191 234 191 174.5 290 c 128,-1,4
 115 389 115 389 88 515 c 0,5,6
 77 567 77 567 73 617.5 c 128,-1,7
 69 668 69 668 69 721 c 0,8,9
 69 879 69 879 118 1010 c 128,-1,10
 167 1141 167 1141 258 1235 c 128,-1,11
 349 1329 349 1329 478 1381.5 c 128,-1,12
 607 1434 607 1434 766 1434 c 0,13,14
 879 1434 879 1434 985.5 1404 c 128,-1,15
 1092 1374 1092 1374 1179 1300 c 1,16,-1
 1179 1413 l 1,17,-1
 2132 1413 l 1,18,-1
 2132 1150 l 1,19,-1
 1463 1150 l 1,20,-1
 1463 838 l 1,21,-1
 2096 838 l 1,22,-1
 2096 574 l 1,23,-1
 1463 574 l 1,24,-1
 1463 270 l 1,25,-1
 2132 270 l 1,26,-1
 2132 0 l 1,27,-1
 1179 0 l 1,28,-1
 1179 113 l 1,29,30
 1085 37 1085 37 979.5 8.5 c 128,-1,31
 874 -20 874 -20 755 -20 c 0,0,1
775 249 m 2,32,33
 878 249 878 249 954 284.5 c 128,-1,34
 1030 320 1030 320 1080 382 c 128,-1,35
 1130 444 1130 444 1154.5 527.5 c 128,-1,36
 1179 611 1179 611 1179 707 c 0,37,38
 1179 807 1179 807 1154.5 891 c 128,-1,39
 1130 975 1130 975 1079 1035.5 c 128,-1,40
 1028 1096 1028 1096 950 1130 c 128,-1,41
 872 1164 872 1164 766 1164 c 256,42,43
 660 1164 660 1164 582.5 1130 c 128,-1,44
 505 1096 505 1096 454 1035.5 c 128,-1,45
 403 975 403 975 378 891 c 128,-1,46
 353 807 353 807 353 707 c 0,47,48
 353 610 353 610 377 526.5 c 128,-1,49
 401 443 401 443 451 381.5 c 128,-1,50
 501 320 501 320 577 284.5 c 128,-1,51
 653 249 653 249 757 249 c 2,52,-1
 775 249 l 2,32,33
EndSplineSet
Position2: "'cpsp' Capital Spacing lookup 0 subtable" dx=5 dy=0 dh=10 dv=0
EndChar

StartChar: oe
Encoding: 339 339 274
Width: 1901
GlyphClass: 1
Flags: W
LayerCount: 2
Fore
SplineSet
566 -20 m 0,0,1
 451 -20 451 -20 354.5 22.5 c 128,-1,2
 258 65 258 65 189 138.5 c 128,-1,3
 120 212 120 212 81 311.5 c 128,-1,4
 42 411 42 411 42 524 c 0,5,6
 42 639 42 639 84.5 736 c 128,-1,7
 127 833 127 833 200 903 c 128,-1,8
 273 973 273 973 371.5 1012.5 c 128,-1,9
 470 1052 470 1052 581 1052 c 0,10,11
 690 1052 690 1052 787.5 1011.5 c 128,-1,12
 885 971 885 971 961 895 c 1,13,14
 1039 979 1039 979 1132 1015.5 c 128,-1,15
 1225 1052 1225 1052 1341 1052 c 0,16,17
 1466 1052 1466 1052 1559.5 1014 c 128,-1,18
 1653 976 1653 976 1716 907 c 128,-1,19
 1779 838 1779 838 1810.5 740.5 c 128,-1,20
 1842 643 1842 643 1842 524 c 0,21,22
 1842 504 1842 504 1840.5 474.5 c 128,-1,23
 1839 445 1839 445 1832 426 c 1,24,-1
 1121 426 l 1,25,26
 1132 380 1132 380 1156.5 348 c 128,-1,27
 1181 316 1181 316 1213.5 296.5 c 128,-1,28
 1246 277 1246 277 1285 268 c 128,-1,29
 1324 259 1324 259 1365 259 c 0,30,31
 1446 259 1446 259 1506.5 288 c 128,-1,32
 1567 317 1567 317 1624 379 c 1,33,-1
 1832 187 l 1,34,35
 1737 90 1737 90 1621 39 c 128,-1,36
 1505 -12 1505 -12 1367 -12 c 0,37,38
 1313 -12 1313 -12 1257 -3.5 c 128,-1,39
 1201 5 1201 5 1148.5 24 c 128,-1,40
 1096 43 1096 43 1049.5 72 c 128,-1,41
 1003 101 1003 101 965 141 c 1,42,43
 884 54 884 54 784.5 17 c 128,-1,44
 685 -20 685 -20 566 -20 c 0,0,1
568 207 m 0,45,46
 636 207 636 207 683.5 231.5 c 128,-1,47
 731 256 731 256 761.5 298.5 c 128,-1,48
 792 341 792 341 806 397 c 128,-1,49
 820 453 820 453 820 516 c 256,50,51
 820 579 820 579 807.5 634 c 128,-1,52
 795 689 795 689 766.5 730.5 c 128,-1,53
 738 772 738 772 691.5 796 c 128,-1,54
 645 820 645 820 576 820 c 256,55,56
 507 820 507 820 459 796 c 128,-1,57
 411 772 411 772 381 730.5 c 128,-1,58
 351 689 351 689 337.5 633 c 128,-1,59
 324 577 324 577 324 513 c 0,60,61
 324 450 324 450 336.5 394.5 c 128,-1,62
 349 339 349 339 377.5 297 c 128,-1,63
 406 255 406 255 452.5 231 c 128,-1,64
 499 207 499 207 568 207 c 0,45,46
1546 622 m 1,65,66
 1525 721 1525 721 1475 766.5 c 128,-1,67
 1425 812 1425 812 1330 812 c 0,68,69
 1244 812 1244 812 1194.5 760.5 c 128,-1,70
 1145 709 1145 709 1124 622 c 1,71,-1
 1546 622 l 1,65,66
EndSplineSet
EndChar

StartChar: tcaron
Encoding: 357 357 292
Width: 812
GlyphClass: 1
Flags: W
LayerCount: 2
Fore
SplineSet
696 1067 m 1,0,-1
 535 1067 l 1,1,2
 565 1177 565 1177 596 1285 c 128,-1,3
 627 1393 627 1393 658 1503 c 1,4,-1
 938 1503 l 1,5,-1
 696 1067 l 1,0,-1
531 -20 m 0,6,7
 461 -20 461 -20 398 -0.5 c 128,-1,8
 335 19 335 19 288.5 58.5 c 128,-1,9
 242 98 242 98 215 156.5 c 128,-1,10
 188 215 188 215 188 294 c 2,11,-1
 188 809 l 1,12,-1
 20 809 l 1,13,-1
 20 1039 l 1,14,-1
 193 1039 l 1,15,-1
 193 1274 l 1,16,17
 258 1316 258 1316 321 1358.5 c 128,-1,18
 384 1401 384 1401 448 1444 c 1,19,-1
 448 1039 l 1,20,-1
 721 1039 l 1,21,-1
 721 809 l 1,22,-1
 448 809 l 1,23,-1
 448 344 l 2,24,25
 448 280 448 280 480 252 c 128,-1,26
 512 224 512 224 572 224 c 0,27,28
 614 224 614 224 653.5 235.5 c 128,-1,29
 693 247 693 247 729 266 c 1,30,-1
 729 13 l 1,31,32
 684 -3 684 -3 631.5 -11.5 c 128,-1,33
 579 -20 579 -20 531 -20 c 0,6,7
EndSplineSet
EndChar

StartChar: Tbar
Encoding: 358 358 293
Width: 1163
GlyphClass: 1
Flags: W
LayerCount: 2
Fore
SplineSet
723 0 m 1,0,-1
 440 0 l 1,1,-1
 440 618 l 1,2,-1
 262 618 l 1,3,-1
 262 797 l 1,4,-1
 440 797 l 1,5,-1
 440 1156 l 1,6,-1
 7 1156 l 1,7,-1
 7 1413 l 1,8,-1
 1154 1413 l 1,9,-1
 1154 1156 l 1,10,-1
 723 1156 l 1,11,-1
 723 797 l 1,12,-1
 897 797 l 1,13,-1
 897 618 l 1,14,-1
 723 618 l 1,15,-1
 723 0 l 1,0,-1
EndSplineSet
Position2: "'cpsp' Capital Spacing lookup 0 subtable" dx=5 dy=0 dh=10 dv=0
EndChar

StartChar: tbar
Encoding: 359 359 294
Width: 796
GlyphClass: 1
Flags: W
LayerCount: 2
Fore
SplineSet
521 -20 m 0,0,1
 453 -20 453 -20 392 1.5 c 128,-1,2
 331 23 331 23 285.5 63 c 128,-1,3
 240 103 240 103 214 161.5 c 128,-1,4
 188 220 188 220 188 293 c 2,5,-1
 188 431 l 1,6,-1
 54 431 l 1,7,-1
 54 610 l 1,8,-1
 188 610 l 1,9,-1
 188 809 l 1,10,-1
 20 809 l 1,11,-1
 20 1039 l 1,12,-1
 193 1039 l 1,13,-1
 193 1271 l 1,14,15
 258 1313 258 1313 321 1354.5 c 128,-1,16
 384 1396 384 1396 448 1439 c 1,17,-1
 448 1039 l 1,18,-1
 721 1039 l 1,19,-1
 721 809 l 1,20,-1
 448 809 l 1,21,-1
 448 610 l 1,22,-1
 704 610 l 1,23,-1
 704 431 l 1,24,-1
 448 431 l 1,25,-1
 448 348 l 2,26,27
 448 281 448 281 480 252.5 c 128,-1,28
 512 224 512 224 572 224 c 0,29,30
 614 224 614 224 653.5 235.5 c 128,-1,31
 693 247 693 247 729 267 c 1,32,-1
 729 13 l 1,33,34
 628 -20 628 -20 521 -20 c 0,0,1
EndSplineSet
EndChar

StartChar: Uogonek
Encoding: 370 370 305
Width: 1388
GlyphClass: 1
Flags: W
LayerCount: 2
Fore
SplineSet
872 -398 m 0,0,1
 860 -398 860 -398 844 -394.5 c 128,-1,2
 828 -391 828 -391 812 -385.5 c 128,-1,3
 796 -380 796 -380 781.5 -373 c 128,-1,4
 767 -366 767 -366 757 -358 c 0,5,6
 716 -328 716 -328 693 -282 c 128,-1,7
 670 -236 670 -236 670 -185 c 0,8,9
 670 -140 670 -140 685.5 -98.5 c 128,-1,10
 701 -57 701 -57 726 -20 c 1,11,-1
 693 -20 l 2,12,13
 550 -20 550 -20 445.5 18.5 c 128,-1,14
 341 57 341 57 273 131.5 c 128,-1,15
 205 206 205 206 172 314 c 128,-1,16
 139 422 139 422 139 561 c 2,17,-1
 139 1413 l 1,18,-1
 422 1413 l 1,19,-1
 422 585 l 2,20,21
 422 509 422 509 432.5 448 c 128,-1,22
 443 387 443 387 473 344 c 128,-1,23
 503 301 503 301 556 278 c 128,-1,24
 609 255 609 255 694 255 c 0,25,26
 781 255 781 255 834.5 277.5 c 128,-1,27
 888 300 888 300 917.5 342 c 128,-1,28
 947 384 947 384 956.5 445.5 c 128,-1,29
 966 507 966 507 966 585 c 2,30,-1
 966 1413 l 1,31,-1
 1250 1413 l 1,32,-1
 1250 571 l 2,33,34
 1250 493 1250 493 1239.5 415.5 c 128,-1,35
 1229 338 1229 338 1201 269 c 128,-1,36
 1173 200 1173 200 1125 142 c 128,-1,37
 1077 84 1077 84 1003 45 c 0,38,39
 988 37 988 37 972.5 32 c 128,-1,40
 957 27 957 27 943 19 c 0,41,42
 922 8 922 8 898.5 -9.5 c 128,-1,43
 875 -27 875 -27 855.5 -48.5 c 128,-1,44
 836 -70 836 -70 823 -95.5 c 128,-1,45
 810 -121 810 -121 810 -147 c 0,46,47
 810 -155 810 -155 811 -162.5 c 128,-1,48
 812 -170 812 -170 814 -178 c 1,49,50
 827 -163 827 -163 827 -147 c 1,51,52
 827 -187 827 -187 840.5 -208 c 128,-1,53
 854 -229 854 -229 897 -229 c 0,54,55
 928 -229 928 -229 952 -214 c 128,-1,56
 976 -199 976 -199 994 -174 c 1,57,-1
 1125 -264 l 1,58,59
 1077 -335 1077 -335 1017 -366.5 c 128,-1,60
 957 -398 957 -398 872 -398 c 0,0,1
EndSplineSet
Position2: "'cpsp' Capital Spacing lookup 0 subtable" dx=5 dy=0 dh=10 dv=0
EndChar

StartChar: uogonek
Encoding: 371 371 306
Width: 1198
GlyphClass: 1
Flags: W
LayerCount: 2
Fore
SplineSet
934 -451 m 0,0,1
 888 -451 888 -451 846 -437.5 c 128,-1,2
 804 -424 804 -424 772 -397.5 c 128,-1,3
 740 -371 740 -371 720.5 -333 c 128,-1,4
 701 -295 701 -295 701 -246 c 0,5,6
 701 -209 701 -209 715 -174 c 128,-1,7
 729 -139 729 -139 751 -107.5 c 128,-1,8
 773 -76 773 -76 800 -48 c 128,-1,9
 827 -20 827 -20 854 3 c 1,10,-1
 850 0 l 1,11,-1
 782 0 l 1,12,-1
 782 101 l 1,13,14
 723 33 723 33 650.5 5 c 128,-1,15
 578 -23 578 -23 488 -23 c 0,16,17
 396 -23 396 -23 326 14 c 128,-1,18
 256 51 256 51 208 112.5 c 128,-1,19
 160 174 160 174 135 254 c 128,-1,20
 110 334 110 334 110 421 c 2,21,-1
 110 1039 l 1,22,-1
 388 1039 l 1,23,-1
 388 441 l 2,24,25
 388 392 388 392 396.5 354.5 c 128,-1,26
 405 317 405 317 425 291.5 c 128,-1,27
 445 266 445 266 479.5 253.5 c 128,-1,28
 514 241 514 241 566 241 c 0,29,30
 636 241 636 241 678.5 266.5 c 128,-1,31
 721 292 721 292 744.5 333.5 c 128,-1,32
 768 375 768 375 775 430 c 128,-1,33
 782 485 782 485 782 545 c 2,34,-1
 782 1039 l 1,35,-1
 1061 1039 l 1,36,-1
 1061 0 l 1,37,38
 1029 -14 1029 -14 993 -33 c 128,-1,39
 957 -52 957 -52 927 -77.5 c 128,-1,40
 897 -103 897 -103 877 -135.5 c 128,-1,41
 857 -168 857 -168 857 -208 c 0,42,43
 857 -247 857 -247 870.5 -268.5 c 128,-1,44
 884 -290 884 -290 927 -290 c 0,45,46
 960 -290 960 -290 982 -275.5 c 128,-1,47
 1004 -261 1004 -261 1024 -235 c 1,48,-1
 1159 -325 l 1,49,50
 1119 -385 1119 -385 1063.5 -418 c 128,-1,51
 1008 -451 1008 -451 934 -451 c 0,0,1
EndSplineSet
EndChar

StartChar: longs
Encoding: 383 383 318
Width: 707
GlyphClass: 2
Flags: W
LayerCount: 2
Fore
SplineSet
492 0 m 1,0,-1
 207 0 l 1,1,-1
 207 809 l 1,2,-1
 17 809 l 1,3,-1
 17 1037 l 1,4,-1
 210 1037 l 1,5,-1
 210 1158 l 2,6,7
 210 1221 210 1221 238 1272 c 128,-1,8
 266 1323 266 1323 313.5 1359 c 128,-1,9
 361 1395 361 1395 422 1414.5 c 128,-1,10
 483 1434 483 1434 550 1434 c 0,11,12
 599 1434 599 1434 647 1423 c 128,-1,13
 695 1412 695 1412 739 1392 c 1,14,-1
 643 1170 l 1,15,16
 628 1179 628 1179 610.5 1183.5 c 128,-1,17
 593 1188 593 1188 574 1188 c 0,18,19
 552 1188 552 1188 536.5 1180 c 128,-1,20
 521 1172 521 1172 511 1158.5 c 128,-1,21
 501 1145 501 1145 496.5 1128 c 128,-1,22
 492 1111 492 1111 492 1092 c 2,23,-1
 492 0 l 1,0,-1
EndSplineSet
EndChar

StartChar: florin
Encoding: 402 402 319
Width: 1049
GlyphClass: 1
Flags: W
LayerCount: 2
Fore
SplineSet
49 -457 m 1,0,-1
 49 -230 l 1,1,2
 106 -229 106 -229 162 -226.5 c 128,-1,3
 218 -224 218 -224 265 -208 c 128,-1,4
 312 -192 312 -192 345.5 -155.5 c 128,-1,5
 379 -119 379 -119 390 -49 c 0,6,7
 394 -25 394 -25 397 1.5 c 128,-1,8
 400 28 400 28 400 53 c 2,9,-1
 400 815 l 1,10,-1
 215 815 l 1,11,-1
 215 1039 l 1,12,-1
 400 1039 l 1,13,-1
 399 1118 l 2,14,15
 399 1135 399 1135 400 1157.5 c 128,-1,16
 401 1180 401 1180 406.5 1208 c 128,-1,17
 412 1236 412 1236 424 1262 c 0,18,19
 441 1300 441 1300 469.5 1334 c 128,-1,20
 498 1368 498 1368 534.5 1393 c 128,-1,21
 571 1418 571 1418 614.5 1432.5 c 128,-1,22
 658 1447 658 1447 707 1447 c 0,23,24
 755 1447 755 1447 792 1439.5 c 128,-1,25
 829 1432 829 1432 861 1417.5 c 128,-1,26
 893 1403 893 1403 924 1381.5 c 128,-1,27
 955 1360 955 1360 990 1331 c 1,28,29
 950 1291 950 1291 913 1250.5 c 128,-1,30
 876 1210 876 1210 836 1170 c 1,31,32
 820 1181 820 1181 808 1190.5 c 128,-1,33
 796 1200 796 1200 783 1206.5 c 128,-1,34
 770 1213 770 1213 754 1216.5 c 128,-1,35
 738 1220 738 1220 716 1220 c 0,36,37
 692 1220 692 1220 675 1212.5 c 128,-1,38
 658 1205 658 1205 647.5 1193 c 128,-1,39
 637 1181 637 1181 632 1165 c 128,-1,40
 627 1149 627 1149 627 1132 c 2,41,-1
 627 1039 l 1,42,-1
 945 1039 l 1,43,-1
 945 815 l 1,44,-1
 627 815 l 1,45,-1
 627 58 l 2,46,47
 627 -80 627 -80 584.5 -177.5 c 128,-1,48
 542 -275 542 -275 466 -337 c 128,-1,49
 390 -399 390 -399 283.5 -428 c 128,-1,50
 177 -457 177 -457 49 -457 c 1,0,-1
EndSplineSet
EndChar

StartChar: uni01C3
Encoding: 451 451 324
Width: 578
GlyphClass: 1
Flags: W
LayerCount: 2
Fore
SplineSet
392 443 m 1,0,-1
 185 443 l 1,1,-1
 156 1433 l 1,2,-1
 421 1433 l 1,3,-1
 392 443 l 1,0,-1
433 0 m 1,4,-1
 144 0 l 1,5,-1
 144 286 l 1,6,-1
 433 286 l 1,7,-1
 433 0 l 1,4,-1
EndSplineSet
EndChar

StartChar: uni01DD
Encoding: 477 477 350
Width: 1105
GlyphClass: 1
Flags: W
LayerCount: 2
Fore
SplineSet
547 -12 m 0,0,1
 425 -12 425 -12 331 24.5 c 128,-1,2
 237 61 237 61 172.5 128.5 c 128,-1,3
 108 196 108 196 75 292 c 128,-1,4
 42 388 42 388 42 507 c 0,5,6
 42 561 42 561 52 610 c 1,7,-1
 761 610 l 1,8,9
 741 709 741 709 681 751.5 c 128,-1,10
 621 794 621 794 530 794 c 0,11,12
 492 794 492 794 458.5 790 c 128,-1,13
 425 786 425 786 395 775.5 c 128,-1,14
 365 765 365 765 337 745.5 c 128,-1,15
 309 726 309 726 281 696 c 1,16,-1
 84 875 l 1,17,18
 133 926 133 926 185 960 c 128,-1,19
 237 994 237 994 293.5 1014.5 c 128,-1,20
 350 1035 350 1035 412.5 1043.5 c 128,-1,21
 475 1052 475 1052 546 1052 c 0,22,23
 665 1052 665 1052 760.5 1012 c 128,-1,24
 856 972 856 972 923.5 900.5 c 128,-1,25
 991 829 991 829 1027.5 730.5 c 128,-1,26
 1064 632 1064 632 1064 517 c 0,27,28
 1064 440 1064 440 1044.5 366.5 c 128,-1,29
 1025 293 1025 293 988.5 230 c 128,-1,30
 952 167 952 167 897 115.5 c 128,-1,31
 842 64 842 64 771 31 c 0,32,33
 717 6 717 6 661.5 -3 c 128,-1,34
 606 -12 606 -12 547 -12 c 0,0,1
547 216 m 0,35,36
 639 216 639 216 691 270.5 c 128,-1,37
 743 325 743 325 761 417 c 1,38,-1
 323 417 l 1,39,40
 338 312 338 312 393.5 264 c 128,-1,41
 449 216 449 216 547 216 c 0,35,36
EndSplineSet
EndChar

StartChar: uni01E3
Encoding: 483 483 352
Width: 1730
GlyphClass: 1
Flags: W
LayerCount: 2
Fore
SplineSet
1151 1132 m 1,0,-1
 560 1132 l 1,1,-1
 560 1283 l 1,2,-1
 1151 1283 l 1,3,-1
 1151 1132 l 1,0,-1
400 -20 m 0,4,5
 329 -20 329 -20 263.5 3 c 128,-1,6
 198 26 198 26 147 69 c 128,-1,7
 96 112 96 112 65 172.5 c 128,-1,8
 34 233 34 233 34 308 c 0,9,10
 34 402 34 402 70 462.5 c 128,-1,11
 106 523 106 523 165 558.5 c 128,-1,12
 224 594 224 594 300 608 c 128,-1,13
 376 622 376 622 455 622 c 2,14,-1
 719 622 l 1,15,16
 719 681 719 681 705 719.5 c 128,-1,17
 691 758 691 758 664 780.5 c 128,-1,18
 637 803 637 803 597.5 812.5 c 128,-1,19
 558 822 558 822 508 822 c 0,20,21
 437 822 437 822 374.5 785.5 c 128,-1,22
 312 749 312 749 272 687 c 1,23,-1
 81 842 l 1,24,25
 164 954 164 954 271 1005 c 128,-1,26
 378 1056 378 1056 519 1056 c 0,27,28
 621 1056 621 1056 711.5 1018 c 128,-1,29
 802 980 802 980 865 900 c 1,30,31
 937 976 937 976 1021.5 1014 c 128,-1,32
 1106 1052 1106 1052 1213 1052 c 0,33,34
 1329 1052 1329 1052 1417 1012 c 128,-1,35
 1505 972 1505 972 1564.5 902.5 c 128,-1,36
 1624 833 1624 833 1653.5 738 c 128,-1,37
 1683 643 1683 643 1683 534 c 0,38,39
 1683 510 1683 510 1681 481.5 c 128,-1,40
 1679 453 1679 453 1670 430 c 1,41,-1
 959 430 l 1,42,43
 980 332 980 332 1041.5 288.5 c 128,-1,44
 1103 245 1103 245 1193 245 c 0,45,46
 1231 245 1231 245 1264.5 248.5 c 128,-1,47
 1298 252 1298 252 1328 262.5 c 128,-1,48
 1358 273 1358 273 1385.5 292 c 128,-1,49
 1413 311 1413 311 1440 342 c 1,50,51
 1491 299 1491 299 1540 255 c 128,-1,52
 1589 211 1589 211 1639 165 c 1,53,54
 1546 70 1546 70 1438 29 c 128,-1,55
 1330 -12 1330 -12 1195 -12 c 0,56,57
 1147 -12 1147 -12 1098.5 -6 c 128,-1,58
 1050 0 1050 0 1004.5 14.5 c 128,-1,59
 959 29 959 29 918 53 c 128,-1,60
 877 77 877 77 844 113 c 1,61,62
 746 39 746 39 634 9.5 c 128,-1,63
 522 -20 522 -20 400 -20 c 0,4,5
1400 622 m 1,64,65
 1383 726 1383 726 1328.5 775 c 128,-1,66
 1274 824 1274 824 1177 824 c 0,67,68
 1082 824 1082 824 1030.5 771.5 c 128,-1,69
 979 719 979 719 962 622 c 1,70,-1
 1400 622 l 1,64,65
434 200 m 0,71,72
 452 200 452 200 469.5 202 c 128,-1,73
 487 204 487 204 505 208 c 0,74,75
 539 216 539 216 574.5 237.5 c 128,-1,76
 610 259 610 259 640 289.5 c 128,-1,77
 670 320 670 320 691.5 356.5 c 128,-1,78
 713 393 713 393 719 430 c 1,79,-1
 466 430 l 2,80,81
 440 430 440 430 408.5 424.5 c 128,-1,82
 377 419 377 419 350 405.5 c 128,-1,83
 323 392 323 392 304.5 369 c 128,-1,84
 286 346 286 346 286 310 c 0,85,86
 286 277 286 277 299.5 255.5 c 128,-1,87
 313 234 313 234 334 222 c 128,-1,88
 355 210 355 210 381.5 205 c 128,-1,89
 408 200 408 200 434 200 c 0,71,72
EndSplineSet
EndChar

StartChar: uni01EB
Encoding: 491 491 354
Width: 1144
GlyphClass: 1
Flags: W
LayerCount: 2
Fore
SplineSet
595 -453 m 0,0,1
 567 -453 567 -453 536 -443.5 c 128,-1,2
 505 -434 505 -434 481 -419 c 0,3,4
 430 -390 430 -390 402.5 -345.5 c 128,-1,5
 375 -301 375 -301 375 -241 c 0,6,7
 375 -167 375 -167 411 -108.5 c 128,-1,8
 447 -50 447 -50 502 -7 c 1,9,10
 399 2 399 2 313.5 48.5 c 128,-1,11
 228 95 228 95 168 167 c 128,-1,12
 108 239 108 239 75 332 c 128,-1,13
 42 425 42 425 42 529 c 0,14,15
 42 608 42 608 64 682 c 128,-1,16
 86 756 86 756 127 818.5 c 128,-1,17
 168 881 168 881 226.5 931 c 128,-1,18
 285 981 285 981 357 1012 c 0,19,20
 415 1038 415 1038 470.5 1045 c 128,-1,21
 526 1052 526 1052 588 1052 c 0,22,23
 696 1052 696 1052 790 1011.5 c 128,-1,24
 884 971 884 971 953.5 900.5 c 128,-1,25
 1023 830 1023 830 1063 734 c 128,-1,26
 1103 638 1103 638 1103 528 c 0,27,28
 1103 437 1103 437 1079 356 c 128,-1,29
 1055 275 1055 275 1009 208.5 c 128,-1,30
 963 142 963 142 896 92 c 128,-1,31
 829 42 829 42 743 14 c 1,32,-1
 751 14 l 1,33,34
 722 3 722 3 695.5 -9 c 128,-1,35
 669 -21 669 -21 642 -37 c 0,36,37
 628 -45 628 -45 613.5 -52.5 c 128,-1,38
 599 -60 599 -60 587 -69 c 0,39,40
 557 -91 557 -91 541 -126.5 c 128,-1,41
 525 -162 525 -162 525 -199 c 0,42,43
 525 -242 525 -242 541.5 -266 c 128,-1,44
 558 -290 558 -290 605 -290 c 0,45,46
 640 -290 640 -290 662.5 -274.5 c 128,-1,47
 685 -259 685 -259 706 -233 c 1,48,-1
 841 -325 l 1,49,50
 795 -391 795 -391 736 -422 c 128,-1,51
 677 -453 677 -453 595 -453 c 0,0,1
572 233 m 256,52,53
 638 233 638 233 685.5 256 c 128,-1,54
 733 279 733 279 763 318.5 c 128,-1,55
 793 358 793 358 807.5 411.5 c 128,-1,56
 822 465 822 465 822 525 c 0,57,58
 822 586 822 586 807.5 639 c 128,-1,59
 793 692 793 692 763 731.5 c 128,-1,60
 733 771 733 771 685.5 793.5 c 128,-1,61
 638 816 638 816 572 816 c 0,62,63
 507 816 507 816 460.5 793 c 128,-1,64
 414 770 414 770 383 730.5 c 128,-1,65
 352 691 352 691 337.5 638.5 c 128,-1,66
 323 586 323 586 323 525 c 256,67,68
 323 464 323 464 337 410.5 c 128,-1,69
 351 357 351 357 381 318 c 128,-1,70
 411 279 411 279 458.5 256 c 128,-1,71
 506 233 506 233 572 233 c 256,52,53
EndSplineSet
EndChar

StartChar: uni0237
Encoding: 567 567 368
Width: 546
GlyphClass: 2
Flags: W
LayerCount: 2
Fore
SplineSet
92 -438 m 0,0,1
 48 -438 48 -438 4 -429.5 c 128,-1,2
 -40 -421 -40 -421 -81 -406 c 1,3,4
 -66 -349 -66 -349 -49.5 -294 c 128,-1,5
 -33 -239 -33 -239 -17 -183 c 1,6,7
 38 -197 38 -197 90 -197 c 0,8,9
 112 -197 112 -197 123.5 -190 c 128,-1,10
 135 -183 135 -183 141 -170.5 c 128,-1,11
 147 -158 147 -158 148 -142 c 128,-1,12
 149 -126 149 -126 149 -109 c 2,13,-1
 149 1039 l 1,14,-1
 405 1039 l 1,15,-1
 405 -95 l 2,16,17
 405 -169 405 -169 385 -232 c 128,-1,18
 365 -295 365 -295 326 -341 c 128,-1,19
 287 -387 287 -387 228 -412.5 c 128,-1,20
 169 -438 169 -438 92 -438 c 0,0,1
EndSplineSet
EndChar

StartChar: uni0250
Encoding: 592 592 369
Width: 1124
GlyphClass: 1
Flags: W
LayerCount: 2
Fore
SplineSet
599 -20 m 0,0,1
 503 -20 503 -20 420 8 c 128,-1,2
 337 36 337 36 275.5 90 c 128,-1,3
 214 144 214 144 179 224 c 128,-1,4
 144 304 144 304 144 407 c 2,5,-1
 144 1035 l 1,6,-1
 356 1035 l 1,7,-1
 387 903 l 1,8,9
 419 947 419 947 453.5 976.5 c 128,-1,10
 488 1006 488 1006 528.5 1023.5 c 128,-1,11
 569 1041 569 1041 615 1048.5 c 128,-1,12
 661 1056 661 1056 714 1056 c 0,13,14
 787 1056 787 1056 854.5 1032 c 128,-1,15
 922 1008 922 1008 975.5 964 c 128,-1,16
 1029 920 1029 920 1061 857.5 c 128,-1,17
 1093 795 1093 795 1093 718 c 0,18,19
 1093 622 1093 622 1054.5 562 c 128,-1,20
 1016 502 1016 502 953.5 468 c 128,-1,21
 891 434 891 434 814 422 c 128,-1,22
 737 410 737 410 658 410 c 2,23,-1
 409 410 l 1,24,25
 409 359 409 359 423 323 c 128,-1,26
 437 287 437 287 462.5 263.5 c 128,-1,27
 488 240 488 240 525 229 c 128,-1,28
 562 218 562 218 607 218 c 0,29,30
 640 218 640 218 673.5 229.5 c 128,-1,31
 707 241 707 241 736 261 c 128,-1,32
 765 281 765 281 789 308.5 c 128,-1,33
 813 336 813 336 827 367 c 1,34,-1
 1037 202 l 1,35,36
 955 89 955 89 848 34.5 c 128,-1,37
 741 -20 741 -20 599 -20 c 0,0,1
648 602 m 2,38,39
 672 602 672 602 701 608.5 c 128,-1,40
 730 615 730 615 755 628.5 c 128,-1,41
 780 642 780 642 796.5 664.5 c 128,-1,42
 813 687 813 687 813 719 c 256,43,44
 813 751 813 751 796.5 771.5 c 128,-1,45
 780 792 780 792 756 804 c 128,-1,46
 732 816 732 816 704 821 c 128,-1,47
 676 826 676 826 653 826 c 0,48,49
 611 826 611 826 568 809 c 128,-1,50
 525 792 525 792 489.5 762 c 128,-1,51
 454 732 454 732 431.5 691 c 128,-1,52
 409 650 409 650 409 602 c 1,53,-1
 648 602 l 2,38,39
EndSplineSet
EndChar

StartChar: uni0254
Encoding: 596 596 370
Width: 1034
GlyphClass: 1
Flags: W
LayerCount: 2
Fore
SplineSet
483 -20 m 0,0,1
 405 -20 405 -20 335 0.5 c 128,-1,2
 265 21 265 21 206 60.5 c 128,-1,3
 147 100 147 100 101.5 156 c 128,-1,4
 56 212 56 212 25 282 c 1,5,-1
 294 389 l 1,6,7
 314 315 314 315 364 278 c 128,-1,8
 414 241 414 241 488 241 c 0,9,10
 548 241 548 241 591 263 c 128,-1,11
 634 285 634 285 662 323 c 128,-1,12
 690 361 690 361 703 411 c 128,-1,13
 716 461 716 461 716 518 c 0,14,15
 716 576 716 576 703.5 627 c 128,-1,16
 691 678 691 678 663 715 c 128,-1,17
 635 752 635 752 592 773 c 128,-1,18
 549 794 549 794 488 794 c 0,19,20
 416 794 416 794 365.5 755 c 128,-1,21
 315 716 315 716 294 645 c 1,22,-1
 34 745 l 1,23,24
 90 895 90 895 208.5 975.5 c 128,-1,25
 327 1056 327 1056 489 1056 c 0,26,27
 607 1056 607 1056 700.5 1013.5 c 128,-1,28
 794 971 794 971 859 897 c 128,-1,29
 924 823 924 823 958.5 723.5 c 128,-1,30
 993 624 993 624 993 510 c 0,31,32
 993 432 993 432 974.5 358.5 c 128,-1,33
 956 285 956 285 919 221.5 c 128,-1,34
 882 158 882 158 828 106.5 c 128,-1,35
 774 55 774 55 702 22 c 0,36,37
 650 -3 650 -3 595.5 -11.5 c 128,-1,38
 541 -20 541 -20 483 -20 c 0,0,1
EndSplineSet
EndChar

StartChar: uni0258
Encoding: 600 600 371
Width: 1105
GlyphClass: 1
Flags: W
LayerCount: 2
Fore
SplineSet
529 -12 m 0,0,1
 395 -12 395 -12 286 29 c 128,-1,2
 177 70 177 70 84 165 c 1,3,-1
 281 342 l 1,4,5
 309 311 309 311 337 292 c 128,-1,6
 365 273 365 273 394.5 262.5 c 128,-1,7
 424 252 424 252 457.5 248.5 c 128,-1,8
 491 245 491 245 530 245 c 0,9,10
 622 245 622 245 682 288 c 128,-1,11
 742 331 742 331 761 430 c 1,12,-1
 52 430 l 1,13,14
 46 453 46 453 44 477.5 c 128,-1,15
 42 502 42 502 42 525 c 0,16,17
 42 650 42 650 75 748 c 128,-1,18
 108 846 108 846 173.5 914 c 128,-1,19
 239 982 239 982 336 1017 c 128,-1,20
 433 1052 433 1052 561 1052 c 0,21,22
 680 1052 680 1052 773 1009 c 128,-1,23
 866 966 866 966 931 892 c 128,-1,24
 996 818 996 818 1030 718.5 c 128,-1,25
 1064 619 1064 619 1064 505 c 0,26,27
 1064 427 1064 427 1043.5 354.5 c 128,-1,28
 1023 282 1023 282 984 220 c 128,-1,29
 945 158 945 158 888.5 109 c 128,-1,30
 832 60 832 60 759 29 c 0,31,32
 704 5 704 5 646 -3.5 c 128,-1,33
 588 -12 588 -12 529 -12 c 0,0,1
761 622 m 1,34,35
 742 716 742 716 691 770 c 128,-1,36
 640 824 640 824 547 824 c 0,37,38
 447 824 447 824 393 776 c 128,-1,39
 339 728 339 728 323 622 c 1,40,-1
 761 622 l 1,34,35
EndSplineSet
EndChar

StartChar: uni0259
Encoding: 601 601 372
Width: 1105
GlyphClass: 1
Flags: W
LayerCount: 2
Fore
SplineSet
547 -12 m 0,0,1
 425 -12 425 -12 331 24.5 c 128,-1,2
 237 61 237 61 172.5 128.5 c 128,-1,3
 108 196 108 196 75 292 c 128,-1,4
 42 388 42 388 42 507 c 0,5,6
 42 561 42 561 52 610 c 1,7,-1
 761 610 l 1,8,9
 741 709 741 709 681 751.5 c 128,-1,10
 621 794 621 794 530 794 c 0,11,12
 492 794 492 794 458.5 790 c 128,-1,13
 425 786 425 786 395 775.5 c 128,-1,14
 365 765 365 765 337 745.5 c 128,-1,15
 309 726 309 726 281 696 c 1,16,-1
 84 875 l 1,17,18
 133 926 133 926 185 960 c 128,-1,19
 237 994 237 994 293.5 1014.5 c 128,-1,20
 350 1035 350 1035 412.5 1043.5 c 128,-1,21
 475 1052 475 1052 546 1052 c 0,22,23
 665 1052 665 1052 760.5 1012 c 128,-1,24
 856 972 856 972 923.5 900.5 c 128,-1,25
 991 829 991 829 1027.5 730.5 c 128,-1,26
 1064 632 1064 632 1064 517 c 0,27,28
 1064 440 1064 440 1044.5 366.5 c 128,-1,29
 1025 293 1025 293 988.5 230 c 128,-1,30
 952 167 952 167 897 115.5 c 128,-1,31
 842 64 842 64 771 31 c 0,32,33
 717 6 717 6 661.5 -3 c 128,-1,34
 606 -12 606 -12 547 -12 c 0,0,1
547 216 m 0,35,36
 639 216 639 216 691 270.5 c 128,-1,37
 743 325 743 325 761 417 c 1,38,-1
 323 417 l 1,39,40
 338 312 338 312 393.5 264 c 128,-1,41
 449 216 449 216 547 216 c 0,35,36
EndSplineSet
EndChar

StartChar: uni0261
Encoding: 609 609 373
Width: 1194
GlyphClass: 1
Flags: W
LayerCount: 2
Fore
SplineSet
563 -440 m 0,0,1
 417 -440 417 -440 300 -387.5 c 128,-1,2
 183 -335 183 -335 94 -219 c 1,3,-1
 303 -62 l 1,4,5
 321 -99 321 -99 351 -124.5 c 128,-1,6
 381 -150 381 -150 417 -167 c 128,-1,7
 453 -184 453 -184 493 -192 c 128,-1,8
 533 -200 533 -200 571 -200 c 0,9,10
 656 -200 656 -200 699.5 -174 c 128,-1,11
 743 -148 743 -148 760.5 -103.5 c 128,-1,12
 778 -59 778 -59 779 0.5 c 128,-1,13
 780 60 780 60 780 126 c 1,14,15
 753 95 753 95 720 74 c 128,-1,16
 687 53 687 53 650 40 c 128,-1,17
 613 27 613 27 573 21.5 c 128,-1,18
 533 16 533 16 494 16 c 0,19,20
 418 16 418 16 352.5 40.5 c 128,-1,21
 287 65 287 65 234 108 c 128,-1,22
 181 151 181 151 142.5 210 c 128,-1,23
 104 269 104 269 81 339 c 0,24,25
 64 392 64 392 57 444 c 128,-1,26
 50 496 50 496 50 551 c 0,27,28
 50 612 50 612 63.5 673.5 c 128,-1,29
 77 735 77 735 103 792.5 c 128,-1,30
 129 850 129 850 167.5 900 c 128,-1,31
 206 950 206 950 255 986 c 0,32,33
 310 1027 310 1027 368.5 1043.5 c 128,-1,34
 427 1060 427 1060 495 1060 c 0,35,36
 574 1060 574 1060 650.5 1034.5 c 128,-1,37
 727 1009 727 1009 780 950 c 1,38,-1
 780 1039 l 1,39,-1
 1055 1039 l 1,40,-1
 1056 455 l 1,41,-1
 1056 12 l 2,42,43
 1056 -102 1056 -102 1019 -186.5 c 128,-1,44
 982 -271 982 -271 916.5 -327 c 128,-1,45
 851 -383 851 -383 760.5 -411.5 c 128,-1,46
 670 -440 670 -440 563 -440 c 0,0,1
567 270 m 0,47,48
 628 270 628 270 672.5 289.5 c 128,-1,49
 717 309 717 309 746 345 c 128,-1,50
 775 381 775 381 789 430 c 128,-1,51
 803 479 803 479 803 538 c 0,52,53
 803 596 803 596 789 645.5 c 128,-1,54
 775 695 775 695 746 732 c 128,-1,55
 717 769 717 769 672.5 790 c 128,-1,56
 628 811 628 811 567 811 c 0,57,58
 507 811 507 811 461.5 790 c 128,-1,59
 416 769 416 769 386 732 c 128,-1,60
 356 695 356 695 341.5 645.5 c 128,-1,61
 327 596 327 596 327 538 c 0,62,63
 327 479 327 479 341.5 429.5 c 128,-1,64
 356 380 356 380 386 344.5 c 128,-1,65
 416 309 416 309 461.5 289.5 c 128,-1,66
 507 270 507 270 567 270 c 0,47,48
EndSplineSet
EndChar

StartChar: circumflex
Encoding: 710 710 375
Width: 623
GlyphClass: 1
Flags: W
LayerCount: 2
Fore
SplineSet
625 1098 m 1,0,-1
 429 1098 l 1,1,-1
 312 1230 l 1,2,-1
 197 1098 l 1,3,-1
 0 1098 l 1,4,-1
 312 1449 l 1,5,-1
 625 1098 l 1,0,-1
EndSplineSet
EndChar

StartChar: caron
Encoding: 711 711 376
Width: 630
GlyphClass: 1
Flags: W
LayerCount: 2
Fore
SplineSet
315 1078 m 1,0,-1
 3 1410 l 1,1,-1
 201 1410 l 1,2,-1
 315 1290 l 1,3,-1
 432 1410 l 1,4,-1
 629 1410 l 1,5,-1
 315 1078 l 1,0,-1
EndSplineSet
EndChar

StartChar: uni02D0
Encoding: 720 720 377
Width: 570
GlyphClass: 1
Flags: W
LayerCount: 2
Fore
SplineSet
549 0 m 1,0,-1
 15 12 l 1,1,-1
 278 488 l 1,2,-1
 21 999 l 1,3,-1
 555 987 l 1,4,-1
 293 511 l 1,5,-1
 549 0 l 1,0,-1
EndSplineSet
EndChar

StartChar: uni02D1
Encoding: 721 721 378
Width: 563
GlyphClass: 1
Flags: W
LayerCount: 2
Fore
SplineSet
276 194 m 1,0,-1
 17 709 l 1,1,-1
 552 698 l 1,2,-1
 276 194 l 1,0,-1
EndSplineSet
EndChar

StartChar: breve
Encoding: 728 728 379
Width: 805
GlyphClass: 1
Flags: W
LayerCount: 2
Fore
SplineSet
404 1143 m 256,0,1
 334 1143 334 1143 275.5 1156 c 128,-1,2
 217 1169 217 1169 174.5 1200.5 c 128,-1,3
 132 1232 132 1232 108.5 1283.5 c 128,-1,4
 85 1335 85 1335 85 1413 c 1,5,-1
 269 1413 l 1,6,7
 269 1349 269 1349 306.5 1322 c 128,-1,8
 344 1295 344 1295 404 1295 c 0,9,10
 461 1295 461 1295 500 1323.5 c 128,-1,11
 539 1352 539 1352 539 1413 c 1,12,-1
 722 1413 l 1,13,14
 722 1336 722 1336 698.5 1284 c 128,-1,15
 675 1232 675 1232 633 1200.5 c 128,-1,16
 591 1169 591 1169 532.5 1156 c 128,-1,17
 474 1143 474 1143 404 1143 c 256,0,1
EndSplineSet
EndChar

StartChar: dotaccent
Encoding: 729 729 380
Width: 551
GlyphClass: 1
Flags: W
LayerCount: 2
Fore
SplineSet
428 1178 m 1,0,-1
 146 1178 l 1,1,-1
 146 1413 l 1,2,-1
 428 1413 l 1,3,-1
 428 1178 l 1,0,-1
EndSplineSet
EndChar

StartChar: ring
Encoding: 730 730 381
Width: 632
GlyphClass: 1
Flags: W
LayerCount: 2
Fore
SplineSet
308 1066 m 0,0,1
 274 1066 274 1066 241.5 1077.5 c 128,-1,2
 209 1089 209 1089 181.5 1109 c 128,-1,3
 154 1129 154 1129 132 1155.5 c 128,-1,4
 110 1182 110 1182 97 1213 c 0,5,6
 85 1239 85 1239 81.5 1262 c 128,-1,7
 78 1285 78 1285 78 1313 c 0,8,9
 78 1361 78 1361 97.5 1403 c 128,-1,10
 117 1445 117 1445 149.5 1476.5 c 128,-1,11
 182 1508 182 1508 225 1526 c 128,-1,12
 268 1544 268 1544 315 1544 c 0,13,14
 365 1544 365 1544 409 1525.5 c 128,-1,15
 453 1507 453 1507 485.5 1474.5 c 128,-1,16
 518 1442 518 1442 537 1398.5 c 128,-1,17
 556 1355 556 1355 556 1305 c 0,18,19
 556 1254 556 1254 536 1210 c 128,-1,20
 516 1166 516 1166 482 1134 c 128,-1,21
 448 1102 448 1102 403 1084 c 128,-1,22
 358 1066 358 1066 308 1066 c 0,0,1
315 1205 m 0,23,24
 363 1205 363 1205 389.5 1233 c 128,-1,25
 416 1261 416 1261 416 1309 c 0,26,27
 416 1356 416 1356 388 1380.5 c 128,-1,28
 360 1405 360 1405 315 1405 c 0,29,30
 271 1405 271 1405 244 1379.5 c 128,-1,31
 217 1354 217 1354 217 1309 c 256,32,33
 217 1264 217 1264 243 1234.5 c 128,-1,34
 269 1205 269 1205 315 1205 c 0,23,24
EndSplineSet
EndChar

